<?xml version="1.0" encoding="UTF-8" standalone="no"?>
<!-- Created with Inkscape (http://www.inkscape.org/) -->
<svg
   xmlns:dc="http://purl.org/dc/elements/1.1/"
   xmlns:cc="http://web.resource.org/cc/"
   xmlns:rdf="http://www.w3.org/1999/02/22-rdf-syntax-ns#"
   xmlns:svg="http://www.w3.org/2000/svg"
   xmlns="http://www.w3.org/2000/svg"
   xmlns:xlink="http://www.w3.org/1999/xlink"
   xmlns:sodipodi="http://sodipodi.sourceforge.net/DTD/sodipodi-0.dtd"
   xmlns:inkscape="http://www.inkscape.org/namespaces/inkscape"
   width="32"
   height="32"
   id="svg2"
   sodipodi:version="0.32"
   inkscape:version="0.45"
   version="1.0"
   sodipodi:docbase="/home/lapo/Icone/tangerine-icon-theme/32x32/devices"
   sodipodi:docname="drive-harddisk.svg"
   inkscape:export-filename="/home/lapo/Desktop/drive-harddisk.png"
   inkscape:export-xdpi="90"
   inkscape:export-ydpi="90"
   inkscape:output_extension="org.inkscape.output.svg.inkscape">
  <defs
     id="defs4">
    <linearGradient
       inkscape:collect="always"
       id="linearGradient3657">
      <stop
         style="stop-color:#ffffff;stop-opacity:1;"
         offset="0"
         id="stop3659" />
      <stop
         style="stop-color:#ffffff;stop-opacity:0;"
         offset="1"
         id="stop3661" />
    </linearGradient>
    <linearGradient
       inkscape:collect="always"
       id="linearGradient3649">
      <stop
         style="stop-color:#ffffff;stop-opacity:1;"
         offset="0"
         id="stop3651" />
      <stop
         style="stop-color:#ffffff;stop-opacity:0;"
         offset="1"
         id="stop3653" />
    </linearGradient>
    <linearGradient
       id="linearGradient3338">
      <stop
         style="stop-color:#000000;stop-opacity:0;"
         offset="0"
         id="stop3340" />
      <stop
         id="stop3346"
         offset="0.5"
         style="stop-color:#000000;stop-opacity:1;" />
      <stop
         style="stop-color:#000000;stop-opacity:0;"
         offset="1"
         id="stop3342" />
    </linearGradient>
    <linearGradient
       inkscape:collect="always"
       id="linearGradient3324">
      <stop
         style="stop-color:#000000;stop-opacity:1;"
         offset="0"
         id="stop3326" />
      <stop
         style="stop-color:#000000;stop-opacity:0;"
         offset="1"
         id="stop3328" />
    </linearGradient>
    <linearGradient
       id="linearGradient3316"
       inkscape:collect="always">
      <stop
         id="stop3318"
         offset="0"
         style="stop-color:#000000;stop-opacity:1" />
      <stop
         id="stop3320"
         offset="1"
         style="stop-color:#ffffff;stop-opacity:0;" />
    </linearGradient>
    <linearGradient
       inkscape:collect="always"
       id="linearGradient3304">
      <stop
         style="stop-color:#ffffff;stop-opacity:1;"
         offset="0"
         id="stop3306" />
      <stop
         style="stop-color:#ffffff;stop-opacity:0;"
         offset="1"
         id="stop3308" />
    </linearGradient>
    <linearGradient
       inkscape:collect="always"
       id="linearGradient3296">
      <stop
         style="stop-color:#ffffff;stop-opacity:1;"
         offset="0"
         id="stop3298" />
      <stop
         style="stop-color:#ffffff;stop-opacity:0;"
         offset="1"
         id="stop3300" />
    </linearGradient>
    <linearGradient
       inkscape:collect="always"
       id="linearGradient3259">
      <stop
         style="stop-color:#ffffff;stop-opacity:1;"
         offset="0"
         id="stop3261" />
      <stop
         style="stop-color:#ffffff;stop-opacity:0;"
         offset="1"
         id="stop3263" />
    </linearGradient>
    <linearGradient
       inkscape:collect="always"
       id="linearGradient3251">
      <stop
         style="stop-color:#ffffff;stop-opacity:1;"
         offset="0"
         id="stop3253" />
      <stop
         style="stop-color:#ffffff;stop-opacity:0;"
         offset="1"
         id="stop3255" />
    </linearGradient>
    <linearGradient
       id="linearGradient2568">
      <stop
         id="stop2570"
         offset="0"
         style="stop-color:#f7f7f6;stop-opacity:1;" />
      <stop
         id="stop2572"
         offset="1"
         style="stop-color:#babdb6" />
    </linearGradient>
    <linearGradient
       inkscape:collect="always"
       id="linearGradient2411">
      <stop
         style="stop-color:#2e3436"
         offset="0"
         id="stop2413" />
      <stop
         style="stop-color:#555753"
         offset="1"
         id="stop2415" />
    </linearGradient>
    <linearGradient
       inkscape:collect="always"
       id="linearGradient2401">
      <stop
         style="stop-color:#ce5c00"
         offset="0"
         id="stop2403" />
      <stop
         style="stop-color:#f57900"
         offset="1"
         id="stop2405" />
    </linearGradient>
    <linearGradient
       id="linearGradient2393">
      <stop
         style="stop-color:#f57900;stop-opacity:1;"
         offset="0"
         id="stop2395" />
      <stop
         style="stop-color:#f57900;stop-opacity:0;"
         offset="1"
         id="stop2397" />
    </linearGradient>
    <linearGradient
       inkscape:collect="always"
       id="linearGradient2328">
      <stop
         style="stop-color:#babdb6"
         offset="0"
         id="stop2330" />
      <stop
         style="stop-color:#eeeeec"
         offset="1"
         id="stop2332" />
    </linearGradient>
    <radialGradient
       inkscape:collect="always"
       xlink:href="#linearGradient3324"
       id="radialGradient3413"
       gradientUnits="userSpaceOnUse"
       gradientTransform="matrix(2,0,0,1.4,-155,-92.4)"
       cx="50"
       cy="38.5"
       fx="50"
       fy="38.5"
       r="2.5" />
    <radialGradient
       inkscape:collect="always"
       xlink:href="#linearGradient3324"
       id="radialGradient3415"
       gradientUnits="userSpaceOnUse"
       gradientTransform="matrix(2,0,0,1.4,-7,-15.4)"
       cx="50"
       cy="38.5"
       fx="50"
       fy="38.5"
       r="2.5" />
    <linearGradient
       inkscape:collect="always"
       xlink:href="#linearGradient3338"
       id="linearGradient3417"
       gradientUnits="userSpaceOnUse"
       x1="73.008774"
       y1="34.999859"
       x2="73.008774"
       y2="42.00893" />
    <linearGradient
       inkscape:collect="always"
       xlink:href="#linearGradient3251"
       id="linearGradient3529"
       gradientUnits="userSpaceOnUse"
       gradientTransform="matrix(0.6742129,0,0,0.6772732,-74.07039,-14.334104)"
       x1="57.717594"
       y1="27.493328"
       x2="60.982758"
       y2="40.864815" />
    <radialGradient
       inkscape:collect="always"
       xlink:href="#linearGradient2393"
       id="radialGradient3534"
       gradientUnits="userSpaceOnUse"
       gradientTransform="matrix(2.1333652,-4.3011512e-5,4.8826902e-5,1.4661422,-20.618642,-26.450847)"
       cx="13.999987"
       cy="32.024792"
       fx="13.999987"
       fy="32.024792"
       r="1.5" />
    <linearGradient
       inkscape:collect="always"
       xlink:href="#linearGradient2411"
       id="linearGradient3537"
       gradientUnits="userSpaceOnUse"
       gradientTransform="matrix(0.8110853,0,0,0.9988141,-2.0995354,-12.958519)"
       x1="11.04174"
       y1="33.495274"
       x2="11.04174"
       y2="35.000423" />
    <linearGradient
       inkscape:collect="always"
       xlink:href="#linearGradient3259"
       id="linearGradient3541"
       gradientUnits="userSpaceOnUse"
       gradientTransform="matrix(0.6742129,0,0,0.6772732,-73.892976,-12.248786)"
       x1="56.236435"
       y1="35.351585"
       x2="60.589989"
       y2="53.752281" />
    <linearGradient
       inkscape:collect="always"
       xlink:href="#linearGradient3296"
       id="linearGradient3547"
       gradientUnits="userSpaceOnUse"
       gradientTransform="matrix(0.6742129,0,0,0.6733242,-33.733088,-1.0599172)"
       x1="56.3125"
       y1="19.1875"
       x2="61.239254"
       y2="20.50762" />
    <linearGradient
       inkscape:collect="always"
       xlink:href="#linearGradient3316"
       id="linearGradient3550"
       gradientUnits="userSpaceOnUse"
       gradientTransform="matrix(-0.6742129,0,0,0.6772732,65.733285,-1.0954585)"
       x1="56.3125"
       y1="19.1875"
       x2="61.239254"
       y2="20.50762" />
    <radialGradient
       inkscape:collect="always"
       xlink:href="#linearGradient2568"
       id="radialGradient3554"
       gradientUnits="userSpaceOnUse"
       gradientTransform="matrix(0.8921811,0.8817522,-0.9233711,0.9125775,-37.921421,-56.324227)"
       cx="59.634045"
       cy="8.6750422"
       fx="59.634045"
       fy="8.6750422"
       r="22.000273" />
    <radialGradient
       inkscape:collect="always"
       xlink:href="#linearGradient2568"
       id="radialGradient3557"
       gradientUnits="userSpaceOnUse"
       gradientTransform="matrix(0.699823,0.7029996,-0.8363746,0.8401709,-27.205026,-40.300912)"
       cx="64.807335"
       cy="9.9807835"
       fx="64.807335"
       fy="9.9807835"
       r="22.000273" />
    <linearGradient
       inkscape:collect="always"
       xlink:href="#linearGradient3304"
       id="linearGradient3560"
       gradientUnits="userSpaceOnUse"
       gradientTransform="matrix(0.6742129,0,0,0.6772732,-33.892976,-1.2487862)"
       x1="73.999947"
       y1="11.851768"
       x2="103.33746"
       y2="46.087494" />
    <radialGradient
       inkscape:collect="always"
       xlink:href="#linearGradient2401"
       id="radialGradient3562"
       gradientUnits="userSpaceOnUse"
       gradientTransform="matrix(-1.405645e-6,-0.878708,1.514719,0,-37.53422,46.633)"
       cx="14.311005"
       cy="34.335991"
       fx="14.311005"
       fy="34.335991"
       r="1.5" />
    <linearGradient
       inkscape:collect="always"
       xlink:href="#linearGradient2328"
       id="linearGradient3573"
       gradientUnits="userSpaceOnUse"
       gradientTransform="matrix(0.6666667,0,0,-0.6666668,-33.333335,46.666676)"
       x1="76.6875"
       y1="42.84375"
       x2="76.6875"
       y2="29.984941" />
    <linearGradient
       inkscape:collect="always"
       xlink:href="#linearGradient3649"
       id="linearGradient3655"
       x1="7.5572038"
       y1="17.060659"
       x2="7.4688153"
       y2="20.020899"
       gradientUnits="userSpaceOnUse" />
    <linearGradient
       inkscape:collect="always"
       xlink:href="#linearGradient3657"
       id="linearGradient3663"
       x1="13.169864"
       y1="21.570175"
       x2="14.012694"
       y2="30.690418"
       gradientUnits="userSpaceOnUse" />
  </defs>
  <sodipodi:namedview
     id="base"
     pagecolor="#ffffff"
     bordercolor="#666666"
     borderopacity="1.0"
     inkscape:pageopacity="0.0"
     inkscape:pageshadow="2"
     inkscape:zoom="1"
     inkscape:cx="15.359601"
     inkscape:cy="8.4219064"
     inkscape:document-units="px"
     inkscape:current-layer="layer3"
     showgrid="false"
     gridempspacing="2"
     gridspacingx="0.5px"
     gridspacingy="0.5px"
     inkscape:window-width="930"
     inkscape:window-height="738"
     inkscape:window-x="173"
     inkscape:window-y="113"
     fill="#babdb6"
     stroke="#eeeeec"
     inkscape:grid-points="false"
     inkscape:grid-bbox="true"
     showguides="false"
     inkscape:guide-bbox="true"
     showborder="false"
     inkscape:showpageshadow="false"
     width="32px"
     height="32px">
    <sodipodi:guide
       orientation="horizontal"
       position="9.5"
       id="guide2264" />
    <sodipodi:guide
       orientation="horizontal"
       position="28.107495"
       id="guide3409" />
  </sodipodi:namedview>
  <metadata
     id="metadata7">
    <rdf:RDF>
      <cc:Work
         rdf:about="">
        <dc:format>image/svg+xml</dc:format>
        <dc:type
           rdf:resource="http://purl.org/dc/dcmitype/StillImage" />
        <dc:creator>
          <cc:Agent>
            <dc:title>Lapo Calamandrei</dc:title>
          </cc:Agent>
        </dc:creator>
        <dc:title>Ubuntu HD</dc:title>
        <dc:date>2006-03-09</dc:date>
        <dc:contributor>
          <cc:Agent>
            <dc:title>Jakub Steiner</dc:title>
          </cc:Agent>
        </dc:contributor>
        <cc:license
           rdf:resource="http://creativecommons.org/licenses/by-sa/2.0/" />
        <dc:subject>
          <rdf:Bag>
            <rdf:li>hdd</rdf:li>
            <rdf:li>hard drive</rdf:li>
            <rdf:li>fixed</rdf:li>
            <rdf:li>media</rdf:li>
            <rdf:li>solid</rdf:li>
          </rdf:Bag>
        </dc:subject>
      </cc:Work>
      <cc:License
         rdf:about="http://creativecommons.org/licenses/by-sa/2.0/">
        <cc:permits
           rdf:resource="http://web.resource.org/cc/Reproduction" />
        <cc:permits
           rdf:resource="http://web.resource.org/cc/Distribution" />
        <cc:requires
           rdf:resource="http://web.resource.org/cc/Notice" />
        <cc:requires
           rdf:resource="http://web.resource.org/cc/Attribution" />
        <cc:permits
           rdf:resource="http://web.resource.org/cc/DerivativeWorks" />
        <cc:requires
           rdf:resource="http://web.resource.org/cc/ShareAlike" />
      </cc:License>
    </rdf:RDF>
  </metadata>
  <g
     inkscape:groupmode="layer"
     id="layer3"
     inkscape:label="Work"
     style="display:inline">
    <g
       id="g3348"
       style="opacity:0.3"
       transform="matrix(0.6666666,0,0,1,-33.333332,-14)">
      <rect
         transform="scale(-1,-1)"
         ry="0"
         rx="0"
         y="-42"
         x="-55"
         height="7"
         width="5"
         id="rect3322"
         style="opacity:1;fill:url(#radialGradient3413);fill-opacity:1;stroke:none;stroke-width:1;stroke-linecap:round;stroke-linejoin:round;stroke-miterlimit:4;stroke-dasharray:none;stroke-dashoffset:0;stroke-opacity:1" />
      <rect
         ry="0"
         rx="0"
         y="35"
         x="93"
         height="7"
         width="5"
         id="rect3332"
         style="opacity:1;fill:url(#radialGradient3415);fill-opacity:1;stroke:none;stroke-width:1;stroke-linecap:round;stroke-linejoin:round;stroke-miterlimit:4;stroke-dasharray:none;stroke-dashoffset:0;stroke-opacity:1;display:inline" />
      <rect
         y="35"
         x="55"
         height="7"
         width="38"
         id="rect3336"
         style="opacity:1;fill:url(#linearGradient3417);fill-opacity:1;stroke:none;stroke-width:1;stroke-linecap:round;stroke-linejoin:round;stroke-miterlimit:4;stroke-dasharray:none;stroke-dashoffset:0;stroke-opacity:1" />
    </g>
    <path
       style="fill:none;fill-opacity:1;stroke:url(#linearGradient3560);stroke-width:1.00000012;stroke-linecap:round;stroke-linejoin:round;stroke-miterlimit:4;stroke-dashoffset:0;stroke-opacity:1;display:inline"
       d="M 7.739671,5.1853089 C 6.6810185,5.1718549 6.4238614,5.6888446 6.0120004,6.5398552 C 4.9753698,9.6004504 3.745923,12.590174 2.6830743,15.640713 C 2.3529715,16.650737 2.1732243,17.525339 2.1774145,17.693698 C 2.1775244,17.700753 2.1775244,17.707808 2.1774145,17.714863 L 2.1774145,19.069408 C 2.1774145,19.650234 2.6105329,20.085318 3.1887339,20.085318 L 28.808824,20.085318 C 29.387025,20.085318 29.820143,19.650234 29.820143,19.069408 L 29.820143,17.714863 C 29.820143,17.534256 29.611196,16.627293 29.272345,15.577219 C 28.175605,12.423676 27.02628,9.2890954 25.92235,6.1377243 C 25.763657,5.7890078 25.597012,5.5212953 25.458829,5.375792 C 25.320645,5.2302887 25.255314,5.1853089 25.037445,5.1853089 L 7.739671,5.1853089 z "
       id="path3199"
       sodipodi:nodetypes="cccsccccccccscc" />
    <path
       style="fill:url(#radialGradient3557);fill-opacity:1;stroke:#888a85;stroke-width:1.00000012;stroke-linecap:round;stroke-linejoin:round;stroke-miterlimit:4;stroke-dasharray:none;stroke-dashoffset:0;stroke-opacity:1;display:inline"
       d="M 6.9601124,9.2489477 C 6.1747075,9.2489477 5.736604,10.264857 5.3994975,11.005625 C 5.0623911,11.746393 1.4610634,20.762592 1.5032016,22.455775 L 1.5032016,23.471684 C 1.5032016,24.180586 2.188382,25.503504 3.8629468,25.503504 L 28.155681,25.503504 C 29.387793,25.503504 30.494357,24.66706 30.494357,23.471684 L 30.494357,22.455775 C 30.494357,20.762592 26.875575,11.344261 26.538468,10.603495 C 26.201362,9.8627268 25.82285,9.2489477 25.037445,9.2489477 L 6.9601124,9.2489477 z "
       id="path3479"
       sodipodi:nodetypes="czcccccczcc" />
    <path
       style="fill:url(#radialGradient3554);fill-opacity:1;stroke:#888a85;stroke-width:1.00000012;stroke-linecap:round;stroke-linejoin:round;stroke-miterlimit:4;stroke-dasharray:none;stroke-dashoffset:0;stroke-opacity:1;display:inline"
       d="M 7.5500486,4.5080356 C 6.5537295,4.5080356 5.736604,5.5075334 5.3994975,6.2363338 C 5.0623911,6.9651343 1.4610634,15.835676 1.5032016,17.501507 L 1.5032016,18.834169 C 1.5032016,19.76036 2.2515894,20.5 3.1887339,20.5 L 28.808824,20.5 C 29.745968,20.5 30.494357,19.76036 30.494357,18.834169 L 30.494357,17.501507 C 30.494357,15.835676 26.875575,6.5694998 26.538468,5.8406992 C 26.201362,5.1118988 25.444071,4.5080356 24.405371,4.5080356 L 7.5500486,4.5080356 z "
       id="rect3173"
       sodipodi:nodetypes="czcccccczcc" />
    <path
       sodipodi:type="inkscape:offset"
       inkscape:radius="-1.016466"
       inkscape:original="M 7.5625 4.5 C 6.5661807 4.4999999 5.7433565 5.5211996 5.40625 6.25 C 5.0691436 6.9788005 1.4578618 15.834169 1.5 17.5 L 1.5 18.84375 C 1.5 19.769941 2.2503555 20.5 3.1875 20.5 L 28.8125 20.5 C 29.749643 20.5 30.5 19.769941 30.5 18.84375 L 30.5 17.5 C 30.500001 15.834169 26.868357 6.5725506 26.53125 5.84375 C 26.194145 5.1149496 25.44495 4.5 24.40625 4.5 L 7.5625 4.5 z "
       style="fill:none;fill-opacity:1;stroke:#ffffff;stroke-width:1.00000012;stroke-linecap:round;stroke-linejoin:round;stroke-miterlimit:4;stroke-dasharray:none;stroke-dashoffset:0;stroke-opacity:1;display:inline"
       id="path3637"
       d="M 7.5625,5.53125 C 7.4116236,5.53125 7.1900585,5.6088145 6.9375,5.84375 C 6.6849415,6.0786855 6.4559566,6.4449172 6.34375,6.6875 C 6.2531351,6.8834032 5.1821354,9.3820373 4.25,11.875 C 3.7839323,13.121481 3.3286004,14.391271 3,15.4375 C 2.6713996,16.483729 2.5305723,17.441957 2.53125,17.46875 C 2.5314101,17.479166 2.5314101,17.489584 2.53125,17.5 L 2.53125,18.84375 C 2.53125,19.220946 2.7782571,19.46875 3.1875,19.46875 L 28.8125,19.46875 C 29.221741,19.46875 29.46875,19.220945 29.46875,18.84375 L 29.46875,17.5 C 29.46875,17.452872 29.306321,16.462622 28.96875,15.375 C 28.631179,14.287378 28.159214,12.954504 27.6875,11.65625 C 27.215786,10.357996 26.729102,9.084067 26.34375,8.09375 C 25.958398,7.103433 25.625588,6.3500818 25.59375,6.28125 C 25.406086,5.8755313 25.043759,5.53125 24.40625,5.53125 L 7.5625,5.53125 z " />
    <path
       style="fill:url(#linearGradient3573);fill-opacity:1;stroke:none;stroke-width:1;stroke-linecap:round;stroke-linejoin:miter;stroke-miterlimit:4;stroke-dasharray:none;stroke-dashoffset:0;stroke-opacity:1;display:inline"
       d="M 4 16 C 3.2535807 16 2 16.847332 2 17.59375 L 2 18.65625 C 2 19.402672 2.5973306 20 3.34375 20 L 28.65625 20 C 29.402668 20 30 19.402671 30 18.65625 L 30 17.6875 C 30 16.941081 29.246419 16 28 16 L 4 16 z M 3.34375 21 C 2.597331 21 2 21.597329 2 22.34375 L 2 23.3125 C 2 24.058919 2.753581 25 4 25 L 28 25 C 28.746419 25 30 24.152668 30 23.40625 L 30 22.34375 C 30 21.597328 29.402669 21 28.65625 21 L 3.34375 21 z "
       id="path3564" />
    <path
       style="opacity:0.13999999;fill:url(#linearGradient3550);fill-opacity:1;stroke:none;stroke-width:1;stroke-linecap:round;stroke-linejoin:round;stroke-miterlimit:4;stroke-dasharray:none;stroke-dashoffset:0;stroke-opacity:1;display:inline"
       d="M 24.254475,5 C 25.565763,5 25.937594,5.9156158 26.242462,6.5661942 C 27.191685,9.066503 29.871557,15.979255 30,17.868191 L 30,19.222736 C 30,19.983849 29.409248,20.577283 28.651575,20.577283 L 21.235233,20.577283 L 21.235233,5 L 24.254475,5 z "
       id="path3312"
       sodipodi:nodetypes="cccccccc" />
    <path
       style="opacity:0.75862068;fill:url(#linearGradient3547);fill-opacity:1;stroke:none;stroke-width:1;stroke-linecap:round;stroke-linejoin:round;stroke-miterlimit:4;stroke-dasharray:none;stroke-dashoffset:0;stroke-opacity:1;display:inline"
       d="M 7.5835216,5 C 6.868713,5.2339021 6.1817876,5.910277 5.8769202,6.5570621 C 5.7184302,6.9033016 4.7258277,9.8282584 3.791074,12.196151 C 3.3236975,13.380098 2.8605294,14.611111 2.5269249,15.625897 C 2.1933203,16.640682 1.9928336,17.499057 2.000196,17.793159 L 2.000196,19.139806 C 2.000196,19.896481 2.5909488,20.486455 3.3486218,20.486455 L 10.764964,20.486455 L 10.764964,5 L 7.5835216,5 z "
       id="path3294"
       sodipodi:nodetypes="ccsscccccc" />
    <path
       style="opacity:0.90804599;fill:none;fill-opacity:1;stroke:url(#linearGradient3541);stroke-width:1.00000012;stroke-linecap:round;stroke-linejoin:miter;stroke-miterlimit:4;stroke-dasharray:none;stroke-dashoffset:0;stroke-opacity:1;display:inline"
       d="M -36.811266,10.439865 C -37.389467,10.439865 -37.822585,10.87495 -37.822585,11.455775 L -37.822585,12.471684 C -37.822585,13.179498 -37.157924,13.82623 -36.137053,13.82623 L -11.865389,13.82623 C -10.865805,13.82623 -10.179857,13.140191 -10.179857,12.471684 L -10.179857,11.455775 C -10.179857,10.87495 -10.612975,10.439865 -11.191176,10.439865 L -27.899014,10.439865 C -28.133458,10.844107 -28.56258,11.117139 -29.057817,11.117139 L -32.428882,11.117139 C -32.924119,11.117139 -33.353242,10.844107 -33.587686,10.439865 L -36.811266,10.439865 z "
       id="path3203"
       sodipodi:nodetypes="ccccccccccccc" />
    <path
       style="fill:#2e3436;fill-opacity:0.75;fill-rule:evenodd;stroke:#2e3436;stroke-width:1.00000036;stroke-linecap:round;stroke-linejoin:miter;stroke-miterlimit:4;stroke-dasharray:none;stroke-opacity:1;display:inline"
       d="M 2.0063792,20.5 L 29.99362,20.5"
       id="path3205"
       sodipodi:nodetypes="cc" />
    <path
       style="color:#000000;fill:url(#linearGradient3537);fill-opacity:1;fill-rule:nonzero;stroke:none;stroke-width:1;stroke-linecap:square;stroke-linejoin:miter;marker:none;marker-start:none;marker-mid:none;marker-end:none;stroke-miterlimit:4;stroke-dasharray:none;stroke-dashoffset:0;stroke-opacity:1;visibility:visible;display:inline;overflow:visible"
       d="M 7.0758667,19.003532 C 6.4773363,19.097316 6.0113174,19.739347 6.0113174,20.501754 C 6.0113174,21.328771 6.5563667,21.999973 7.2279453,21.999973 L 11.283373,21.999973 C 11.954951,21.999973 12.5,21.328771 12.5,20.501754 C 12.5,19.674735 11.954951,19.003532 11.283373,19.003532 C 11.283373,19.003532 7.1265897,18.995585 7.0758667,19.003532 z "
       id="path3207"
       sodipodi:nodetypes="csscscc" />
    <path
       style="color:#000000;fill:url(#radialGradient3534);fill-opacity:1;fill-rule:nonzero;stroke:none;stroke-width:1;stroke-linecap:round;stroke-linejoin:miter;marker:none;marker-start:none;marker-mid:none;marker-end:none;stroke-miterlimit:4;stroke-dasharray:none;stroke-dashoffset:0;stroke-opacity:1;visibility:visible;display:inline;overflow:visible"
       d="M 6.6353384,19.003204 C 6.5258546,19.115379 6.4260927,19.252145 6.3421053,19.37776 C 6.1252472,19.712048 6,20.102991 6,20.501425 C 6,20.802943 6.0675272,21.107714 6.1954888,21.375389 C 6.2332305,21.451426 6.2952168,21.552813 6.3421053,21.625092 C 6.4260927,21.750706 6.5258546,21.887474 6.6353384,21.999648 L 11.864661,21.999648 C 11.974145,21.887474 12.073907,21.750706 12.157893,21.625092 C 12.204783,21.552814 12.266769,21.451426 12.304511,21.375389 C 12.432473,21.107714 12.5,20.802943 12.5,20.501425 C 12.5,20.102991 12.374752,19.712048 12.157893,19.37776 C 12.073907,19.252145 11.974145,19.115379 11.864661,19.003204 L 6.6353384,19.003204 z "
       id="path3209" />
    <path
       sodipodi:type="arc"
       style="color:#000000;fill:url(#radialGradient3562);fill-opacity:1;fill-rule:nonzero;stroke:none;stroke-width:0.5;stroke-linecap:round;stroke-linejoin:miter;marker:none;marker-start:none;marker-mid:none;marker-end:none;stroke-miterlimit:4;stroke-dasharray:none;stroke-dashoffset:0;stroke-opacity:1;visibility:visible;display:inline;overflow:visible"
       id="path3211"
       sodipodi:cx="14"
       sodipodi:cy="33.5"
       sodipodi:rx="1.5"
       sodipodi:ry="1"
       d="M 15.5 33.5 A 1.5 1 0 1 1  12.5,33.5 A 1.5 1 0 1 1  15.5 33.5 z"
       transform="matrix(1.298026,0,0,1.4982241,-8.9093145,-29.688733)" />
    <path
       sodipodi:type="arc"
       style="color:#000000;fill:#fcaf3e;fill-opacity:1;fill-rule:nonzero;stroke:none;stroke-width:1;stroke-linecap:round;stroke-linejoin:miter;marker:none;marker-start:none;marker-mid:none;marker-end:none;stroke-miterlimit:4;stroke-dasharray:none;stroke-dashoffset:0;stroke-opacity:1;visibility:visible;display:inline;overflow:visible"
       id="path3213"
       sodipodi:cx="14"
       sodipodi:cy="33.5"
       sodipodi:rx="1.5"
       sodipodi:ry="1"
       d="M 15.5 33.5 A 1.5 1 0 1 1  12.5,33.5 A 1.5 1 0 1 1  15.5 33.5 z"
       transform="matrix(0.7788173,0,0,0.7465095,-1.6404018,-4.7534226)" />
    <path
       style="fill:none;fill-opacity:1;stroke:url(#linearGradient3529);stroke-width:1.00000012;stroke-linecap:round;stroke-linejoin:miter;stroke-miterlimit:4;stroke-dasharray:none;stroke-dashoffset:0;stroke-opacity:1;display:inline"
       d="M -36.314468,3.613635 C -37.29874,3.613635 -38,4.299935 -38,4.966274 L -38,5.98409 C -38,6.569793 -37.571736,7 -36.988681,7 L -33.786169,7 C -33.579369,6.641048 -33.201052,6.377203 -32.77485,6.322728 C -32.773532,6.322559 -32.742471,6.322913 -32.732712,6.322728 C -32.722952,6.322542 -32.704975,6.322861 -32.690573,6.322728 C -32.661771,6.322459 -32.613739,6.322913 -32.564158,6.322728 C -32.464996,6.322356 -32.328946,6.322854 -32.163844,6.322728 C -31.833641,6.322475 -31.39754,6.32239 -30.962903,6.322728 C -30.093629,6.323401 -29.235231,6.322728 -29.235231,6.322728 C -28.739994,6.322728 -28.310872,6.59576 -28.076428,7 L -11.36859,7 C -10.785534,7 -10.357271,6.569793 -10.357271,5.98409 L -10.357271,4.973757 C -10.357271,4.313056 -11.037481,3.613635 -12.042803,3.613635 L -36.314468,3.613635 z "
       id="path3238"
       sodipodi:nodetypes="cccccssssssccccccc" />
    <path
       style="fill:none;fill-opacity:1.0;stroke:url(#linearGradient3655);stroke-width:1;stroke-linecap:round;stroke-linejoin:miter;stroke-miterlimit:4;stroke-dashoffset:0;stroke-opacity:1;display:inline"
       d="M 4,16.5 C 3.819105,16.5 3.3683176,16.684606 3.03125,16.9375 C 2.6941824,17.190394 2.5,17.50506 2.5,17.59375 L 2.5,18.65625 C 2.5,19.131527 2.8684756,19.5 3.34375,19.5 L 5.78125,19.5 C 6.0241289,19.003939 6.3980628,18.589421 6.96875,18.5 C 6.9695425,18.499876 7.023026,18.500346 7.03125,18.5 C 7.039474,18.499654 7.0559633,18.500152 7.0625,18.5 C 7.0755734,18.499696 7.1072451,18.500202 7.125,18.5 C 7.1605097,18.499597 7.1899866,18.500274 7.25,18.5 C 7.3700269,18.499451 7.550742,18.500187 7.75,18.5 C 8.1485161,18.499627 8.6631649,18.499503 9.1875,18.5 C 10.23617,18.500994 11.28125,18.5 11.28125,18.5 C 11.921157,18.5 12.390735,18.948752 12.6875,19.5 L 28.65625,19.5 C 29.131522,19.5 29.5,19.131525 29.5,18.65625 L 29.5,17.6875 C 29.5,17.283154 28.990599,16.5 28,16.5 L 4,16.5 z "
       id="path3586"
       sodipodi:nodetypes="csccccsssssssccccccc" />
    <path
       style="fill:none;fill-opacity:1.0;stroke:url(#linearGradient3663);stroke-width:1;stroke-linecap:round;stroke-linejoin:miter;stroke-miterlimit:4;stroke-dashoffset:0;stroke-opacity:1;display:inline"
       d="M 3.34375,21.5 C 2.8684766,21.5 2.5,21.868475 2.5,22.34375 L 2.5,23.3125 C 2.5,23.716846 3.009401,24.5 4,24.5 L 28,24.5 C 28.180895,24.5 28.631682,24.315394 28.96875,24.0625 C 29.305818,23.809606 29.5,23.49494 29.5,23.40625 L 29.5,22.34375 C 29.5,21.868473 29.131524,21.5 28.65625,21.5 L 12.6875,21.5 C 12.39049,22.051247 11.921158,22.5 11.28125,22.5 L 7.21875,22.5 C 6.5788412,22.5 6.1095096,22.051247 5.8125,21.5 L 3.34375,21.5 z "
       id="path3590"
       sodipodi:nodetypes="cccccscccccccc" />
  </g>
</svg>
