<?xml version="1.0" encoding="UTF-8" standalone="no"?>
<!-- Created with Inkscape (http://www.inkscape.org/) -->
<svg
   xmlns:dc="http://purl.org/dc/elements/1.1/"
   xmlns:cc="http://web.resource.org/cc/"
   xmlns:rdf="http://www.w3.org/1999/02/22-rdf-syntax-ns#"
   xmlns:svg="http://www.w3.org/2000/svg"
   xmlns="http://www.w3.org/2000/svg"
   xmlns:xlink="http://www.w3.org/1999/xlink"
   xmlns:sodipodi="http://sodipodi.sourceforge.net/DTD/sodipodi-0.dtd"
   xmlns:inkscape="http://www.inkscape.org/namespaces/inkscape"
   width="32"
   height="32"
   id="svg97"
   sodipodi:version="0.32"
   inkscape:version="0.45"
   sodipodi:docbase="/home/lapo/Icone/tangerine-icon-theme/32x32/places"
   sodipodi:docname="folder-remote-ftp.svg"
   inkscape:export-filename="/home/jimmac/Desktop/horlander-style3.png"
   inkscape:export-xdpi="90.000000"
   inkscape:export-ydpi="90.000000"
   version="1.0"
   inkscape:output_extension="org.inkscape.output.svg.inkscape">
  <defs
     id="defs3">
    <linearGradient
       inkscape:collect="always"
       id="linearGradient3197">
      <stop
         style="stop-color:#ffffff;stop-opacity:1;"
         offset="0"
         id="stop3199" />
      <stop
         style="stop-color:#ffffff;stop-opacity:0;"
         offset="1"
         id="stop3201" />
    </linearGradient>
    <linearGradient
       inkscape:collect="always"
       id="linearGradient5060">
      <stop
         style="stop-color:black;stop-opacity:1;"
         offset="0"
         id="stop5062" />
      <stop
         style="stop-color:black;stop-opacity:0;"
         offset="1"
         id="stop5064" />
    </linearGradient>
    <linearGradient
       id="linearGradient5048">
      <stop
         style="stop-color:black;stop-opacity:0;"
         offset="0"
         id="stop5050" />
      <stop
         id="stop5056"
         offset="0.5"
         style="stop-color:black;stop-opacity:1;" />
      <stop
         style="stop-color:black;stop-opacity:0;"
         offset="1"
         id="stop5052" />
    </linearGradient>
    <linearGradient
       id="linearGradient9766">
      <stop
         style="stop-color:#f57900;stop-opacity:1"
         offset="0"
         id="stop9768" />
      <stop
         style="stop-color:#fcaf3e;stop-opacity:1"
         offset="1"
         id="stop9770" />
    </linearGradient>
    <linearGradient
       id="linearGradient3096">
      <stop
         id="stop3098"
         offset="0"
         style="stop-color:#555753;stop-opacity:1" />
      <stop
         id="stop3100"
         offset="1.0000000"
         style="stop-color:#d3d7cf;stop-opacity:1.0000000" />
    </linearGradient>
    <linearGradient
       id="linearGradient319"
       inkscape:collect="always">
      <stop
         id="stop320"
         offset="0"
         style="stop-color:#ffffff;stop-opacity:1;" />
      <stop
         id="stop321"
         offset="1"
         style="stop-color:#ffffff;stop-opacity:0;" />
    </linearGradient>
    <linearGradient
       id="linearGradient1789">
      <stop
         style="stop-color:#babdb6;stop-opacity:1.0000000"
         offset="0.0000000"
         id="stop1790" />
      <stop
         style="stop-color:#ffffff;stop-opacity:1.0000000"
         offset="1.0000000"
         id="stop1791" />
    </linearGradient>
    <linearGradient
       id="linearGradient3983">
      <stop
         style="stop-color:#ffffff;stop-opacity:1;"
         offset="0"
         id="stop3984" />
      <stop
         style="stop-color:#fffffe;stop-opacity:0.0000000;"
         offset="1.0000000"
         id="stop3985" />
    </linearGradient>
    <linearGradient
       inkscape:collect="always"
       xlink:href="#linearGradient5048"
       id="linearGradient1987"
       gradientUnits="userSpaceOnUse"
       gradientTransform="matrix(2.774389,0,0,1.969706,-1892.179,-872.8854)"
       x1="302.85715"
       y1="366.64789"
       x2="302.85715"
       y2="609.50507" />
    <radialGradient
       inkscape:collect="always"
       xlink:href="#linearGradient5060"
       id="radialGradient1989"
       gradientUnits="userSpaceOnUse"
       gradientTransform="matrix(2.774389,0,0,1.969706,-1891.633,-872.8854)"
       cx="605.71429"
       cy="486.64789"
       fx="605.71429"
       fy="486.64789"
       r="117.14286" />
    <radialGradient
       inkscape:collect="always"
       xlink:href="#linearGradient5060"
       id="radialGradient1991"
       gradientUnits="userSpaceOnUse"
       gradientTransform="matrix(-2.774389,0,0,1.969706,112.7623,-872.8854)"
       cx="605.71429"
       cy="486.64789"
       fx="605.71429"
       fy="486.64789"
       r="117.14286" />
    <linearGradient
       inkscape:collect="always"
       xlink:href="#linearGradient3983"
       id="linearGradient2015"
       gradientUnits="userSpaceOnUse"
       gradientTransform="matrix(0.984921,0,0,0.473262,-0.21253,-3.913722)"
       x1="6.2297964"
       y1="13.773066"
       x2="9.8980894"
       y2="66.834053" />
    <radialGradient
       inkscape:collect="always"
       xlink:href="#linearGradient1789"
       id="radialGradient2034"
       gradientUnits="userSpaceOnUse"
       gradientTransform="matrix(0.699211,-1.853653e-2,0.117772,0.807302,-2.22033,-8.119711)"
       cx="20.706017"
       cy="37.517986"
       fx="20.706017"
       fy="37.517986"
       r="30.905205" />
    <linearGradient
       inkscape:collect="always"
       xlink:href="#linearGradient3096"
       id="linearGradient2036"
       gradientUnits="userSpaceOnUse"
       x1="19.273821"
       y1="38.282143"
       x2="15.514889"
       y2="6.1802502"
       gradientTransform="matrix(0.662746,0,0,0.677875,0.147115,-3.289646)" />
    <linearGradient
       inkscape:collect="always"
       xlink:href="#linearGradient319"
       id="linearGradient2054"
       gradientUnits="userSpaceOnUse"
       gradientTransform="matrix(0.862152,0,0,0.517484,0.119791,-2.773361)"
       x1="13.035696"
       y1="32.567184"
       x2="12.853771"
       y2="46.689312" />
    <linearGradient
       inkscape:collect="always"
       xlink:href="#linearGradient9766"
       id="linearGradient2057"
       gradientUnits="userSpaceOnUse"
       x1="22.175976"
       y1="36.987999"
       x2="22.065331"
       y2="32.050499"
       gradientTransform="matrix(0.671517,0,0,0.665524,0.287093,-2.796231)" />
    <linearGradient
       inkscape:collect="always"
       xlink:href="#linearGradient3197"
       id="linearGradient3203"
       x1="6.9928412"
       y1="20.320467"
       x2="7.9599361"
       y2="6.1860008"
       gradientUnits="userSpaceOnUse"
       gradientTransform="translate(0,-3)" />
    <linearGradient
       id="linearGradient4114"
       inkscape:collect="always">
      <stop
         id="stop4116"
         offset="0"
         style="stop-color:#000000;stop-opacity:1;" />
      <stop
         id="stop4118"
         offset="1"
         style="stop-color:#000000;stop-opacity:0;" />
    </linearGradient>
    <linearGradient
       id="linearGradient9806"
       inkscape:collect="always">
      <stop
         id="stop9808"
         offset="0"
         style="stop-color:#000000;stop-opacity:1;" />
      <stop
         id="stop9810"
         offset="1"
         style="stop-color:#000000;stop-opacity:0;" />
    </linearGradient>
    <linearGradient
       id="linearGradient264">
      <stop
         style="stop-color:#000000;stop-opacity:0.50299400;"
         offset="0.0000000"
         id="stop265" />
      <stop
         style="stop-color:#000000;stop-opacity:0.0000000;"
         offset="1.0000000"
         id="stop266" />
    </linearGradient>
    <linearGradient
       id="linearGradient218">
      <stop
         style="stop-color:#ffffff;stop-opacity:0.44910181;"
         offset="0.0000000"
         id="stop219" />
      <stop
         style="stop-color:#ffffff;stop-opacity:0.0000000;"
         offset="1.0000000"
         id="stop222" />
    </linearGradient>
    <linearGradient
       id="linearGradient204">
      <stop
         style="stop-color:#7a7a7a;stop-opacity:1.0000000;"
         offset="0.0000000"
         id="stop205" />
      <stop
         style="stop-color:#c5c5c5;stop-opacity:1.0000000;"
         offset="0.19801980"
         id="stop207" />
      <stop
         style="stop-color:#626262;stop-opacity:1.0000000;"
         offset="0.59900987"
         id="stop208" />
      <stop
         style="stop-color:#888888;stop-opacity:1.0000000;"
         offset="1.0000000"
         id="stop206" />
    </linearGradient>
    <linearGradient
       id="linearGradient178">
      <stop
         style="stop-color:#ffffff;stop-opacity:0.0000000;"
         offset="0.0000000"
         id="stop179" />
      <stop
         style="stop-color:#ffffff;stop-opacity:0.70658684;"
         offset="0.10827128"
         id="stop180" />
      <stop
         style="stop-color:#ffffff;stop-opacity:0.70658684;"
         offset="0.92053902"
         id="stop181" />
      <stop
         style="stop-color:#ffffff;stop-opacity:0.0000000;"
         offset="1.0000000"
         id="stop182" />
    </linearGradient>
    <linearGradient
       id="linearGradient272">
      <stop
         style="stop-color:#474747;stop-opacity:0.0000000;"
         offset="0.0000000"
         id="stop273" />
      <stop
         style="stop-color:#474747;stop-opacity:1.0000000;"
         offset="0.10000000"
         id="stop275" />
      <stop
         style="stop-color:#474747;stop-opacity:1.0000000;"
         offset="0.89999998"
         id="stop276" />
      <stop
         style="stop-color:#474747;stop-opacity:0.0000000;"
         offset="1.0000000"
         id="stop274" />
    </linearGradient>
    <linearGradient
       id="linearGradient158">
      <stop
         style="stop-color:#686868;stop-opacity:0.0000000;"
         offset="0.0000000"
         id="stop159" />
      <stop
         style="stop-color:#686868;stop-opacity:1.0000000;"
         offset="0.23762377"
         id="stop162" />
      <stop
         style="stop-color:#686868;stop-opacity:1.0000000;"
         offset="0.78109992"
         id="stop163" />
      <stop
         style="stop-color:#686868;stop-opacity:0.0000000;"
         offset="1.0000000"
         id="stop160" />
    </linearGradient>
    <linearGradient
       inkscape:collect="always"
       xlink:href="#linearGradient158"
       id="linearGradient3597"
       gradientUnits="userSpaceOnUse"
       gradientTransform="matrix(1.826778,0,0,0.213963,-2.613372,-51.74459)"
       x1="1.6422368"
       y1="117.8271"
       x2="15.343062"
       y2="117.8271" />
    <radialGradient
       inkscape:collect="always"
       xlink:href="#linearGradient4114"
       id="radialGradient3599"
       gradientUnits="userSpaceOnUse"
       gradientTransform="scale(1.64399,0.608276)"
       cx="15.115514"
       cy="63.965389"
       fx="15.115514"
       fy="63.965389"
       r="12.289036" />
    <linearGradient
       inkscape:collect="always"
       xlink:href="#linearGradient272"
       id="linearGradient3601"
       gradientUnits="userSpaceOnUse"
       gradientTransform="matrix(5.445734,0,0,0.223536,-2.692519,-108.1463)"
       x1="0.61210024"
       y1="372.57819"
       x2="5.0856376"
       y2="372.57819" />
    <linearGradient
       inkscape:collect="always"
       xlink:href="#linearGradient272"
       id="linearGradient3603"
       gradientUnits="userSpaceOnUse"
       gradientTransform="matrix(5.445734,0,0,0.220919,-2.613372,-102.3384)"
       x1="0.61210024"
       y1="372.57819"
       x2="5.0856376"
       y2="372.57819" />
    <linearGradient
       inkscape:collect="always"
       xlink:href="#linearGradient178"
       id="linearGradient3605"
       gradientUnits="userSpaceOnUse"
       gradientTransform="matrix(1.826778,0,0,0.121647,-2.613372,-41.0281)"
       x1="1.6422368"
       y1="117.8271"
       x2="15.343062"
       y2="117.8271" />
    <linearGradient
       inkscape:collect="always"
       xlink:href="#linearGradient204"
       id="linearGradient3607"
       gradientUnits="userSpaceOnUse"
       gradientTransform="matrix(0.721454,0,0,0.785357,-4.292566,-58.63)"
       x1="23.100046"
       y1="38.296745"
       x2="23.100046"
       y2="43.915466" />
    <linearGradient
       inkscape:collect="always"
       xlink:href="#linearGradient218"
       id="linearGradient3609"
       gradientUnits="userSpaceOnUse"
       gradientTransform="matrix(0.919094,0,0,1.154701,-22.32074,-55.37325)"
       x1="36.373066"
       y1="22.227985"
       x2="38.105118"
       y2="22.227985" />
    <linearGradient
       inkscape:collect="always"
       xlink:href="#linearGradient264"
       id="linearGradient3611"
       gradientUnits="userSpaceOnUse"
       gradientTransform="matrix(0.607118,0,0,0.822216,-4.771656,-54.95658)"
       x1="28.632685"
       y1="29.943159"
       x2="28.783722"
       y2="31.490198" />
    <radialGradient
       inkscape:collect="always"
       xlink:href="#linearGradient9806"
       id="radialGradient3613"
       gradientUnits="userSpaceOnUse"
       gradientTransform="matrix(1,0,0,0.242494,0,31.50606)"
       cx="24.35099"
       cy="41.591846"
       fx="24.35099"
       fy="41.591846"
       r="19.136078" />
    <linearGradient
       id="linearGradient3559">
      <stop
         style="stop-color:#ffffff;stop-opacity:1;"
         offset="0"
         id="stop3561" />
      <stop
         style="stop-color:#ffffff;stop-opacity:0;"
         offset="1"
         id="stop3563" />
    </linearGradient>
    <linearGradient
       inkscape:collect="always"
       id="linearGradient2564">
      <stop
         style="stop-color:#e9b96e;stop-opacity:1;"
         offset="0"
         id="stop2566" />
      <stop
         style="stop-color:#eeeeec"
         offset="1"
         id="stop2568" />
    </linearGradient>
    <linearGradient
       inkscape:collect="always"
       id="linearGradient2540">
      <stop
         style="stop-color:#e9b96e;stop-opacity:1;"
         offset="0"
         id="stop2542" />
      <stop
         style="stop-color:#fafaf9;stop-opacity:1"
         offset="1"
         id="stop2544" />
    </linearGradient>
    <linearGradient
       inkscape:collect="always"
       id="linearGradient2510">
      <stop
         style="stop-color:#ffffff;stop-opacity:1;"
         offset="0"
         id="stop2512" />
      <stop
         style="stop-color:#ffffff;stop-opacity:0;"
         offset="1"
         id="stop2514" />
    </linearGradient>
    <linearGradient
       inkscape:collect="always"
       xlink:href="#linearGradient2540"
       id="linearGradient5747"
       gradientUnits="userSpaceOnUse"
       gradientTransform="translate(-13.5,-10.12505)"
       x1="52.664932"
       y1="24.478603"
       x2="32.946236"
       y2="31.704353" />
    <linearGradient
       inkscape:collect="always"
       xlink:href="#linearGradient2564"
       id="linearGradient5749"
       gradientUnits="userSpaceOnUse"
       gradientTransform="translate(-13.5,-10.12505)"
       x1="43.487064"
       y1="31.5"
       x2="43.487064"
       y2="43.580666" />
    <linearGradient
       inkscape:collect="always"
       xlink:href="#linearGradient2510"
       id="linearGradient5751"
       gradientUnits="userSpaceOnUse"
       gradientTransform="matrix(0.9512536,0,6.0375711e-5,0.9507706,-11.643657,-8.4020214)"
       x1="31.781908"
       y1="29.868977"
       x2="31.781908"
       y2="48.89423" />
    <linearGradient
       inkscape:collect="always"
       xlink:href="#linearGradient3559"
       id="linearGradient5753"
       gradientUnits="userSpaceOnUse"
       x1="30.535336"
       y1="32.443649"
       x2="32.351418"
       y2="32.399456"
       gradientTransform="translate(-0.4103382,-4.05717e-2)" />
    <linearGradient
       inkscape:collect="always"
       xlink:href="#linearGradient3559"
       id="linearGradient5755"
       gradientUnits="userSpaceOnUse"
       gradientTransform="translate(-3.3335774,-2.2055327e-2)"
       x1="30.535336"
       y1="32.443649"
       x2="32.351418"
       y2="32.399456" />
    <linearGradient
       inkscape:collect="always"
       xlink:href="#linearGradient3559"
       id="linearGradient5757"
       gradientUnits="userSpaceOnUse"
       gradientTransform="translate(-6.2217009,-2.2055327e-2)"
       x1="30.535336"
       y1="32.443649"
       x2="32.351418"
       y2="32.399456" />
  </defs>
  <sodipodi:namedview
     fill="#729fcf"
     id="base"
     pagecolor="#ffffff"
     bordercolor="#666666"
     borderopacity="0.65098039"
     inkscape:pageopacity="0.0"
     inkscape:pageshadow="2"
     inkscape:zoom="1"
     inkscape:cx="30.142171"
     inkscape:cy="11.353915"
     inkscape:current-layer="layer1"
     showgrid="false"
     inkscape:grid-bbox="true"
     inkscape:document-units="px"
     inkscape:window-width="1036"
     inkscape:window-height="659"
     inkscape:window-x="3"
     inkscape:window-y="23"
     inkscape:showpageshadow="false"
     stroke="#3465a4"
     showguides="false"
     inkscape:guide-bbox="true"
     width="32px"
     height="32px"
     showborder="false"
     inkscape:object-paths="false"
     inkscape:grid-points="false">
    <sodipodi:guide
       orientation="horizontal"
       position="46.6875"
       id="guide2044" />
  </sodipodi:namedview>
  <metadata
     id="metadata4">
    <rdf:RDF>
      <cc:Work
         rdf:about="">
        <dc:format>image/svg+xml</dc:format>
        <dc:type
           rdf:resource="http://purl.org/dc/dcmitype/StillImage" />
        <dc:title>New Folder</dc:title>
        <dc:date />
        <dc:creator>
          <cc:Agent>
            <dc:title>Jakub Steiner</dc:title>
          </cc:Agent>
        </dc:creator>
        <cc:license
           rdf:resource="http://creativecommons.org/licenses/by-sa/2.0/" />
        <dc:source>http://jimmac.musichall.cz</dc:source>
        <dc:subject>
          <rdf:Bag>
            <rdf:li>folder</rdf:li>
            <rdf:li>directory</rdf:li>
            <rdf:li>create</rdf:li>
            <rdf:li>new</rdf:li>
          </rdf:Bag>
        </dc:subject>
        <dc:contributor>
          <cc:Agent>
            <dc:title>Tuomas Kuosmanen</dc:title>
          </cc:Agent>
        </dc:contributor>
      </cc:Work>
      <cc:License
         rdf:about="http://creativecommons.org/licenses/by/2.0/">
        <cc:permits
           rdf:resource="http://web.resource.org/cc/Reproduction" />
        <cc:permits
           rdf:resource="http://web.resource.org/cc/Distribution" />
        <cc:requires
           rdf:resource="http://web.resource.org/cc/Notice" />
        <cc:requires
           rdf:resource="http://web.resource.org/cc/Attribution" />
        <cc:permits
           rdf:resource="http://web.resource.org/cc/DerivativeWorks" />
        <cc:requires
           rdf:resource="http://web.resource.org/cc/ShareAlike" />
      </cc:License>
    </rdf:RDF>
  </metadata>
  <g
     id="layer1"
     inkscape:label="Folder"
     inkscape:groupmode="layer">
    <g
       id="g3583"
       transform="translate(0,-23)">
      <g
         id="g3835"
         transform="translate(3.3749922,77.36221)">
        <rect
           style="color:#000000;fill:url(#linearGradient3597);fill-opacity:1;fill-rule:nonzero;stroke:none;stroke-width:1;stroke-linecap:butt;stroke-linejoin:miter;marker:none;marker-start:none;marker-mid:none;marker-end:none;stroke-miterlimit:4;stroke-dashoffset:0;stroke-opacity:1;visibility:visible;display:block;overflow:visible"
           id="rect3426"
           width="24.361694"
           height="2.3451729"
           x="0.71996284"
           y="-27.706562" />
        <path
           sodipodi:type="arc"
           style="fill:url(#radialGradient3599);fill-opacity:1;stroke:none;stroke-opacity:1"
           id="path4112"
           sodipodi:cx="24.849752"
           sodipodi:cy="38.908627"
           sodipodi:rx="20.203051"
           sodipodi:ry="7.4751287"
           d="M 45.052803 38.908627 A 20.203051 7.4751287 0 1 1  4.6467018,38.908627 A 20.203051 7.4751287 0 1 1  45.052803 38.908627 z"
           transform="matrix(0.50606,0,0,0.585232,0.490471,-49.29087)" />
        <rect
           style="color:#000000;fill:url(#linearGradient3601);fill-opacity:1;fill-rule:nonzero;stroke:none;stroke-width:1;stroke-linecap:butt;stroke-linejoin:miter;marker:none;marker-start:none;marker-mid:none;marker-end:none;stroke-miterlimit:4;stroke-dashoffset:0;stroke-opacity:1;visibility:visible;display:block;overflow:visible"
           id="rect3429"
           width="24.361694"
           height="0.99999958"
           x="0.64081597"
           y="-25.361389" />
        <rect
           style="color:#000000;fill:url(#linearGradient3603);fill-opacity:1;fill-rule:nonzero;stroke:none;stroke-width:1;stroke-linecap:butt;stroke-linejoin:miter;marker:none;marker-start:none;marker-mid:none;marker-end:none;stroke-miterlimit:4;stroke-dashoffset:0;stroke-opacity:1;visibility:visible;display:block;overflow:visible"
           id="rect3431"
           width="24.361694"
           height="0.98829269"
           x="0.71996284"
           y="-28.349682" />
        <rect
           style="color:#000000;fill:url(#linearGradient3605);fill-opacity:1;fill-rule:nonzero;stroke:none;stroke-width:1;stroke-linecap:butt;stroke-linejoin:miter;marker:none;marker-start:none;marker-mid:none;marker-end:none;stroke-miterlimit:4;stroke-dashoffset:0;stroke-opacity:1;visibility:visible;display:block;overflow:visible"
           id="rect3433"
           width="24.361694"
           height="1.333334"
           x="0.71996284"
           y="-27.361389" />
        <path
           sodipodi:nodetypes="ccccccccccccccc"
           style="color:#000000;fill:url(#linearGradient3607);fill-opacity:1;fill-rule:nonzero;stroke:#434343;stroke-width:1.00000024;stroke-linecap:butt;stroke-linejoin:miter;marker:none;marker-start:none;marker-mid:none;marker-end:none;stroke-miterlimit:4;stroke-dashoffset:0;stroke-opacity:1;visibility:visible;display:block;overflow:visible"
           d="M 11.449144,-35.861386 C 10.874597,-35.861386 10.152729,-35.380208 10.152729,-34.774867 L 10.152729,-28.852422 L 8.172064,-28.852422 C 7.597516,-28.852422 7.140815,-28.371244 7.140815,-27.765902 L 7.140815,-24.947907 C 7.140815,-24.342567 7.597516,-23.861386 8.172064,-23.861388 L 17.109555,-23.861388 C 17.684102,-23.861388 18.140803,-24.342569 18.140803,-24.947907 L 18.140803,-27.765902 C 18.140803,-28.371243 17.684102,-28.852422 17.109555,-28.852422 L 15.15223,-28.852422 L 15.15223,-34.774867 C 15.15223,-35.380207 14.69553,-35.861386 14.120982,-35.861386 L 11.449144,-35.861386 z "
           id="path3435" />
        <rect
           style="color:#000000;fill:url(#linearGradient3609);fill-opacity:1;fill-rule:nonzero;stroke:none;stroke-width:1;stroke-linecap:butt;stroke-linejoin:miter;marker:none;marker-start:none;marker-mid:none;marker-end:none;stroke-miterlimit:4;stroke-dashoffset:0;stroke-opacity:1;visibility:visible;display:block;overflow:visible"
           id="rect3437"
           width="1.5919187"
           height="2.000001"
           x="11.109566"
           y="-30.706564"
           rx="0.24178642"
           ry="0.19970399" />
        <path
           style="color:#000000;fill:url(#linearGradient3611);fill-opacity:1;fill-rule:nonzero;stroke:none;stroke-width:1;stroke-linecap:butt;stroke-linejoin:miter;marker:none;marker-start:none;marker-mid:none;marker-end:none;stroke-miterlimit:4;stroke-dashoffset:0;stroke-opacity:1;visibility:visible;display:block;overflow:visible"
           d="M 14.766654,-30.404483 L 10.625,-30.404483 C 10.625,-30.404483 10.625,-29.279483 10.625,-28.956566 C 11.034485,-30.144066 14.766654,-30.404483 14.766654,-30.404483 z "
           id="path3439"
           sodipodi:nodetypes="cccc" />
        <rect
           ry="0.5"
           rx="0.44363934"
           y="-27.361389"
           x="10.640816"
           height="1"
           width="6"
           id="rect3441"
           style="opacity:0.82352941;color:#000000;fill:#ffffff;fill-opacity:0.95906432;fill-rule:nonzero;stroke:none;stroke-width:1.13999999;stroke-linecap:round;stroke-linejoin:round;marker:none;marker-start:none;marker-mid:none;marker-end:none;stroke-miterlimit:4;stroke-dashoffset:0;stroke-opacity:1;visibility:visible;display:block;overflow:visible" />
        <path
           transform="matrix(1.607844,0,0,1.607844,-20.54364,-92.20609)"
           d="M 19 40.625 A 0.53125 0.53125 0 1 1  17.9375,40.625 A 0.53125 0.53125 0 1 1  19 40.625 z"
           sodipodi:ry="0.53125"
           sodipodi:rx="0.53125"
           sodipodi:cy="40.625"
           sodipodi:cx="18.46875"
           id="path3443"
           style="opacity:0.82352941;color:#000000;fill:#ffffff;fill-opacity:0.95906432;fill-rule:nonzero;stroke:none;stroke-width:1.13999999;stroke-linecap:round;stroke-linejoin:round;marker:none;marker-start:none;marker-mid:none;marker-end:none;stroke-miterlimit:4;stroke-dashoffset:0;stroke-opacity:1;visibility:visible;display:block;overflow:visible"
           sodipodi:type="arc" />
      </g>
      <path
         sodipodi:type="arc"
         style="opacity:0.55681817;color:#000000;fill:url(#radialGradient3613);fill-opacity:1;fill-rule:nonzero;stroke:none;stroke-width:1;stroke-linecap:round;stroke-linejoin:round;marker:none;marker-start:none;marker-mid:none;marker-end:none;stroke-miterlimit:4;stroke-dasharray:none;stroke-dashoffset:0;stroke-opacity:1;visibility:visible;display:inline;overflow:visible"
         id="path9804"
         sodipodi:cx="24.35099"
         sodipodi:cy="41.591846"
         sodipodi:rx="19.136078"
         sodipodi:ry="4.6403885"
         d="M 43.487068 41.591846 A 19.136078 4.6403885 0 1 1  5.2149124,41.591846 A 19.136078 4.6403885 0 1 1  43.487068 41.591846 z"
         transform="matrix(0.609669,0,0,0.673646,0.8206222,18.523324)" />
    </g>
    <g
       style="display:inline"
       id="g5022"
       transform="matrix(1.443435e-2,0,0,1.269228e-2,28.27693,21.62248)">
      <rect
         y="-150.69685"
         x="-1559.2523"
         height="478.35718"
         width="1339.6335"
         id="rect4173"
         style="opacity:0.40206185;color:#000000;fill:url(#linearGradient1987);fill-opacity:1;fill-rule:nonzero;stroke:none;stroke-width:1;stroke-linecap:round;stroke-linejoin:miter;marker:none;marker-start:none;marker-mid:none;marker-end:none;stroke-miterlimit:4;stroke-dasharray:none;stroke-dashoffset:0;stroke-opacity:1;visibility:visible;display:inline;overflow:visible" />
      <path
         sodipodi:nodetypes="cccc"
         id="path5058"
         d="M -219.61876,-150.68038 C -219.61876,-150.68038 -219.61876,327.65041 -219.61876,327.65041 C -76.744594,328.55086 125.78146,220.48075 125.78138,88.454235 C 125.78138,-43.572302 -33.655436,-150.68036 -219.61876,-150.68038 z "
         style="opacity:0.40206185;color:#000000;fill:url(#radialGradient1989);fill-opacity:1;fill-rule:nonzero;stroke:none;stroke-width:1;stroke-linecap:round;stroke-linejoin:miter;marker:none;marker-start:none;marker-mid:none;marker-end:none;stroke-miterlimit:4;stroke-dasharray:none;stroke-dashoffset:0;stroke-opacity:1;visibility:visible;display:inline;overflow:visible" />
      <path
         style="opacity:0.40206185;color:#000000;fill:url(#radialGradient1991);fill-opacity:1;fill-rule:nonzero;stroke:none;stroke-width:1;stroke-linecap:round;stroke-linejoin:miter;marker:none;marker-start:none;marker-mid:none;marker-end:none;stroke-miterlimit:4;stroke-dasharray:none;stroke-dashoffset:0;stroke-opacity:1;visibility:visible;display:inline;overflow:visible"
         d="M -1559.2523,-150.68038 C -1559.2523,-150.68038 -1559.2523,327.65041 -1559.2523,327.65041 C -1702.1265,328.55086 -1904.6525,220.48075 -1904.6525,88.454235 C -1904.6525,-43.572302 -1745.2157,-150.68036 -1559.2523,-150.68038 z "
         id="path5018"
         sodipodi:nodetypes="cccc" />
    </g>
    <path
       d="M 3.1439054,22.935596 C 3.1583507,23.217798 3.4487054,23.500001 3.7246095,23.500001 L 24.486457,23.500001 C 24.762359,23.500001 25.023819,23.217798 25.009374,22.935596 L 24.38875,4.1017501 C 24.374305,3.8195486 24.083955,3.5373404 23.808052,3.5373404 L 15.012838,3.5373404 C 14.691369,3.5373404 14.219598,3.3175089 14.083905,2.7871818 L 13.678708,1.2035572 C 13.552513,0.710351 13.094025,0.4999999 12.818121,0.4999999 L 3.0234958,0.4999999 C 2.7475863,0.4999999 2.4861278,0.7822021 2.500573,1.0644044 L 3.1439054,22.935596 z "
       id="path216"
       style="fill:url(#radialGradient2034);fill-opacity:1;fill-rule:nonzero;stroke:url(#linearGradient2036);stroke-width:1.00000048;stroke-linecap:round;stroke-linejoin:round;stroke-miterlimit:4;stroke-dasharray:none;stroke-opacity:1"
       sodipodi:nodetypes="ccccccssssccc" />
    <path
       style="opacity:1;color:#000000;fill:url(#linearGradient2015);fill-opacity:1;fill-rule:nonzero;stroke:none;stroke-width:1.21380496;stroke-linecap:butt;stroke-linejoin:miter;marker:none;marker-start:none;marker-mid:none;marker-end:none;stroke-miterlimit:4;stroke-dashoffset:0;stroke-opacity:1;visibility:visible;display:block;overflow:visible"
       d="M 4.2989073,22.908965 C 4.3095189,23.117385 4.1814375,23.256331 3.975165,23.186858 L 3.975165,23.186858 C 3.7688873,23.117385 3.6266534,22.978438 3.6160361,22.770017 L 3.0006605,1.3661145 C 2.9900486,1.157694 3.1079193,1.0318369 3.310656,1.0318369 L 12.675217,1 C 12.877954,1 13.280348,1.2005735 13.410858,1.8825917 L 13.783237,3.7620364 C 13.505941,3.4514649 13.511046,3.4418781 13.369256,2.9899041 L 13.10557,2.1493663 C 12.963335,1.6636425 12.652212,1.5940508 12.449475,1.5940508 L 4.0811543,1.5940508 C 3.878418,1.5940508 3.7503367,1.732998 3.7609536,1.9414242 L 4.3700215,22.978438 L 4.2989073,22.908965 z "
       id="path219"
       sodipodi:nodetypes="cccccccccscccccc" />
    <g
       id="g2094"
       transform="matrix(1,0,4.166667e-2,1,-0.208333,-3)"
       style="opacity:0.63999999">
      <path
         sodipodi:nodetypes="cc"
         id="path9802"
         d="M 3.5000004,9.4999996 L 23.491846,9.4999996"
         style="opacity:0.11363633;color:#000000;fill:#729fcf;fill-opacity:1;fill-rule:nonzero;stroke:#000000;stroke-width:1.00000072;stroke-linecap:round;stroke-linejoin:round;marker:none;marker-start:none;marker-mid:none;marker-end:none;stroke-miterlimit:4;stroke-dasharray:none;stroke-dashoffset:0;stroke-opacity:1;visibility:visible;display:inline;overflow:visible" />
      <path
         style="opacity:0.11363633;color:#000000;fill:#729fcf;fill-opacity:1;fill-rule:nonzero;stroke:#000000;stroke-width:1.00000036;stroke-linecap:round;stroke-linejoin:round;marker:none;marker-start:none;marker-mid:none;marker-end:none;stroke-miterlimit:4;stroke-dasharray:none;stroke-dashoffset:0;stroke-opacity:1;visibility:visible;display:inline;overflow:visible"
         d="M 3.5000002,5.4999998 L 12.730828,5.4999998"
         id="path2059"
         sodipodi:nodetypes="cc" />
      <path
         style="opacity:0.11363633;color:#000000;fill:#729fcf;fill-opacity:1;fill-rule:nonzero;stroke:#000000;stroke-width:1.00000036;stroke-linecap:round;stroke-linejoin:round;marker:none;marker-start:none;marker-mid:none;marker-end:none;stroke-miterlimit:4;stroke-dasharray:none;stroke-dashoffset:0;stroke-opacity:1;visibility:visible;display:inline;overflow:visible"
         d="M 3.5000002,7.4999998 L 23.418328,7.4999998"
         id="path2061"
         sodipodi:nodetypes="cc" />
      <path
         sodipodi:nodetypes="cc"
         id="path2078"
         d="M 3.5000004,11.5 L 23.491846,11.5"
         style="opacity:0.11363633;color:#000000;fill:#729fcf;fill-opacity:1;fill-rule:nonzero;stroke:#000000;stroke-width:1.00000072;stroke-linecap:round;stroke-linejoin:round;marker:none;marker-start:none;marker-mid:none;marker-end:none;stroke-miterlimit:4;stroke-dasharray:none;stroke-dashoffset:0;stroke-opacity:1;visibility:visible;display:inline;overflow:visible" />
      <path
         sodipodi:nodetypes="cc"
         id="path2080"
         d="M 3.5000004,13.5 L 23.491846,13.5"
         style="opacity:0.11363633;color:#000000;fill:#729fcf;fill-opacity:1;fill-rule:nonzero;stroke:#000000;stroke-width:1.00000072;stroke-linecap:round;stroke-linejoin:round;marker:none;marker-start:none;marker-mid:none;marker-end:none;stroke-miterlimit:4;stroke-dasharray:none;stroke-dashoffset:0;stroke-opacity:1;visibility:visible;display:inline;overflow:visible" />
      <path
         sodipodi:nodetypes="cc"
         id="path2082"
         d="M 3.5000004,15.5 L 23.491846,15.5"
         style="opacity:0.11363633;color:#000000;fill:#729fcf;fill-opacity:1;fill-rule:nonzero;stroke:#000000;stroke-width:1.00000072;stroke-linecap:round;stroke-linejoin:round;marker:none;marker-start:none;marker-mid:none;marker-end:none;stroke-miterlimit:4;stroke-dasharray:none;stroke-dashoffset:0;stroke-opacity:1;visibility:visible;display:inline;overflow:visible" />
      <path
         sodipodi:nodetypes="cc"
         id="path2084"
         d="M 3.5000004,17.5 L 23.491846,17.5"
         style="opacity:0.11363633;color:#000000;fill:#729fcf;fill-opacity:1;fill-rule:nonzero;stroke:#000000;stroke-width:1.00000072;stroke-linecap:round;stroke-linejoin:round;marker:none;marker-start:none;marker-mid:none;marker-end:none;stroke-miterlimit:4;stroke-dasharray:none;stroke-dashoffset:0;stroke-opacity:1;visibility:visible;display:inline;overflow:visible" />
      <path
         sodipodi:nodetypes="cc"
         id="path2086"
         d="M 3.5000004,19.5 L 23.491846,19.5"
         style="opacity:0.11363633;color:#000000;fill:#729fcf;fill-opacity:1;fill-rule:nonzero;stroke:#000000;stroke-width:1.00000072;stroke-linecap:round;stroke-linejoin:round;marker:none;marker-start:none;marker-mid:none;marker-end:none;stroke-miterlimit:4;stroke-dasharray:none;stroke-dashoffset:0;stroke-opacity:1;visibility:visible;display:inline;overflow:visible" />
      <path
         sodipodi:nodetypes="cc"
         id="path2088"
         d="M 3.5000004,21.5 L 23.491846,21.5"
         style="opacity:0.11363633;color:#000000;fill:#729fcf;fill-opacity:1;fill-rule:nonzero;stroke:#000000;stroke-width:1.00000072;stroke-linecap:round;stroke-linejoin:round;marker:none;marker-start:none;marker-mid:none;marker-end:none;stroke-miterlimit:4;stroke-dasharray:none;stroke-dashoffset:0;stroke-opacity:1;visibility:visible;display:inline;overflow:visible" />
      <path
         sodipodi:nodetypes="cc"
         id="path2090"
         d="M 3.5000004,23.5 L 23.491846,23.5"
         style="opacity:0.11363633;color:#000000;fill:#729fcf;fill-opacity:1;fill-rule:nonzero;stroke:#000000;stroke-width:1.00000072;stroke-linecap:round;stroke-linejoin:round;marker:none;marker-start:none;marker-mid:none;marker-end:none;stroke-miterlimit:4;stroke-dasharray:none;stroke-dashoffset:0;stroke-opacity:1;visibility:visible;display:inline;overflow:visible" />
      <path
         sodipodi:nodetypes="cc"
         id="path2092"
         d="M 3.5000004,25.5 L 23.491846,25.5"
         style="opacity:0.11363633;color:#000000;fill:#729fcf;fill-opacity:1;fill-rule:nonzero;stroke:#000000;stroke-width:1.00000072;stroke-linecap:round;stroke-linejoin:round;marker:none;marker-start:none;marker-mid:none;marker-end:none;stroke-miterlimit:4;stroke-dasharray:none;stroke-dashoffset:0;stroke-opacity:1;visibility:visible;display:inline;overflow:visible" />
    </g>
    <g
       style="opacity:1;fill:#ffffff;fill-opacity:1;fill-rule:nonzero;stroke:none;stroke-width:0.99946535;stroke-miterlimit:4"
       id="g220"
       transform="matrix(0.693843,0,3.632836e-2,0.881175,-5.747621,-3.28384)"
       inkscape:export-filename="/home/jimmac/ximian_art/icons/nautilus/suse93/gnome-fs-directory.png"
       inkscape:export-xdpi="74.800003"
       inkscape:export-ydpi="74.800003">
      <path
         style="fill:#ffffff;fill-opacity:1"
         d="M 42.417183,8.5151772 C 42.422267,8.4180642 42.289022,8.268189 42.182066,8.2681716 L 29.150665,8.2660527 C 29.150665,8.2660527 30.062379,8.8540072 31.352477,8.8622963 L 42.405974,8.9333167 C 42.41706,8.7215889 42.408695,8.6772845 42.417183,8.5151772 z "
         id="path221"
         sodipodi:nodetypes="cscscs" />
    </g>
    <g
       id="g2106"
       inkscape:label="pattern"
       transform="translate(34.739,-13.1035)" />
    <g
       id="g3219"
       style="opacity:0.6" />
    <g
       id="g2321"
       style="opacity:0.9">
      <path
         inkscape:export-ydpi="74.800003"
         inkscape:export-xdpi="74.800003"
         inkscape:export-filename="/home/jimmac/ximian_art/icons/nautilus/suse93/gnome-fs-directory.png"
         sodipodi:nodetypes="cscccscc"
         id="path233"
         d="M 27.002433,23.499035 C 27.770577,23.469709 28.320673,22.769422 28.377054,21.95435 C 28.908752,14.268422 29.491342,7.823979 29.491342,7.823979 C 29.539796,7.659272 29.378586,7.494566 29.16892,7.494566 L 6.088085,7.494566 C 6.088085,7.494566 4.845563,22.047508 4.845563,22.047508 C 4.768637,22.701096 4.532631,23.248591 3.804821,23.500821 L 27.002433,23.499035 z "
         style="color:#000000;fill:url(#linearGradient2057);fill-opacity:1;fill-rule:nonzero;stroke:#ce5c00;stroke-width:1.00000095;stroke-linecap:butt;stroke-linejoin:round;marker:none;marker-start:none;marker-mid:none;marker-end:none;stroke-miterlimit:4;stroke-dasharray:none;stroke-dashoffset:0;stroke-opacity:1;visibility:visible;display:block" />
      <path
         style="opacity:0.8;fill:none;fill-opacity:1;fill-rule:evenodd;stroke:url(#linearGradient2054);stroke-width:1.00000072px;stroke-linecap:round;stroke-linejoin:miter;stroke-opacity:1"
         d="M 6.990772,8.5 L 28.448954,8.54109 L 27.418915,21.221801 C 27.363735,21.90111 27.123996,22.12725 26.193465,22.12725 C 24.968773,22.12725 7.426876,22.106706 5.649045,22.106706 C 5.80191,21.90332 5.867452,21.479945 5.868329,21.469809 L 6.990772,8.5 z "
         id="path304"
         sodipodi:nodetypes="ccsscsc" />
      <path
         style="opacity:0.4;fill:url(#linearGradient3203);fill-opacity:1;fill-rule:evenodd;stroke:none;stroke-width:1px;stroke-linecap:butt;stroke-linejoin:miter;stroke-opacity:1"
         d="M 6.446267,8.000686 L 5.652221,18.411658 C 5.652221,18.411658 11.298774,15.651013 18.356963,15.651013 C 25.415152,15.651013 28.944249,8.000686 28.944249,8.000686 L 6.446267,8.000686 z "
         id="path323"
         sodipodi:nodetypes="ccccc" />
    </g>
    <g
       style="display:inline"
       inkscape:label="FTP"
       id="layer6"
       transform="matrix(0.6924911,0,0,0.6924911,-1.3527473,-2.1609745)">
      <g
         transform="translate(0,-2.999902)"
         id="g1467">
        <g
           id="g2602"
           transform="matrix(0.991005,0,0.123875,1,12.04123,10.12495)">
          <path
             sodipodi:nodetypes="cccssssssssssccsssssssssscccc"
             id="path2994"
             d="M 19.03125,18.374952 L 18.03125,21.374952 L 18.03125,30.374952 C 18.03125,30.383687 18.031032,30.397521 18.03125,30.406202 C 18.035159,30.483814 18.042161,30.58427 18.0625,30.656202 C 18.091897,30.751113 18.164453,30.856949 18.21875,30.937452 C 18.228112,30.950635 18.24003,30.987252 18.25,30.999952 C 18.255133,31.006177 18.275971,31.025104 18.28125,31.031202 C 18.302937,31.055073 18.351129,31.103265 18.375,31.124952 C 18.381098,31.130231 18.400025,31.151069 18.40625,31.156202 C 18.41895,31.166172 18.455567,31.17809 18.46875,31.187452 C 18.549253,31.241749 18.655089,31.314305 18.75,31.343702 C 18.821932,31.364041 18.922388,31.371043 19,31.374952 C 19.008681,31.37517 19.022515,31.374952 19.03125,31.374952 L 29.96875,31.374952 C 29.977485,31.374952 29.991319,31.37517 30,31.374952 C 30.077612,31.371043 30.178068,31.364041 30.25,31.343702 C 30.344911,31.314305 30.450747,31.241749 30.53125,31.187452 C 30.544433,31.17809 30.58105,31.166172 30.59375,31.156202 C 30.599975,31.151069 30.618902,31.130231 30.625,31.124952 C 30.648871,31.103265 30.697063,31.055073 30.71875,31.031202 C 30.724029,31.025104 30.744867,31.006177 30.75,30.999952 C 30.75997,30.987252 30.771888,30.950635 30.78125,30.937452 C 30.835547,30.856949 30.908103,30.751113 30.9375,30.656202 C 30.957839,30.58427 30.964841,30.483814 30.96875,30.406202 C 30.968968,30.397521 30.96875,30.383687 30.96875,30.374952 L 30.96875,21.374952 L 29.96875,18.374952 L 19.03125,18.374952 z "
             style="opacity:1;color:#000000;fill:url(#linearGradient5747);fill-opacity:1;fill-rule:nonzero;stroke:#8f5902;stroke-width:1.45060074;stroke-linecap:round;stroke-linejoin:round;marker:none;marker-start:none;marker-mid:none;marker-end:none;stroke-miterlimit:4;stroke-dasharray:none;stroke-dashoffset:0;stroke-opacity:1;visibility:visible;display:inline;overflow:visible" />
          <rect
             ry="0.61394072"
             rx="0.62433439"
             y="21.374952"
             x="18.5"
             height="9.5"
             width="12"
             id="rect2590"
             style="opacity:1;color:#000000;fill:url(#linearGradient5749);fill-opacity:1;fill-rule:nonzero;stroke:none;stroke-width:1;stroke-linecap:round;stroke-linejoin:round;marker:none;marker-start:none;marker-mid:none;marker-end:none;stroke-miterlimit:4;stroke-dasharray:none;stroke-dashoffset:0;stroke-opacity:1;visibility:visible;display:inline;overflow:visible" />
          <path
             sodipodi:nodetypes="ccccccc"
             id="path2997"
             d="M 19.97288,19.645713 L 19.273987,21.547254 L 19.27453,30.10419 L 29.73832,30.10419 L 29.737776,21.547254 L 29.017621,19.645713 L 19.97288,19.645713 z "
             style="opacity:0.8;color:#000000;fill:none;fill-opacity:1;fill-rule:nonzero;stroke:url(#linearGradient5751);stroke-width:1.45060074;stroke-linecap:round;stroke-linejoin:round;marker:none;marker-start:none;marker-mid:none;marker-end:none;stroke-miterlimit:4;stroke-dasharray:none;stroke-dashoffset:0;stroke-opacity:1;visibility:visible;display:inline;overflow:visible" />
          <path
             sodipodi:nodetypes="cc"
             id="path2999"
             d="M 19.275643,21.266616 L 29.432683,21.266616"
             style="fill:none;fill-opacity:0.75;fill-rule:evenodd;stroke:#ffffff;stroke-width:1.45060074;stroke-linecap:round;stroke-linejoin:miter;stroke-miterlimit:4;stroke-dasharray:none;stroke-opacity:1;display:inline" />
        </g>
        <path
           sodipodi:nodetypes="cccssssssssssccsssssssssscccc"
           id="path3553"
           d="M 30.767153,28.45933 L 30.147773,31.45933 L 31.262648,40.45933 C 31.26373,40.468065 31.265228,40.481899 31.266519,40.49058 C 31.280007,40.568192 31.29939,40.668648 31.328457,40.74058 C 31.369347,40.835491 31.45436,40.941327 31.518141,41.02183 C 31.529052,41.035013 31.545399,41.07163 31.556852,41.08433 C 31.56271,41.090555 31.585705,41.109482 31.591692,41.11558 C 31.616141,41.139451 31.66987,41.187643 31.696212,41.20933 C 31.702909,41.214609 31.724247,41.235447 31.731052,41.24058 C 31.744873,41.25055 31.782637,41.262468 31.796861,41.27183 C 31.883366,41.326127 31.997238,41.398683 32.094937,41.42808 C 32.168741,41.448419 32.269161,41.455421 32.346559,41.45933 C 32.355189,41.459548 32.368872,41.45933 32.377528,41.45933 L 43.216645,41.45933 C 43.225302,41.45933 43.239038,41.459548 43.247614,41.45933 C 43.324044,41.455421 43.422729,41.448419 43.491494,41.42808 C 43.58191,41.398683 43.677806,41.326127 43.750859,41.27183 C 43.762764,41.262468 43.797575,41.25055 43.808926,41.24058 C 43.814459,41.235447 43.830634,41.214609 43.836024,41.20933 C 43.856993,41.187643 43.898782,41.139451 43.917317,41.11558 C 43.921793,41.109482 43.940099,41.090555 43.944415,41.08433 C 43.952722,41.07163 43.959997,41.035013 43.967642,41.02183 C 44.011478,40.941327 44.070271,40.835491 44.087646,40.74058 C 44.098892,40.668648 44.093387,40.568192 44.087646,40.49058 C 44.086787,40.481899 44.084857,40.468065 44.083775,40.45933 L 42.9689,31.45933 L 41.60627,28.45933 L 30.767153,28.45933 z "
           style="opacity:1;color:#000000;fill:none;fill-opacity:1;fill-rule:nonzero;stroke:url(#linearGradient5753);stroke-width:1.44406211;stroke-linecap:round;stroke-linejoin:round;marker:none;marker-start:none;marker-mid:none;marker-end:none;stroke-miterlimit:4;stroke-dasharray:none;stroke-dashoffset:0;stroke-opacity:1;visibility:visible;display:inline;overflow:visible" />
        <path
           sodipodi:nodetypes="cccssssssssssccsssssssssscccc"
           id="path3575"
           d="M 27.843914,28.477846 L 27.224534,31.477846 L 28.339409,40.477846 C 28.340491,40.486581 28.341989,40.500415 28.34328,40.509096 C 28.356768,40.586708 28.376151,40.687164 28.405218,40.759096 C 28.446108,40.854007 28.531121,40.959843 28.594902,41.040346 C 28.605813,41.053529 28.62216,41.090146 28.633613,41.102846 C 28.639471,41.109071 28.662466,41.127998 28.668453,41.134096 C 28.692902,41.157967 28.746631,41.206159 28.772973,41.227846 C 28.77967,41.233125 28.801008,41.253963 28.807813,41.259096 C 28.821634,41.269066 28.859398,41.280984 28.873622,41.290346 C 28.960127,41.344643 29.073999,41.417199 29.171698,41.446596 C 29.245502,41.466935 29.345922,41.473937 29.42332,41.477846 C 29.43195,41.478064 29.445633,41.477846 29.454289,41.477846 L 40.293406,41.477846 C 40.302063,41.477846 40.315799,41.478064 40.324375,41.477846 C 40.400805,41.473937 40.49949,41.466935 40.568255,41.446596 C 40.658671,41.417199 40.754567,41.344643 40.82762,41.290346 C 40.839525,41.280984 40.874336,41.269066 40.885687,41.259096 C 40.89122,41.253963 40.907395,41.233125 40.912785,41.227846 C 40.933754,41.206159 40.975543,41.157967 40.994078,41.134096 C 40.998554,41.127998 41.01686,41.109071 41.021176,41.102846 C 41.029483,41.090146 41.036758,41.053529 41.044403,41.040346 C 41.088239,40.959843 41.147032,40.854007 41.164407,40.759096 C 41.175653,40.687164 41.170148,40.586708 41.164407,40.509096 C 41.163548,40.500415 41.161618,40.486581 41.160536,40.477846 L 40.045661,31.477846 L 38.683031,28.477846 L 27.843914,28.477846 z "
           style="opacity:0.7;color:#000000;fill:none;fill-opacity:1;fill-rule:nonzero;stroke:url(#linearGradient5755);stroke-width:1.44406211;stroke-linecap:round;stroke-linejoin:round;marker:none;marker-start:none;marker-mid:none;marker-end:none;stroke-miterlimit:4;stroke-dasharray:none;stroke-dashoffset:0;stroke-opacity:1;visibility:visible;display:inline;overflow:visible" />
        <path
           sodipodi:nodetypes="cccssssssssssccsssssssssscccc"
           id="path3595"
           d="M 24.95579,28.477846 L 24.33641,31.477846 L 25.451285,40.477846 C 25.452367,40.486581 25.453865,40.500415 25.455156,40.509096 C 25.468644,40.586708 25.488027,40.687164 25.517094,40.759096 C 25.557984,40.854007 25.642997,40.959843 25.706778,41.040346 C 25.717689,41.053529 25.734036,41.090146 25.745489,41.102846 C 25.751347,41.109071 25.774342,41.127998 25.780329,41.134096 C 25.804778,41.157967 25.858507,41.206159 25.884849,41.227846 C 25.891546,41.233125 25.912884,41.253963 25.919689,41.259096 C 25.93351,41.269066 25.971274,41.280984 25.985498,41.290346 C 26.072003,41.344643 26.185875,41.417199 26.283574,41.446596 C 26.357378,41.466935 26.457798,41.473937 26.535196,41.477846 C 26.543826,41.478064 26.557509,41.477846 26.566165,41.477846 L 37.405282,41.477846 C 37.413939,41.477846 37.427675,41.478064 37.436251,41.477846 C 37.512681,41.473937 37.611366,41.466935 37.680131,41.446596 C 37.770547,41.417199 37.866443,41.344643 37.939496,41.290346 C 37.951401,41.280984 37.986212,41.269066 37.997563,41.259096 C 38.003096,41.253963 38.019271,41.233125 38.024661,41.227846 C 38.04563,41.206159 38.087419,41.157967 38.105954,41.134096 C 38.11043,41.127998 38.128736,41.109071 38.133052,41.102846 C 38.141359,41.090146 38.148634,41.053529 38.156279,41.040346 C 38.200115,40.959843 38.258908,40.854007 38.276283,40.759096 C 38.287529,40.687164 38.282024,40.586708 38.276283,40.509096 C 38.275424,40.500415 38.273494,40.486581 38.272412,40.477846 L 37.157537,31.477846 L 35.794907,28.477846 L 24.95579,28.477846 z "
           style="opacity:0.4;color:#000000;fill:none;fill-opacity:1;fill-rule:nonzero;stroke:url(#linearGradient5757);stroke-width:1.44406211;stroke-linecap:round;stroke-linejoin:round;marker:none;marker-start:none;marker-mid:none;marker-end:none;stroke-miterlimit:4;stroke-dasharray:none;stroke-dashoffset:0;stroke-opacity:1;visibility:visible;display:inline;overflow:visible" />
      </g>
    </g>
  </g>
  <g
     inkscape:groupmode="layer"
     id="layer2"
     inkscape:label="pattern" />
</svg>
