<?xml version="1.0" encoding="UTF-8" standalone="no"?>
<!-- Generator: Adobe Illustrator 11 Build 196, SVG Export Plug-In . SVG Version: 6.0.0 Build 78)  -->
<svg
   xmlns:i="http://ns.adobe.com/AdobeIllustrator/10.0/"
   xmlns:dc="http://purl.org/dc/elements/1.1/"
   xmlns:cc="http://web.resource.org/cc/"
   xmlns:rdf="http://www.w3.org/1999/02/22-rdf-syntax-ns#"
   xmlns:svg="http://www.w3.org/2000/svg"
   xmlns="http://www.w3.org/2000/svg"
   xmlns:xlink="http://www.w3.org/1999/xlink"
   xmlns:sodipodi="http://sodipodi.sourceforge.net/DTD/sodipodi-0.dtd"
   xmlns:inkscape="http://www.inkscape.org/namespaces/inkscape"
   i:viewOrigin="109.6177 487.4321"
   i:rulerOrigin="123 -123.6133"
   i:pageBounds="-123 718.8887 718.8896 123.6133"
   width="32"
   height="32"
   viewBox="0 0 360.267 93.793"
   overflow="visible"
   enable-background="new 0 0 360.267 93.793"
   xml:space="preserve"
   id="svg2"
   sodipodi:version="0.32"
   inkscape:version="0.45"
   sodipodi:docname="start-here.svg"
   sodipodi:docbase="/home/lapo/Icone/tangerine-icon-theme/32x32/places"
   version="1.0"
   inkscape:export-filename="/home/lapo/Desktop/start-here.png"
   inkscape:export-xdpi="90"
   inkscape:export-ydpi="90"
   inkscape:output_extension="org.inkscape.output.svg.inkscape"><metadata
     id="metadata41"><rdf:RDF><cc:Work
         rdf:about=""><dc:format>image/svg+xml</dc:format><dc:type
           rdf:resource="http://purl.org/dc/dcmitype/StillImage" /><dc:title>The Great Ubuntu Logo</dc:title><dc:creator><cc:Agent><dc:title>Lapo Calamandrei</dc:title></cc:Agent></dc:creator><cc:license
           rdf:resource="http://creativecommons.org/licenses/by-sa/2.0/" /><dc:contributor><cc:Agent><dc:title>Original logo greator</dc:title></cc:Agent></dc:contributor><dc:subject><rdf:Bag><rdf:li>logo</rdf:li><rdf:li>menu</rdf:li><rdf:li>ubuntu</rdf:li></rdf:Bag></dc:subject></cc:Work><cc:License
         rdf:about="http://creativecommons.org/licenses/by-sa/2.0/"><cc:permits
           rdf:resource="http://web.resource.org/cc/Reproduction" /><cc:permits
           rdf:resource="http://web.resource.org/cc/Distribution" /><cc:requires
           rdf:resource="http://web.resource.org/cc/Notice" /><cc:requires
           rdf:resource="http://web.resource.org/cc/Attribution" /><cc:permits
           rdf:resource="http://web.resource.org/cc/DerivativeWorks" /><cc:requires
           rdf:resource="http://web.resource.org/cc/ShareAlike" /></cc:License></rdf:RDF></metadata><defs
     id="defs42"><linearGradient
       inkscape:collect="always"
       id="linearGradient3385"><stop
         style="stop-color:#ffffff;stop-opacity:1;"
         offset="0"
         id="stop3387" /><stop
         style="stop-color:#ffffff;stop-opacity:0;"
         offset="1"
         id="stop3389" /></linearGradient><linearGradient
       inkscape:collect="always"
       id="linearGradient3356"><stop
         style="stop-color:#000000;stop-opacity:1;"
         offset="0"
         id="stop3358" /><stop
         style="stop-color:#000000;stop-opacity:0;"
         offset="1"
         id="stop3360" /></linearGradient><linearGradient
       id="linearGradient1334"><stop
         style="stop-color:#ffffff;stop-opacity:1;"
         offset="0"
         id="stop1336" /><stop
         id="stop1346"
         offset="0.25"
         style="stop-color:#ffffff;stop-opacity:0;" /><stop
         id="stop1342"
         offset="0.3448838"
         style="stop-color:#ffffff;stop-opacity:1;" /><stop
         style="stop-color:#ffffff;stop-opacity:0;"
         offset="0.86309522"
         id="stop1344" /><stop
         style="stop-color:#ffffff;stop-opacity:1;"
         offset="1"
         id="stop1338" /></linearGradient><linearGradient
       inkscape:collect="always"
       id="linearGradient4187"><stop
         style="stop-color:#000000;stop-opacity:1;"
         offset="0"
         id="stop4189" /><stop
         style="stop-color:#000000;stop-opacity:0;"
         offset="1"
         id="stop4191" /></linearGradient><radialGradient
       inkscape:collect="always"
       xlink:href="#linearGradient4187"
       id="radialGradient3277"
       gradientUnits="userSpaceOnUse"
       gradientTransform="matrix(8.716285e-6,-0.665592,0.957576,0,178.4903,133.0866)"
       cx="191.41389"
       cy="7.7861371"
       fx="191.41389"
       fy="7.7861371"
       r="153.39676" /><linearGradient
       inkscape:collect="always"
       xlink:href="#linearGradient1334"
       id="linearGradient3319"
       gradientUnits="userSpaceOnUse"
       gradientTransform="matrix(6.3996815,0,0,6.4564645,52.610375,-75.576302)"
       x1="3.5197463"
       y1="16.549366"
       x2="45.43124"
       y2="31.877295" /><linearGradient
       inkscape:collect="always"
       xlink:href="#linearGradient1334"
       id="linearGradient3323"
       gradientUnits="userSpaceOnUse"
       gradientTransform="matrix(6.3995804,0,0,6.4319234,52.61452,-129.20466)"
       x1="31.784821"
       y1="14.882939"
       x2="76.798752"
       y2="26.225924" /><linearGradient
       inkscape:collect="always"
       xlink:href="#linearGradient1334"
       id="linearGradient3327"
       gradientUnits="userSpaceOnUse"
       gradientTransform="matrix(6.4333395,0,0,6.4401842,-1.6083373,-102.05672)"
       x1="1.0448723"
       y1="22.382998"
       x2="45.43124"
       y2="31.877295" /><linearGradient
       inkscape:collect="always"
       xlink:href="#linearGradient1334"
       id="linearGradient3331"
       gradientUnits="userSpaceOnUse"
       gradientTransform="matrix(7.8321048,0,0,7.7379665,-6.1189782,-131.64379)"
       x1="3.5197463"
       y1="16.549366"
       x2="45.43124"
       y2="31.877295" /><linearGradient
       inkscape:collect="always"
       xlink:href="#linearGradient1334"
       id="linearGradient3335"
       gradientUnits="userSpaceOnUse"
       gradientTransform="matrix(7.8321048,0,0,7.7379665,-6.1189808,-131.64379)"
       x1="1.0448723"
       y1="22.382998"
       x2="45.43124"
       y2="31.877295" /><linearGradient
       inkscape:collect="always"
       xlink:href="#linearGradient1334"
       id="linearGradient3339"
       gradientUnits="userSpaceOnUse"
       gradientTransform="matrix(7.8321048,0,0,7.7379665,-6.1189782,-131.64379)"
       x1="31.784821"
       y1="14.882939"
       x2="76.798752"
       y2="26.225924" /><linearGradient
       inkscape:collect="always"
       xlink:href="#linearGradient3356"
       id="linearGradient3362"
       x1="249.9736"
       y1="-27.890167"
       x2="249.9736"
       y2="215.07924"
       gradientUnits="userSpaceOnUse" /><linearGradient
       inkscape:collect="always"
       xlink:href="#linearGradient3385"
       id="linearGradient3391"
       x1="23.472849"
       y1="14.625"
       x2="20.594484"
       y2="48.086678"
       gradientUnits="userSpaceOnUse" /></defs><sodipodi:namedview
     inkscape:window-height="949"
     inkscape:window-width="1280"
     inkscape:pageshadow="2"
     inkscape:pageopacity="0.0"
     borderopacity="1.0"
     bordercolor="#666666"
     pagecolor="#ffffff"
     id="base"
     gridspacingx="0.5px"
     gridspacingy="0.5px"
     showgrid="false"
     inkscape:zoom="1"
     inkscape:cx="17.10056"
     inkscape:cy="17.141276"
     inkscape:window-x="9"
     inkscape:window-y="69"
     inkscape:current-layer="layer4"
     gridempspacing="2"
     showguides="false"
     inkscape:guide-bbox="true"
     fill="#babdb6"
     stroke="#babdb6"
     showborder="false"
     inkscape:showpageshadow="false"
     width="32px"
     height="32px"><sodipodi:guide
       orientation="vertical"
       position="26.996089"
       id="guide2248" /><sodipodi:guide
       orientation="horizontal"
       position="24.005269"
       id="guide2250" /></sodipodi:namedview><g
     inkscape:groupmode="layer"
     id="layer5"
     inkscape:label="shadows"
     style="display:inline" /><g
     inkscape:groupmode="layer"
     id="layer3"
     inkscape:label="Main shape"
     style="display:inline" /><g
     inkscape:groupmode="layer"
     id="layer1"
     inkscape:label="face"
     style="display:inline" /><g
     inkscape:groupmode="layer"
     id="layer4"
     inkscape:label="inner stroke"
     style="display:inline"><path
       transform="matrix(1.0519721,0,0,0.4452866,3.284922,176.58161)"
       d="M 339.34456 5.6829548 A 153.39676 110.67352 0 1 1  32.551041,5.6829548 A 153.39676 110.67352 0 1 1  339.34456 5.6829548 z"
       sodipodi:ry="110.67352"
       sodipodi:rx="153.39676"
       sodipodi:cy="5.6829548"
       sodipodi:cx="185.9478"
       id="path4069"
       style="opacity:0.2;fill:url(#radialGradient3277);fill-opacity:1;stroke:none;stroke-width:2;stroke-miterlimit:4;stroke-dasharray:none;stroke-opacity:1;display:inline"
       sodipodi:type="arc" /><path
       sodipodi:type="inkscape:offset"
       inkscape:radius="5.4560966"
       inkscape:original="M 292.71875 -127.59375 C 277.18223 -127.59375 264.56252 -115.00526 264.5625 -99.46875 C 264.5625 -83.932238 277.18225 -71.3125 292.71875 -71.3125 C 308.25526 -71.312499 320.87502 -83.932237 320.875 -99.46875 C 320.87501 -115.00526 308.25528 -127.59375 292.71875 -127.59375 z M 194.5625 -95.9375 C 178.96735 -94.798359 164.05963 -91.019898 150.21875 -85.375 L 178.03125 -37.90625 C 185.19054 -40.149821 192.69226 -41.356996 200.53125 -41.75 C 202.0657 -41.826934 203.91506 -41.75 205.46875 -41.75 C 248.45383 -41.750003 284.11102 -11.910279 293.0625 27.90625 L 349 27.90625 C 345.03628 -1.0379952 332.24842 -27.311857 313.46875 -48.09375 C 305.75599 -44.000301 296.80018 -41.75 287.4375 -41.75 C 258.04121 -41.750003 234.25809 -64.410358 232.90625 -93.125 C 224.05916 -94.795037 214.80251 -95.9375 205.46875 -95.9375 C 203.5942 -95.9375 201.70111 -96.007323 199.84375 -95.9375 C 199.23912 -95.914773 198.6652 -95.967552 198.0625 -95.9375 C 197.49464 -95.909187 196.87887 -95.972314 196.3125 -95.9375 C 195.76384 -95.903776 195.10969 -95.97747 194.5625 -95.9375 z M 116.46875 -66.03125 C 93.976683 -48.72939 77.042118 -24.737485 67.90625 2.5625 C 82.337172 12.32246 91.8125 28.679621 91.8125 47.25 C 91.812498 65.820381 82.33717 82.177555 67.90625 91.9375 C 77.039082 119.24414 93.968834 143.24649 116.46875 160.53125 L 144.25 112.6875 C 126.3649 96.424244 115.40625 73.134273 115.40625 47.25 C 115.40625 21.375074 126.38662 -1.8837856 144.25 -18.1875 L 116.46875 -66.03125 z M 33.78125 18.75 C 18.244734 18.749999 5.6249998 31.354266 5.625 46.90625 C 5.6250002 62.458234 18.244734 75.03125 33.78125 75.03125 C 49.317766 75.031248 61.906248 62.458222 61.90625 46.90625 C 61.906251 31.354267 49.317765 18.75 33.78125 18.75 z M 293.0625 66.59375 C 284.11104 106.41029 248.45383 136.25 205.46875 136.25 C 195.95239 136.25003 186.62109 134.72186 178.03125 132.03125 L 150.21875 179.53125 C 167.2156 186.46376 185.94256 190.4375 205.46875 190.4375 C 214.80251 190.43754 224.05914 189.29503 232.90625 187.625 C 234.26908 160.11548 256.55045 137.98837 284.28125 136.25 C 285.4449 136.17708 286.25536 136.25001 287.4375 136.25 C 296.80019 136.25001 305.75598 138.5003 313.46875 142.59375 C 332.24844 121.81186 345.03628 95.53801 349 66.59375 L 293.0625 66.59375 z M 292.71875 165.09375 C 277.18223 165.09375 264.56252 177.71825 264.5625 193.25 C 264.5625 208.78177 277.18225 221.40626 292.71875 221.40625 C 308.25526 221.40626 320.87502 208.78177 320.875 193.25 C 320.87501 177.71825 308.25528 165.09374 292.71875 165.09375 z "
       style="opacity:0.3;fill:url(#linearGradient3362);fill-opacity:1.0;stroke:none;stroke-width:11.2583456;stroke-miterlimit:4;stroke-dasharray:none;stroke-opacity:1;display:inline"
       id="path3354"
       d="M 292.71875,-133.0625 C 274.23502,-133.0625 259.09377,-117.95977 259.09375,-99.46875 C 259.09375,-80.977711 274.22772,-65.84375 292.71875,-65.84375 C 311.20979,-65.843749 326.34377,-80.977704 326.34375,-99.46875 C 326.34376,-117.95978 311.20249,-133.0625 292.71875,-133.0625 z M 205.46875,-101.40625 C 203.72969,-101.40625 201.75788,-101.45518 199.625,-101.375 C 199.46672,-101.36905 198.87336,-101.42946 197.78125,-101.375 C 197.81217,-101.37654 197.17997,-101.44945 195.96875,-101.375 C 196.17096,-101.38743 195.50453,-101.47349 194.15625,-101.375 C 177.93878,-100.1904 162.47732,-96.278239 148.15625,-90.4375 C 146.68884,-89.841678 145.55269,-88.637697 145.04288,-87.138234 C 144.53306,-85.638772 144.69987,-83.991784 145.5,-82.625 L 173.3125,-35.15625 C 174.59168,-32.953552 177.22464,-31.928901 179.65625,-32.6875 C 186.31064,-34.772844 193.35769,-35.938757 200.8125,-36.3125 C 201.94629,-36.369346 203.73495,-36.28125 205.46875,-36.28125 C 245.92879,-36.281253 279.35068,-8.2667401 287.75,29.09375 C 288.30029,31.58849 290.5078,33.367485 293.0625,33.375 L 349,33.375 C 350.58068,33.375895 352.08409,32.691301 353.12115,31.498379 C 354.15821,30.305456 354.62702,28.721442 354.40625,27.15625 C 350.28872,-2.9111315 337.01857,-30.185006 317.53125,-51.75 C 315.85109,-53.61219 313.11787,-54.089214 310.90625,-52.90625 C 304.00698,-49.244549 295.92594,-47.21875 287.4375,-47.21875 C 260.84513,-47.218753 239.56057,-67.528383 238.34375,-93.375 C 238.23389,-95.906413 236.39591,-98.029144 233.90625,-98.5 C 224.82319,-100.21458 215.24773,-101.40625 205.46875,-101.40625 z M 116.15625,-71.46875 C 115.0662,-71.402401 114.02114,-71.010503 113.15625,-70.34375 C 89.781167,-52.362636 72.193255,-27.468158 62.71875,0.84375 C 61.943666,3.1678946 62.812644,5.7237101 64.84375,7.09375 C 77.849416,15.889777 86.34375,30.535562 86.34375,47.25 C 86.343748,63.96444 77.849409,78.61024 64.84375,87.40625 C 62.812644,88.77629 61.943666,91.332105 62.71875,93.65625 C 72.189861,121.97432 89.769765,146.87791 113.15625,164.84375 C 114.3971,165.79782 115.98791,166.17309 117.52434,165.87417 C 119.06077,165.57525 120.39485,164.63094 121.1875,163.28125 L 148.96875,115.4375 C 150.25865,113.20947 149.81579,110.38298 147.90625,108.65625 C 131.11867,93.390985 120.875,71.594304 120.875,47.25 C 120.875,22.918652 131.16024,1.1561721 147.9375,-14.15625 C 149.83658,-15.891079 150.26626,-18.716555 148.96875,-20.9375 L 121.1875,-68.78125 C 120.14941,-70.55211 118.20533,-71.590563 116.15625,-71.46875 z M 33.78125,13.28125 C 15.293832,13.281249 0.15624976,28.402682 0.15625,46.90625 C 0.15625024,65.409818 15.301149,80.5 33.78125,80.5 C 52.261353,80.499998 67.374998,65.402499 67.375,46.90625 C 67.375001,28.409991 52.268667,13.28125 33.78125,13.28125 z M 293.0625,61.125 C 290.5078,61.132515 288.30029,62.91151 287.75,65.40625 C 279.3507,102.76675 245.92879,130.78125 205.46875,130.78125 C 196.53651,130.78128 187.73286,129.34235 179.65625,126.8125 C 177.22464,126.0539 174.59168,127.07855 173.3125,129.28125 L 145.5,176.78125 C 144.69987,178.14803 144.53306,179.79502 145.04288,181.29448 C 145.55269,182.79395 146.68884,183.99793 148.15625,184.59375 C 165.77566,191.78018 185.20232,195.90625 205.46875,195.90625 C 215.24777,195.90629 224.8232,194.71457 233.90625,193 C 236.385,192.53191 238.2198,190.42576 238.34375,187.90625 C 239.56832,163.18762 259.59741,143.25641 284.625,141.6875 C 285.40419,141.63867 286.03094,141.71876 287.4375,141.71875 C 295.92596,141.71876 304.00697,143.74455 310.90625,147.40625 C 313.11787,148.58921 315.85109,148.11219 317.53125,146.25 C 337.0186,124.68501 350.28872,97.411144 354.40625,67.34375 C 354.62702,65.778558 354.15821,64.194544 353.12115,63.001621 C 352.08409,61.808699 350.58068,61.124105 349,61.125 L 293.0625,61.125 z M 292.71875,159.625 C 274.22659,159.625 259.09377,174.76283 259.09375,193.25 C 259.09375,211.7372 274.22661,226.87501 292.71875,226.875 C 311.2109,226.87501 326.34377,211.73721 326.34375,193.25 C 326.34376,174.76282 311.21092,159.62499 292.71875,159.625 z "
       transform="translate(0,11.258344)" /><path
       sodipodi:type="arc"
       style="fill:#ff6309;fill-opacity:1;stroke:#cc4a00;stroke-width:13.58006382;stroke-miterlimit:4;stroke-dasharray:none;stroke-opacity:1;display:inline"
       id="path2313"
       sodipodi:cx="41.351189"
       sodipodi:cy="46.856956"
       sodipodi:rx="33.967049"
       sodipodi:ry="33.967049"
       d="M 75.318237 46.856956 A 33.967049 33.967049 0 1 1  7.38414,46.856956 A 33.967049 33.967049 0 1 1  75.318237 46.856956 z"
       transform="matrix(0.8286225,0,0,0.8294472,-0.4894922,8.0591429)" /><path
       style="fill:#ff6309;fill-opacity:1;stroke:#cc4a00;stroke-width:11.2583437;stroke-linejoin:round;stroke-miterlimit:4;stroke-dasharray:none;stroke-opacity:1;display:inline"
       d="M 194.5787,-95.855694 C 178.98355,-94.71655 164.11923,-90.860888 150.27835,-85.215991 L 178.18023,-37.82095 C 185.3395,-40.064518 192.85854,-41.296928 200.69753,-41.689932 C 202.23197,-41.766863 203.79415,-41.689932 205.34783,-41.689932 C 248.33291,-41.689932 284.26278,-11.86477 293.21426,27.951761 L 349.018,27.951761 C 345.05428,-0.99248716 332.30845,-27.195136 313.52878,-47.977029 C 305.81602,-43.883584 296.94762,-41.689932 287.58493,-41.689932 C 258.18864,-41.689932 234.11203,-64.481127 232.7602,-93.195768 C 223.91309,-94.865805 214.68159,-95.855694 205.34783,-95.855694 C 203.47328,-95.855691 201.57588,-95.925517 199.71851,-95.855694 C 199.11389,-95.832964 198.60794,-95.885746 198.00524,-95.855694 C 197.43738,-95.827378 196.85833,-95.890508 196.29197,-95.855694 C 195.7433,-95.821967 195.12589,-95.895664 194.5787,-95.855694 z "
       id="path2338" /><path
       style="fill:#ffb515;fill-opacity:1;stroke:#d89400;stroke-width:11.2583437;stroke-linejoin:round;stroke-miterlimit:4;stroke-dasharray:none;stroke-opacity:1;display:inline"
       d="M 116.50241,-65.871076 C 94.010347,-48.569216 76.932373,-24.738424 67.796505,2.5615606 C 82.227424,12.321519 91.782325,28.726294 91.782325,47.296676 C 91.782325,65.867052 82.227424,82.271842 67.796505,92.031792 C 76.929334,119.33842 94.002499,143.17968 116.50241,160.46443 L 144.40428,112.82757 C 126.51917,96.564337 115.27864,73.180946 115.27864,47.296676 C 115.27864,21.421746 126.5409,-1.9305066 144.40428,-18.234223 L 116.50241,-65.871076 z "
       id="path2241" /><path
       sodipodi:type="arc"
       style="fill:#ffb515;fill-opacity:1;stroke:#d89400;stroke-width:13.58889961;stroke-miterlimit:4;stroke-dasharray:none;stroke-opacity:1;display:inline"
       id="path2317"
       sodipodi:cx="41.351189"
       sodipodi:cy="46.856956"
       sodipodi:rx="33.967049"
       sodipodi:ry="33.967049"
       d="M 75.318237 46.856956 A 33.967049 33.967049 0 1 1  7.38414,46.856956 A 33.967049 33.967049 0 1 1  75.318237 46.856956 z"
       transform="matrix(0.8286225,0,0,0.8283689,258.45241,154.43151)" /><path
       sodipodi:type="arc"
       style="fill:#c90016;fill-opacity:1;stroke:#8c000f;stroke-width:13.58681965;stroke-miterlimit:4;stroke-dasharray:none;stroke-opacity:1;display:inline"
       id="path2315"
       sodipodi:cx="41.351189"
       sodipodi:cy="46.856956"
       sodipodi:rx="33.967049"
       sodipodi:ry="33.967049"
       d="M 75.318237 46.856956 A 33.967049 33.967049 0 1 1  7.38414,46.856956 A 33.967049 33.967049 0 1 1  75.318237 46.856956 z"
       transform="matrix(0.8286225,0,0,0.8286224,258.45241,-138.28869)" /><path
       style="fill:#c90016;fill-opacity:1;stroke:#8c000f;stroke-width:11.2583437;stroke-linejoin:round;stroke-miterlimit:4;stroke-dasharray:none;stroke-opacity:1;display:inline"
       d="M 293.21426,66.641591 C 284.2628,106.45812 248.33291,136.28329 205.34783,136.28329 C 195.83146,136.28331 186.77007,134.8631 178.18023,132.17249 L 150.27835,179.56754 C 167.27521,186.50006 185.82164,190.44904 205.34783,190.44904 C 214.68159,190.44906 223.91309,189.45916 232.7602,187.78913 C 234.12302,160.2796 256.42758,138.02166 284.15838,136.28329 C 285.32203,136.21036 286.40279,136.2833 287.58493,136.28329 C 296.94763,136.2833 305.81601,138.47693 313.52878,142.57038 C 332.30847,121.78849 345.05428,95.585848 349.018,66.641591 L 293.21426,66.641591 z "
       id="path2334" /><path
       sodipodi:type="inkscape:offset"
       inkscape:radius="-1.5447201"
       inkscape:original="M 115.53125 -59.8125 C 96.072816 -43.814965 81.012958 -22.733382 72.4375 1.34375 C 86.468934 11.950413 95.6875 28.505539 95.6875 47.28125 C 95.687503 66.056962 86.468934 82.643345 72.4375 93.25 C 81.008853 117.33377 96.070379 138.42195 115.53125 154.40625 L 139.5 113.3125 C 122.19189 96.466321 111.375 73.136728 111.375 47.28125 C 111.375 21.424155 122.2068 -1.8427399 139.5 -18.71875 L 115.53125 -59.8125 z "
       style="opacity:0.51764706;fill:url(#linearGradient3331);fill-opacity:1;stroke:none;stroke-width:11.2583437;stroke-miterlimit:4;stroke-dasharray:none;stroke-opacity:1;display:inline"
       id="path3329"
       d="M 115.125,-57.40625 C 96.824285,-41.952934 82.604158,-21.909592 74.28125,0.90625 C 88.135322,11.805926 97.21875,28.427623 97.21875,47.28125 C 97.218753,66.134878 88.136362,82.78572 74.28125,93.6875 C 82.600371,116.50955 96.822563,136.55882 115.125,152 L 137.59375,113.5 C 120.52044,96.45137 109.84375,73.125212 109.84375,47.28125 C 109.84375,21.420353 120.51995,-1.8621454 137.59375,-18.9375 L 115.125,-57.40625 z " /><path
       style="opacity:0.51764706;fill:url(#linearGradient3327);fill-opacity:1;stroke:none;stroke-width:11.2583437;stroke-linejoin:miter;stroke-miterlimit:4;stroke-dasharray:none;stroke-opacity:1;display:inline"
       d="M 31.161488,24.331898 C 19.93219,25.599964 11.258344,35.253595 11.258344,46.872543 C 11.258344,59.350263 21.310575,69.413181 33.775033,69.413188 C 46.239489,69.413188 56.291717,59.350263 56.291719,46.872543 C 56.291718,34.394822 46.239486,24.331898 33.775033,24.331898 C 32.948961,24.331898 32.285527,24.307509 31.965656,24.331898 C 31.693343,24.352662 31.430991,24.301462 31.161488,24.331898 z "
       id="path1330"
       sodipodi:nodetypes="csssssc" /><path
       sodipodi:type="inkscape:offset"
       inkscape:radius="-2.1109395"
       inkscape:original="M 295.90625 70.5 C 285.3558 110.38026 248.95868 140.15624 205.34375 140.15625 C 196.62689 140.15628 188.36856 138.46883 180.375 136.28125 L 156.15625 177.40625 C 171.52247 183.11935 187.97448 186.59376 205.34375 186.59375 C 213.56677 186.59377 221.69466 185.52295 229.59375 184.15625 C 232.70872 156.34201 255.40024 134.19322 283.90625 132.40625 C 285.38742 132.31343 286.57464 132.40626 287.59375 132.40625 C 296.25577 132.40625 304.34178 134.87329 311.8125 138.21875 C 328.35022 119.36386 339.48001 96.134475 343.875 70.5 L 295.90625 70.5 z "
       style="opacity:0.33333333;fill:url(#linearGradient3339);fill-opacity:1;stroke:none;stroke-width:11.2583437;stroke-miterlimit:4;stroke-dasharray:none;stroke-opacity:1;display:inline"
       id="path3337"
       d="M 297.4375,72.625 C 286.10123,112.59987 249.32877,142.28124 205.34375,142.28125 C 196.93154,142.28128 189.01624,140.6959 181.40625,138.6875 L 159.28125,176.21875 C 173.76898,181.34835 189.13396,184.46876 205.34375,184.46875 C 212.9174,184.46877 220.43871,183.49226 227.84375,182.25 C 231.78748,154.23363 254.84072,132.12671 283.78125,130.3125 C 285.42038,130.20978 286.70285,130.28126 287.59375,130.28125 C 296.06525,130.28125 303.92769,132.56952 311.15625,135.65625 C 326.36903,117.91745 336.76765,96.390451 341.28125,72.625 L 297.4375,72.625 z " /><path
       style="opacity:0.51764706;fill:url(#linearGradient3319);fill-opacity:1;stroke:none;stroke-width:11.2583437;stroke-miterlimit:4;stroke-dasharray:none;stroke-opacity:1;display:inline"
       d="M 289.99856,170.57642 C 278.828,171.84767 270.19954,181.5257 270.19954,193.17403 C 270.19954,205.68329 280.19921,215.77166 292.59843,215.77166 C 304.9977,215.77166 314.9973,205.68328 314.99731,193.17403 C 314.9973,180.66476 304.99768,170.57642 292.59843,170.57642 C 291.77672,170.5764 291.11671,170.55197 290.79852,170.57642 C 290.52763,170.59723 290.26666,170.5459 289.99856,170.57642 z "
       id="path3317"
       sodipodi:nodetypes="csssssc" /><path
       style="opacity:0.33333333;fill:url(#linearGradient3323);fill-opacity:1;stroke:none;stroke-width:11.2583437;stroke-miterlimit:4;stroke-dasharray:none;stroke-opacity:1;display:inline"
       d="M 289.99896,-121.96874 C 278.83087,-120.70276 270.20025,-111.06107 270.20025,-99.457012 C 270.20025,-86.995303 280.19976,-76.945276 292.59878,-76.945281 C 304.99784,-76.945281 314.99732,-86.995302 314.99731,-99.457012 C 314.99731,-111.91873 304.99785,-121.96874 292.59878,-121.96874 C 291.98248,-121.96874 291.35725,-121.97217 290.99889,-121.96874 C 290.94878,-121.96709 290.83868,-121.97179 290.7989,-121.96874 C 290.52802,-121.94801 290.26698,-121.99913 289.99896,-121.96874 z "
       id="path3321"
       sodipodi:nodetypes="cssssssc" /><path
       sodipodi:type="inkscape:offset"
       inkscape:radius="-1.407293"
       inkscape:original="M 192.125 -92 C 179.50786 -90.808337 167.41923 -87.619329 155.90625 -83.28125 L 180.125 -42.1875 C 186.71206 -43.980703 193.40212 -45.209788 200.4375 -45.5625 C 202.23829 -45.652786 203.92091 -45.5625 205.34375 -45.5625 C 249.05692 -45.562499 285.70024 -15.923253 296.15625 24.09375 L 344.375 24.09375 C 340.04446 -1.3424713 328.86447 -24.365906 312.5625 -43.15625 C 304.97389 -39.676 296.43348 -37.8125 287.59375 -37.8125 C 257.25941 -37.812501 232.13026 -60.600561 229.09375 -89.8125 C 221.33425 -91.131903 213.41104 -92.000001 205.34375 -92 C 203.37076 -92 201.62575 -92.062291 199.96875 -92 C 199.16572 -91.969813 198.53057 -92.000118 198.25 -92 C 197.25566 -91.95042 196.63968 -92.006665 196.53125 -92 C 195.8542 -91.958384 195.33819 -91.986421 195.0625 -92 C 194.98918 -92.005279 194.80704 -91.999602 194.8125 -92 C 194.26592 -91.960081 193.82636 -91.991593 193.59375 -92 C 193.55497 -92.003153 193.36328 -91.996586 193.34375 -92 C 192.93571 -91.965676 192.532 -92.03844 192.125 -92 z "
       style="opacity:0.51764706;fill:url(#linearGradient3335);fill-opacity:1;stroke:none;stroke-width:11.2583437;stroke-linejoin:miter;stroke-miterlimit:4;stroke-dasharray:none;stroke-opacity:1;display:inline"
       id="path3333"
       d="M 192.25,-90.59375 C 180.35805,-89.470579 168.94281,-86.53359 158,-82.53125 L 180.84375,-43.78125 C 187.16057,-45.438495 193.60757,-46.629472 200.375,-46.96875 C 202.26644,-47.063581 203.98044,-46.96875 205.34375,-46.96875 C 249.30195,-46.968749 286.23265,-17.398823 297.21875,22.6875 L 342.65625,22.6875 C 338.23224,-1.4976757 327.56176,-23.419524 312.125,-41.46875 C 304.60257,-38.191927 296.24249,-36.40625 287.59375,-36.40625 C 256.93766,-36.406251 231.46588,-59.164061 227.84375,-88.5625 C 220.4584,-89.778528 212.96877,-90.593751 205.34375,-90.59375 C 203.34114,-90.59375 201.61599,-90.653325 200.03125,-90.59375 C 199.19545,-90.562331 198.52121,-90.591789 198.3125,-90.59375 C 198.30491,-90.593821 198.25626,-90.593753 198.25,-90.59375 C 197.74735,-90.570829 197.3334,-90.555221 197.03125,-90.5625 C 196.87243,-90.566326 196.74372,-90.590232 196.65625,-90.59375 C 196.56878,-90.597268 196.44969,-90.582974 196.625,-90.59375 C 195.86561,-90.547073 195.2668,-90.580609 195,-90.59375 C 194.98958,-90.593634 194.97917,-90.593634 194.96875,-90.59375 C 195.05138,-90.5878 194.97868,-90.594291 194.9375,-90.59375 C 194.92721,-90.593615 194.91574,-90.593929 194.90625,-90.59375 C 194.80206,-90.586141 194.78516,-90.597451 194.6875,-90.59375 C 194.17128,-90.574186 193.67396,-90.588592 193.53125,-90.59375 C 193.51042,-90.593287 193.48958,-90.593287 193.46875,-90.59375 C 193.402,-90.588135 193.40521,-90.596954 193.34375,-90.59375 C 192.80598,-90.565712 192.38888,-90.606867 192.25,-90.59375 z "
       transform="translate(0,4.2095e-6)" /><path
       sodipodi:type="inkscape:offset"
       inkscape:radius="-0.97564131"
       inkscape:original="M 10.34375 5.96875 C 8.3459372 7.5055535 6.8427253 9.6376331 6.03125 12.0625 C 7.3130478 12.929409 8.15625 14.381773 8.15625 16.03125 C 8.1562497 17.680727 7.3130477 19.133092 6.03125 20 C 6.8424555 22.425458 8.3452401 24.558466 10.34375 26.09375 L 12.8125 21.84375 C 11.223891 20.3992 10.25 18.330369 10.25 16.03125 C 10.25 13.732961 11.225821 11.666895 12.8125 10.21875 L 10.34375 5.96875 z M 26 26.5 C 24.62 26.5 23.500001 27.620423 23.5 29 C 23.5 30.379578 24.620001 31.500001 26 31.5 C 27.38 31.5 28.500001 30.379579 28.5 29 C 28.5 27.620422 27.380001 26.499999 26 26.5 z "
       style="fill:none;fill-opacity:1;stroke:#ffffff;stroke-width:1;stroke-linejoin:miter;stroke-miterlimit:4;stroke-dasharray:none;stroke-opacity:1;display:inline;opacity:0.7"
       id="path3369"
       d="M 10.15625,7.5625 C 8.8598244,8.7815366 7.8320719,10.245338 7.1875,11.9375 C 8.3088652,12.99082 9.125,14.382351 9.125,16.03125 C 9.1249997,17.680149 8.3088654,19.07168 7.1875,20.125 C 7.8318946,21.817668 8.859881,23.281813 10.15625,24.5 L 11.65625,21.875 C 10.230422,20.300856 9.28125,18.301926 9.28125,16.03125 C 9.28125,13.760736 10.23266,11.762657 11.65625,10.1875 L 10.15625,7.5625 z M 26,27.46875 C 25.148083,27.46875 24.468751,28.148467 24.46875,29 C 24.46875,29.851533 25.148084,30.531251 26,30.53125 C 26.851918,30.53125 27.531251,29.851534 27.53125,29 C 27.53125,28.148466 26.851918,27.468749 26,27.46875 z "
       transform="matrix(11.258344,0,0,11.258344,0,-133.237)" /><path
       sodipodi:type="inkscape:offset"
       inkscape:radius="-0.9069342"
       inkscape:original="M 17.28125 3.3125 C 15.896042 3.4136822 14.573139 3.7486032 13.34375 4.25 L 15.8125 8.46875 C 16.448408 8.2694693 17.116217 8.1599078 17.8125 8.125 C 17.948794 8.1181665 18.111997 8.125 18.25 8.125 C 22.068064 8.1249998 25.236153 10.775876 26.03125 14.3125 L 31 14.3125 C 30.647931 11.741585 29.511817 9.4084103 27.84375 7.5625 C 27.15868 7.9260923 26.362872 8.125 25.53125 8.125 C 22.920184 8.1249998 20.807574 6.1130209 20.6875 3.5625 C 19.901674 3.4141623 19.079053 3.3125 18.25 3.3125 C 18.083497 3.3125002 17.914977 3.3062981 17.75 3.3125 C 17.696296 3.3145189 17.647284 3.3098307 17.59375 3.3125 C 17.543311 3.3150151 17.487806 3.3094077 17.4375 3.3125 C 17.388766 3.3154957 17.329853 3.3089497 17.28125 3.3125 z M 3 13.5 C 1.6199999 13.5 0.49999998 14.618626 0.5 16 C 0.5 17.381374 1.6199999 18.5 3 18.5 C 4.3800001 18.5 5.4999998 17.381373 5.5 16 C 5.5 14.618626 4.38 13.5 3 13.5 z "
       style="fill:none;fill-opacity:1;stroke:#ffffff;stroke-width:1.00000012;stroke-miterlimit:4;stroke-dasharray:none;stroke-opacity:1;display:inline;opacity:0.5"
       id="path3376"
       d="M 17.34375,4.21875 C 16.43394,4.2852069 15.597098,4.5798489 14.75,4.84375 L 16.28125,7.46875 C 16.77139,7.3634293 17.273183,7.2442217 17.78125,7.21875 C 17.983908,7.2085892 18.141936,7.21875 18.25,7.21875 C 22.212674,7.2187498 25.481062,9.8458867 26.625,13.40625 L 29.78125,13.40625 C 29.359239,11.611877 28.585602,9.9427934 27.4375,8.5625 C 26.822192,8.7769007 26.209069,9.03125 25.53125,9.03125 C 22.749739,9.0312498 20.527996,7.0191062 20,4.40625 C 19.421255,4.3170871 18.828957,4.21875 18.25,4.21875 C 18.060975,4.2187502 17.900377,4.2142717 17.78125,4.21875 C 17.654176,4.2235271 17.598283,4.2200822 17.625,4.21875 C 17.47454,4.2262526 17.442516,4.2222836 17.5,4.21875 C 17.325835,4.229456 17.258459,4.2249802 17.34375,4.21875 z M 3,14.40625 C 2.1101062,14.40625 1.40625,15.108846 1.40625,16 C 1.40625,16.891154 2.1101062,17.59375 3,17.59375 C 3.8898933,17.59375 4.5937499,16.891153 4.59375,16 C 4.59375,15.108846 3.8898936,14.40625 3,14.40625 z "
       transform="matrix(11.258344,0,0,11.258344,0,-133.237)" /><path
       sodipodi:type="inkscape:offset"
       inkscape:radius="-1.00805"
       inkscape:original="M 26 0.5 C 24.62 0.5 23.500001 1.6200001 23.5 3 C 23.5 4.3799999 24.620001 5.5 26 5.5 C 27.38 5.5 28.500001 4.3799999 28.5 3 C 28.5 1.6200001 27.380001 0.49999998 26 0.5 z M 26.03125 17.75 C 25.236154 21.286624 22.068064 23.9375 18.25 23.9375 C 17.404728 23.937502 16.575475 23.801488 15.8125 23.5625 L 13.34375 27.78125 C 14.853462 28.397016 16.515625 28.75 18.25 28.75 C 19.079053 28.750002 19.901673 28.648337 20.6875 28.5 C 20.80855 26.056522 22.786867 24.091907 25.25 23.9375 C 25.353359 23.931023 25.426249 23.937501 25.53125 23.9375 C 26.362874 23.937501 27.158679 24.136407 27.84375 24.5 C 29.511819 22.654089 30.64793 20.320916 31 17.75 L 26.03125 17.75 z "
       style="fill:none;fill-opacity:1.0;stroke:url(#linearGradient3391);stroke-width:1;stroke-miterlimit:4;stroke-dasharray:none;stroke-opacity:1;display:inline;opacity:0.40229885"
       id="path3383"
       d="M 26,1.5 C 25.165418,1.5 24.500001,2.1654176 24.5,3 C 24.5,3.834581 25.16542,4.5 26,4.5 C 26.834582,4.5 27.500001,3.8345806 27.5,3 C 27.5,2.165418 26.834583,1.5 26,1.5 z M 26.6875,18.75 C 25.512106,22.320439 22.234237,24.9375 18.25,24.9375 C 17.58913,24.937502 16.965163,24.790671 16.34375,24.65625 L 14.90625,27.09375 C 15.984606,27.414734 17.071928,27.75 18.25,27.75 C 18.799737,27.750001 19.353973,27.644845 19.90625,27.5625 C 20.447694,25.045202 22.539865,23.103473 25.1875,22.9375 C 25.362256,22.926549 25.467714,22.937501 25.53125,22.9375 C 26.190186,22.937501 26.772399,23.206298 27.375,23.40625 C 28.487473,22.066536 29.230957,20.484053 29.65625,18.75 L 26.6875,18.75 z "
       transform="matrix(11.258344,0,0,11.258344,0,-133.237)" /></g></svg>