<?xml version="1.0" encoding="UTF-8" standalone="no"?>
<!-- Created with Inkscape (http://www.inkscape.org/) -->
<svg
   xmlns:dc="http://purl.org/dc/elements/1.1/"
   xmlns:cc="http://web.resource.org/cc/"
   xmlns:rdf="http://www.w3.org/1999/02/22-rdf-syntax-ns#"
   xmlns:svg="http://www.w3.org/2000/svg"
   xmlns="http://www.w3.org/2000/svg"
   xmlns:xlink="http://www.w3.org/1999/xlink"
   xmlns:sodipodi="http://sodipodi.sourceforge.net/DTD/sodipodi-0.dtd"
   xmlns:inkscape="http://www.inkscape.org/namespaces/inkscape"
   width="32"
   height="32"
   id="svg2"
   sodipodi:version="0.32"
   inkscape:version="0.45"
   version="1.0"
   sodipodi:docbase="/home/lapo/Icone/tangerine-icon-theme/32x32/apps"
   sodipodi:docname="preferences-desktop-wallpaper.svg"
   inkscape:export-filename="/home/lapo/Desktop/Grafica/Icone/Ubuntu/computer.png"
   inkscape:export-xdpi="90"
   inkscape:export-ydpi="90"
   inkscape:output_extension="org.inkscape.output.svg.inkscape">
  <defs
     id="defs4">
    <linearGradient
       id="linearGradient2249">
      <stop
         style="stop-color:#555753;stop-opacity:1;"
         offset="0"
         id="stop2251" />
      <stop
         style="stop-color:#2e3436;stop-opacity:1"
         offset="1"
         id="stop2253" />
    </linearGradient>
    <linearGradient
       inkscape:collect="always"
       id="linearGradient3342">
      <stop
         style="stop-color:#000000;stop-opacity:1;"
         offset="0"
         id="stop3344" />
      <stop
         style="stop-color:#000000;stop-opacity:0;"
         offset="1"
         id="stop3346" />
    </linearGradient>
    <linearGradient
       id="linearGradient2829"
       inkscape:collect="always">
      <stop
         id="stop2831"
         offset="0"
         style="stop-color:#babdb6" />
      <stop
         id="stop2833"
         offset="1"
         style="stop-color:#eeeeec" />
    </linearGradient>
    <linearGradient
       inkscape:collect="always"
       id="linearGradient2795">
      <stop
         style="stop-color:#000000;stop-opacity:1;"
         offset="0"
         id="stop2797" />
      <stop
         style="stop-color:#000000;stop-opacity:0;"
         offset="1"
         id="stop2799" />
    </linearGradient>
    <linearGradient
       inkscape:collect="always"
       id="linearGradient2295">
      <stop
         style="stop-color:#ffffff;stop-opacity:1;"
         offset="0"
         id="stop2297" />
      <stop
         style="stop-color:#ffffff;stop-opacity:0;"
         offset="1"
         id="stop2299" />
    </linearGradient>
    <linearGradient
       inkscape:collect="always"
       id="linearGradient4218">
      <stop
         style="stop-color:#ffffff;stop-opacity:1;"
         offset="0"
         id="stop4220" />
      <stop
         style="stop-color:#ffffff;stop-opacity:0;"
         offset="1"
         id="stop4222" />
    </linearGradient>
    <linearGradient
       inkscape:collect="always"
       id="linearGradient4087">
      <stop
         style="stop-color:#555753"
         offset="0"
         id="stop4089" />
      <stop
         style="stop-color:#2e3436;stop-opacity:0;"
         offset="1"
         id="stop4091" />
    </linearGradient>
    <linearGradient
       inkscape:collect="always"
       id="linearGradient4079">
      <stop
         style="stop-color:#555753"
         offset="0"
         id="stop4081" />
      <stop
         style="stop-color:#555753;stop-opacity:0;"
         offset="1"
         id="stop4083" />
    </linearGradient>
    <linearGradient
       inkscape:collect="always"
       id="linearGradient4065">
      <stop
         style="stop-color:#d3d7cf"
         offset="0"
         id="stop4067" />
      <stop
         style="stop-color:#555753"
         offset="1"
         id="stop4069" />
    </linearGradient>
    <linearGradient
       id="linearGradient4039">
      <stop
         style="stop-color:#888a85;stop-opacity:1"
         offset="0"
         id="stop4041" />
      <stop
         style="stop-color:#babdb6"
         offset="1"
         id="stop4043" />
    </linearGradient>
    <linearGradient
       id="linearGradient2283">
      <stop
         style="stop-color:#555753"
         offset="0"
         id="stop2285" />
      <stop
         style="stop-color:#2e3436"
         offset="1"
         id="stop2287" />
    </linearGradient>
    <linearGradient
       id="linearGradient2275">
      <stop
         style="stop-color:#555753"
         offset="0"
         id="stop2277" />
      <stop
         style="stop-color:#2e3436"
         offset="1"
         id="stop2279" />
    </linearGradient>
    <linearGradient
       inkscape:collect="always"
       id="linearGradient2207">
      <stop
         style="stop-color:#ffffff;stop-opacity:1;"
         offset="0"
         id="stop2209" />
      <stop
         style="stop-color:#ffffff;stop-opacity:0;"
         offset="1"
         id="stop2211" />
    </linearGradient>
    <radialGradient
       inkscape:collect="always"
       xlink:href="#linearGradient2795"
       id="radialGradient3645"
       gradientUnits="userSpaceOnUse"
       gradientTransform="matrix(1,-2.301335e-6,-6.522924e-8,0.297873,3.664127e-2,28.97356)"
       cx="23.96336"
       cy="40.374615"
       fx="23.96336"
       fy="40.374615"
       r="23.5" />
    <linearGradient
       inkscape:collect="always"
       xlink:href="#linearGradient2207"
       id="linearGradient3723"
       gradientUnits="userSpaceOnUse"
       gradientTransform="matrix(0.6744044,0,0,0.6401933,-128.32067,-13.07573)"
       x1="192.61819"
       y1="44.316147"
       x2="192.61819"
       y2="69.140022" />
    <linearGradient
       inkscape:collect="always"
       xlink:href="#linearGradient2829"
       id="linearGradient3726"
       gradientUnits="userSpaceOnUse"
       gradientTransform="matrix(0.6907119,0,0,0.6654109,-131.81395,-14.092464)"
       x1="198.25261"
       y1="29.854406"
       x2="218.1942"
       y2="54.870758" />
    <linearGradient
       inkscape:collect="always"
       xlink:href="#linearGradient4218"
       id="linearGradient3729"
       gradientUnits="userSpaceOnUse"
       gradientTransform="matrix(0.6940353,0,0,0.6480022,-132.53479,-13.852222)"
       x1="207.71683"
       y1="62"
       x2="207.71683"
       y2="56.877113" />
    <linearGradient
       inkscape:collect="always"
       xlink:href="#linearGradient2283"
       id="linearGradient3732"
       gradientUnits="userSpaceOnUse"
       gradientTransform="matrix(0.7360454,0,0,0.763295,-141.51139,-20.365548)"
       x1="217.75"
       y1="60.957611"
       x2="217.75"
       y2="57.287102" />
    <linearGradient
       inkscape:collect="always"
       xlink:href="#linearGradient2275"
       id="linearGradient3734"
       gradientUnits="userSpaceOnUse"
       gradientTransform="matrix(0.7360454,0,0,0.763295,-141.51139,-20.365548)"
       x1="219.625"
       y1="61.282185"
       x2="219.625"
       y2="57.31184" />
    <linearGradient
       inkscape:collect="always"
       xlink:href="#linearGradient4079"
       id="linearGradient3740"
       gradientUnits="userSpaceOnUse"
       gradientTransform="matrix(0.737593,0,0,0.5493118,-141.82929,-7.923004)"
       x1="206.4698"
       y1="63.914768"
       x2="206.50735"
       y2="64.954399" />
    <linearGradient
       inkscape:collect="always"
       xlink:href="#linearGradient4087"
       id="linearGradient3742"
       gradientUnits="userSpaceOnUse"
       gradientTransform="matrix(0.737593,0,0,0.5493118,-141.82929,-7.923004)"
       x1="221.39929"
       y1="64.193214"
       x2="221.39929"
       y2="64.947449" />
    <radialGradient
       inkscape:collect="always"
       xlink:href="#linearGradient4065"
       id="radialGradient3745"
       gradientUnits="userSpaceOnUse"
       gradientTransform="matrix(0.5564529,-9.8336723e-6,0,7.4461012e-2,-103.10557,22.890178)"
       cx="210.76491"
       cy="61.016609"
       fx="210.76491"
       fy="61.016609"
       r="21" />
    <radialGradient
       inkscape:collect="always"
       xlink:href="#linearGradient3342"
       id="radialGradient3348"
       cx="16"
       cy="26.28125"
       fx="16"
       fy="26.28125"
       r="15"
       gradientTransform="matrix(1,0,0,0.2854167,0,18.780143)"
       gradientUnits="userSpaceOnUse" />
    <linearGradient
       inkscape:collect="always"
       xlink:href="#linearGradient2249"
       id="linearGradient2255"
       x1="7.6672192"
       y1="26.651878"
       x2="7.6672192"
       y2="29.001661"
       gradientUnits="userSpaceOnUse" />
    <radialGradient
       inkscape:collect="always"
       xlink:href="#linearGradient2295"
       id="radialGradient4352"
       gradientUnits="userSpaceOnUse"
       gradientTransform="matrix(1.6023149,0.3930734,-0.1094961,0.4352842,-310.67455,-79.984932)"
       cx="195.67754"
       cy="17.121473"
       fx="195.67754"
       fy="17.121473"
       r="20" />
    <linearGradient
       inkscape:collect="always"
       xlink:href="#linearGradient4039"
       id="linearGradient4355"
       gradientUnits="userSpaceOnUse"
       x1="21.294195"
       y1="6.3820486"
       x2="21.294195"
       y2="28.420362"
       gradientTransform="matrix(0.6922034,0,0,0.6497509,-0.6149145,3.2299195)" />
    <linearGradient
       id="linearGradient2454"
       inkscape:collect="always">
      <stop
         id="stop2456"
         offset="0"
         style="stop-color:#000000;stop-opacity:1;" />
      <stop
         id="stop2458"
         offset="1"
         style="stop-color:#000000;stop-opacity:0;" />
    </linearGradient>
    <linearGradient
       id="linearGradient4872">
      <stop
         id="stop4874"
         offset="0"
         style="stop-color:#e5d28f;stop-opacity:1;" />
      <stop
         id="stop4876"
         offset="1"
         style="stop-color:#ab8f2a;stop-opacity:1;" />
    </linearGradient>
    <linearGradient
       id="linearGradient4882">
      <stop
         id="stop4884"
         offset="0"
         style="stop-color:#e7e5e0;stop-opacity:1;" />
      <stop
         id="stop4886"
         offset="1"
         style="stop-color:#ffffff;stop-opacity:1;" />
    </linearGradient>
    <linearGradient
       id="linearGradient4892"
       inkscape:collect="always">
      <stop
         id="stop4894"
         offset="0"
         style="stop-color:#ffffff;stop-opacity:1;" />
      <stop
         id="stop4896"
         offset="1"
         style="stop-color:#ffffff;stop-opacity:0;" />
    </linearGradient>
    <linearGradient
       id="linearGradient4902">
      <stop
         id="stop4904"
         offset="0"
         style="stop-color:#f57900;stop-opacity:1" />
      <stop
         id="stop4906"
         offset="1"
         style="stop-color:#ce5c00;stop-opacity:1" />
    </linearGradient>
    <linearGradient
       id="linearGradient4910">
      <stop
         id="stop4912"
         offset="0"
         style="stop-color:#6a6352;stop-opacity:1;" />
      <stop
         id="stop4914"
         offset="1"
         style="stop-color:#3b372e;stop-opacity:1;" />
    </linearGradient>
    <linearGradient
       id="linearGradient4920"
       inkscape:collect="always">
      <stop
         id="stop4922"
         offset="0"
         style="stop-color:#f57900;stop-opacity:1" />
      <stop
         id="stop4924"
         offset="1"
         style="stop-color:#73d216;stop-opacity:0" />
    </linearGradient>
    <linearGradient
       id="linearGradient2399"
       inkscape:collect="always">
      <stop
         id="stop2401"
         offset="0"
         style="stop-color:#ffffff;stop-opacity:1;" />
      <stop
         id="stop2403"
         offset="1"
         style="stop-color:#ffffff;stop-opacity:0;" />
    </linearGradient>
    <linearGradient
       inkscape:collect="always"
       xlink:href="#linearGradient4902"
       id="linearGradient2530"
       gradientUnits="userSpaceOnUse"
       gradientTransform="matrix(0.666667,0,0,0.666667,-0.4697505,0.5162912)"
       x1="21.6875"
       y1="12.093906"
       x2="21.6875"
       y2="6.1983013" />
    <linearGradient
       inkscape:collect="always"
       xlink:href="#linearGradient2399"
       id="linearGradient2532"
       gradientUnits="userSpaceOnUse"
       gradientTransform="matrix(0.666667,0,0,0.666667,-0.4697505,0.5162912)"
       x1="19.489632"
       y1="15.23002"
       x2="20.727066"
       y2="14.876466" />
    <linearGradient
       inkscape:collect="always"
       xlink:href="#linearGradient2399"
       id="linearGradient2534"
       gradientUnits="userSpaceOnUse"
       gradientTransform="matrix(0.666667,0,0,0.666667,-0.4697505,0.5162912)"
       x1="16.528622"
       y1="11.539805"
       x2="17.279921"
       y2="11.407223" />
    <radialGradient
       inkscape:collect="always"
       xlink:href="#linearGradient2454"
       id="radialGradient2536"
       gradientUnits="userSpaceOnUse"
       gradientTransform="scale(1.925808,0.519262)"
       cx="12.57571"
       cy="67.501709"
       fx="12.57571"
       fy="67.501709"
       r="8.7662792" />
    <linearGradient
       inkscape:collect="always"
       xlink:href="#linearGradient4910"
       id="linearGradient2538"
       gradientUnits="userSpaceOnUse"
       gradientTransform="matrix(0.7499,0,0,0.7499,-1.917307,-2.047544)"
       x1="22.0625"
       y1="20.90625"
       x2="24.673225"
       y2="20.90625" />
    <radialGradient
       inkscape:collect="always"
       xlink:href="#linearGradient4872"
       id="radialGradient2540"
       gradientUnits="userSpaceOnUse"
       gradientTransform="matrix(0.7499,0,0,0.960809,-1.917307,-9.142667)"
       cx="28.0625"
       cy="36.908916"
       fx="28.0625"
       fy="36.908916"
       r="7.5" />
    <linearGradient
       inkscape:collect="always"
       xlink:href="#linearGradient4892"
       id="linearGradient2542"
       gradientUnits="userSpaceOnUse"
       gradientTransform="matrix(0.60931,0,0,0.598891,2.145423,3.554497)"
       x1="28.513193"
       y1="37.765625"
       x2="28.421637"
       y2="30.828125" />
    <linearGradient
       inkscape:collect="always"
       xlink:href="#linearGradient4882"
       id="linearGradient2544"
       gradientUnits="userSpaceOnUse"
       gradientTransform="matrix(0.7499,0,0,0.701037,-1.917307,-0.336724)"
       x1="28.625"
       y1="25.296875"
       x2="28.625"
       y2="28" />
    <linearGradient
       inkscape:collect="always"
       xlink:href="#linearGradient4920"
       id="linearGradient2546"
       gradientUnits="userSpaceOnUse"
       gradientTransform="matrix(0.769933,0,0,0.939708,-2.176209,-5.438653)"
       x1="27.90625"
       y1="18.057989"
       x2="28.84375"
       y2="21.214239" />
  </defs>
  <sodipodi:namedview
     id="base"
     pagecolor="#ffffff"
     bordercolor="#666666"
     borderopacity="0.14117647"
     inkscape:pageopacity="0"
     inkscape:pageshadow="2"
     inkscape:zoom="1"
     inkscape:cx="21.753715"
     inkscape:cy="23.51643"
     inkscape:document-units="px"
     inkscape:current-layer="layer3"
     showgrid="false"
     stroke="#555753"
     fill="#eeeeec"
     inkscape:grid-points="true"
     inkscape:grid-bbox="false"
     inkscape:window-width="1085"
     inkscape:window-height="760"
     inkscape:window-x="527"
     inkscape:window-y="137"
     gridspacingx="0.5px"
     gridspacingy="0.5px"
     gridempspacing="2"
     showguides="false"
     inkscape:guide-bbox="true"
     inkscape:showpageshadow="false"
     showborder="false"
     width="32px"
     height="32px">
    <sodipodi:guide
       orientation="vertical"
       position="24.010638"
       id="guide2292" />
    <sodipodi:guide
       orientation="horizontal"
       position="7"
       id="guide2294" />
  </sodipodi:namedview>
  <metadata
     id="metadata7">
    <rdf:RDF>
      <cc:Work
         rdf:about="">
        <dc:format>image/svg+xml</dc:format>
        <dc:type
           rdf:resource="http://purl.org/dc/dcmitype/StillImage" />
        <dc:title>Ubuntu Computer</dc:title>
        <dc:date>2006-03-09</dc:date>
        <dc:creator>
          <cc:Agent>
            <dc:title>Lapo Calamandrei</dc:title>
          </cc:Agent>
        </dc:creator>
        <dc:contributor>
          <cc:Agent>
            <dc:title>Jakub Steiner</dc:title>
          </cc:Agent>
        </dc:contributor>
        <cc:license
           rdf:resource="http://creativecommons.org/licenses/by-nc-sa/2.0/" />
        <dc:subject>
          <rdf:Bag>
            <rdf:li>workstation</rdf:li>
            <rdf:li>computer</rdf:li>
            <rdf:li>node</rdf:li>
            <rdf:li>client</rdf:li>
          </rdf:Bag>
        </dc:subject>
      </cc:Work>
      <cc:License
         rdf:about="http://creativecommons.org/licenses/by-nc-sa/2.0/">
        <cc:permits
           rdf:resource="http://web.resource.org/cc/Reproduction" />
        <cc:permits
           rdf:resource="http://web.resource.org/cc/Distribution" />
        <cc:requires
           rdf:resource="http://web.resource.org/cc/Notice" />
        <cc:requires
           rdf:resource="http://web.resource.org/cc/Attribution" />
        <cc:prohibits
           rdf:resource="http://web.resource.org/cc/CommercialUse" />
        <cc:permits
           rdf:resource="http://web.resource.org/cc/DerivativeWorks" />
        <cc:requires
           rdf:resource="http://web.resource.org/cc/ShareAlike" />
      </cc:License>
    </rdf:RDF>
  </metadata>
  <g
     inkscape:groupmode="layer"
     id="layer1"
     inkscape:label="Shadow" />
  <g
     inkscape:groupmode="layer"
     id="layer2"
     inkscape:label="Lavoro"
     style="display:inline">
    <g
       id="g2611"
       inkscape:label="Shadow"
       transform="translate(0,15.06603)" />
    <g
       id="g2613"
       inkscape:label="Lavoro"
       style="display:inline"
       transform="translate(0,15.06603)" />
  </g>
  <g
     inkscape:groupmode="layer"
     id="layer3"
     inkscape:label="finiture"
     style="display:inline">
    <path
       sodipodi:type="arc"
       style="opacity:0.3;color:#000000;fill:url(#radialGradient3645);fill-opacity:1;fill-rule:nonzero;stroke:none;stroke-width:1;stroke-linecap:round;stroke-linejoin:miter;marker:none;marker-start:none;marker-mid:none;marker-end:none;stroke-miterlimit:4;stroke-dasharray:none;stroke-dashoffset:0;stroke-opacity:1;visibility:visible;display:inline;overflow:visible"
       id="path2791"
       sodipodi:cx="24"
       sodipodi:cy="41"
       sodipodi:rx="23.5"
       sodipodi:ry="7"
       d="M 47.5 41 A 23.5 7 0 1 1  0.5,41 A 23.5 7 0 1 1  47.5 41 z"
       transform="matrix(0.6736152,0,0,0.4766949,-0.166598,7.4555097)" />
    <path
       sodipodi:type="arc"
       style="opacity:0.2;fill:url(#radialGradient3348);fill-opacity:1;stroke:none;stroke-width:2;stroke-linecap:round;stroke-linejoin:round;stroke-miterlimit:4;stroke-dasharray:none;stroke-dashoffset:0;stroke-opacity:1"
       id="path3340"
       sodipodi:cx="16"
       sodipodi:cy="26.28125"
       sodipodi:rx="15"
       sodipodi:ry="4.28125"
       d="M 31 26.28125 A 15 4.28125 0 1 1  1,26.28125 A 15 4.28125 0 1 1  31 26.28125 z"
       transform="matrix(1,0,0,0.8832117,0,5.5693424)" />
    <path
       style="fill:url(#radialGradient3745);fill-opacity:1.0;fill-rule:evenodd;stroke:url(#linearGradient2255);stroke-width:1;stroke-linecap:round;stroke-linejoin:round;stroke-miterlimit:4;stroke-dasharray:none;stroke-opacity:1;display:inline"
       d="M 7.9574758,26.08216 L 6.5,28.499999 L 25.5,28.499999 L 24.042845,26.08216 L 7.9574758,26.08216 z "
       id="path4055"
       sodipodi:nodetypes="ccccc" />
    <rect
       style="opacity:0.7;color:#000000;fill:url(#linearGradient3740);fill-opacity:1;fill-rule:nonzero;stroke:url(#linearGradient3742);stroke-width:1;stroke-linecap:round;stroke-linejoin:miter;marker:none;marker-start:none;marker-mid:none;marker-end:none;stroke-miterlimit:4;stroke-dasharray:none;stroke-dashoffset:0;stroke-opacity:1;visibility:visible;display:inline;overflow:visible"
       id="rect4073"
       width="11.07373"
       height="2.0726893"
       x="10.473828"
       y="27.053438" />
    <rect
       style="color:#000000;fill:url(#linearGradient3732);fill-opacity:1;fill-rule:nonzero;stroke:url(#linearGradient3734);stroke-width:0.99999964;stroke-linecap:round;stroke-linejoin:miter;marker:none;marker-start:none;marker-mid:none;marker-end:none;stroke-miterlimit:4;stroke-dasharray:none;stroke-dashoffset:0;stroke-opacity:1;visibility:visible;display:inline;overflow:visible"
       id="rect1320"
       width="11.051801"
       height="5.1893916"
       x="10.470866"
       y="21.310608" />
    <rect
       style="opacity:0.23921569;color:#000000;fill:none;fill-opacity:1;fill-rule:nonzero;stroke:url(#linearGradient3729);stroke-width:1.00000048;stroke-linecap:round;stroke-linejoin:miter;marker:none;marker-start:none;marker-mid:none;marker-end:none;stroke-miterlimit:4;stroke-dasharray:none;stroke-dashoffset:0;stroke-opacity:1;visibility:visible;display:inline;overflow:visible"
       id="rect2291"
       width="9.0233908"
       height="4.4913073"
       x="11.476609"
       y="21.508694" />
    <rect
       style="color:#000000;fill:url(#linearGradient3726);fill-opacity:1;fill-rule:nonzero;stroke:#888a85;stroke-width:1;stroke-linecap:round;stroke-linejoin:round;marker:none;marker-start:none;marker-mid:none;marker-end:none;stroke-miterlimit:4;stroke-dasharray:none;stroke-dashoffset:0;stroke-opacity:1;visibility:visible;display:inline;overflow:visible"
       id="rect1318"
       width="30.995695"
       height="20.002575"
       x="0.50054765"
       y="3.500001"
       rx="1.989687"
       ry="1.989687" />
    <rect
       style="opacity:0.83921569;color:#000000;fill:none;fill-opacity:1;fill-rule:nonzero;stroke:url(#linearGradient3723);stroke-width:1;stroke-linecap:round;stroke-linejoin:miter;marker:none;marker-start:none;marker-mid:none;marker-end:none;stroke-miterlimit:4;stroke-dasharray:none;stroke-dashoffset:0;stroke-opacity:1;visibility:visible;display:inline;overflow:visible"
       id="rect1322"
       width="29.010992"
       height="18.002174"
       x="1.4944704"
       y="4.5094438"
       rx="0.97909319"
       ry="0.97909319" />
    <path
       style="opacity:0.87843137;fill:none;fill-opacity:0.75;fill-rule:evenodd;stroke:#ffffff;stroke-width:1.00000024;stroke-linecap:square;stroke-linejoin:miter;stroke-miterlimit:4;stroke-dasharray:none;stroke-opacity:1;display:inline"
       d="M 1.4999999,19.5 L 30.491335,19.5"
       id="path2237"
       sodipodi:nodetypes="cc" />
    <rect
       style="color:#000000;fill:url(#linearGradient4355);fill-opacity:1;fill-rule:nonzero;stroke:#555753;stroke-width:1.00000024;stroke-linecap:round;stroke-linejoin:round;marker:none;marker-start:none;marker-mid:none;marker-end:none;stroke-miterlimit:4;stroke-dasharray:none;stroke-dashoffset:0;stroke-opacity:1;visibility:visible;display:inline;overflow:visible"
       id="rect2197"
       width="26.987881"
       height="13.000862"
       x="2.4999998"
       y="5.5" />
    <path
       style="fill:none;fill-opacity:1;fill-rule:evenodd;stroke:#888a85;stroke-width:1.00000012;stroke-linecap:round;stroke-linejoin:miter;stroke-miterlimit:4;stroke-dasharray:none;stroke-opacity:1;display:inline"
       d="M 21.5,20.499999 L 21.5,21.509196"
       id="path2312" />
    <path
       style="fill:#babdb6;fill-opacity:1;fill-rule:evenodd;stroke:#f57900;stroke-width:1.00000012;stroke-linecap:round;stroke-linejoin:miter;stroke-miterlimit:4;stroke-dasharray:none;stroke-opacity:1;display:inline"
       d="M 23.5,20.499999 L 23.5,21.509196"
       id="path2326" />
    <path
       sodipodi:type="arc"
       style="color:#000000;fill:#eeeeec;fill-opacity:1;fill-rule:nonzero;stroke:none;stroke-width:1;stroke-linecap:round;stroke-linejoin:miter;marker:none;marker-start:none;marker-mid:none;marker-end:none;stroke-miterlimit:4;stroke-dasharray:none;stroke-dashoffset:0;stroke-opacity:1;visibility:visible;display:inline;overflow:visible"
       id="path4955"
       sodipodi:cx="34.950596"
       sodipodi:cy="33.151112"
       sodipodi:rx="0.88684016"
       sodipodi:ry="0.95505863"
       d="M 35.837436 33.151112 A 0.88684016 0.95505863 0 1 1  34.063756,33.151112 A 0.88684016 0.95505863 0 1 1  35.837436 33.151112 z"
       transform="matrix(0.3718719,0,0,0.3471749,8.5028555,9.9907661)" />
    <path
       style="fill:none;fill-opacity:1;fill-rule:evenodd;stroke:#888a85;stroke-width:1.00000012;stroke-linecap:round;stroke-linejoin:miter;stroke-miterlimit:4;stroke-dasharray:none;stroke-opacity:1;display:inline"
       d="M 19.5,20.499999 L 19.5,21.509196"
       id="path3755" />
    <path
       sodipodi:type="arc"
       style="color:#000000;fill:#eeeeec;fill-opacity:1;fill-rule:nonzero;stroke:none;stroke-width:1;stroke-linecap:round;stroke-linejoin:miter;marker:none;marker-start:none;marker-mid:none;marker-end:none;stroke-miterlimit:4;stroke-dasharray:none;stroke-dashoffset:0;stroke-opacity:1;visibility:visible;display:inline;overflow:visible"
       id="path3757"
       sodipodi:cx="34.950596"
       sodipodi:cy="33.151112"
       sodipodi:rx="0.88684016"
       sodipodi:ry="0.95505863"
       d="M 35.837436 33.151112 A 0.88684016 0.95505863 0 1 1  34.063756,33.151112 A 0.88684016 0.95505863 0 1 1  35.837436 33.151112 z"
       transform="matrix(0.3718719,0,0,0.3471749,6.5028555,9.9907661)" />
    <path
       style="fill:none;fill-opacity:1;fill-rule:evenodd;stroke:#888a85;stroke-width:1.00000012;stroke-linecap:round;stroke-linejoin:miter;stroke-miterlimit:4;stroke-dasharray:none;stroke-opacity:1;display:inline"
       d="M 17.5,20.499999 L 17.5,21.509196"
       id="path3759" />
    <path
       sodipodi:type="arc"
       style="color:#000000;fill:#eeeeec;fill-opacity:1;fill-rule:nonzero;stroke:none;stroke-width:1;stroke-linecap:round;stroke-linejoin:miter;marker:none;marker-start:none;marker-mid:none;marker-end:none;stroke-miterlimit:4;stroke-dasharray:none;stroke-dashoffset:0;stroke-opacity:1;visibility:visible;display:inline;overflow:visible"
       id="path3761"
       sodipodi:cx="34.950596"
       sodipodi:cy="33.151112"
       sodipodi:rx="0.88684016"
       sodipodi:ry="0.95505863"
       d="M 35.837436 33.151112 A 0.88684016 0.95505863 0 1 1  34.063756,33.151112 A 0.88684016 0.95505863 0 1 1  35.837436 33.151112 z"
       transform="matrix(0.3718719,0,0,0.3471749,4.5028555,9.9907661)" />
    <path
       sodipodi:type="arc"
       style="color:#000000;fill:#fce94f;fill-opacity:1;fill-rule:nonzero;stroke:none;stroke-width:1;stroke-linecap:round;stroke-linejoin:miter;marker:none;marker-start:none;marker-mid:none;marker-end:none;stroke-miterlimit:4;stroke-dasharray:none;stroke-dashoffset:0;stroke-opacity:1;visibility:visible;display:inline;overflow:visible"
       id="path3763"
       sodipodi:cx="34.950596"
       sodipodi:cy="33.151112"
       sodipodi:rx="0.88684016"
       sodipodi:ry="0.95505863"
       d="M 35.837436 33.151112 A 0.88684016 0.95505863 0 1 1  34.063756,33.151112 A 0.88684016 0.95505863 0 1 1  35.837436 33.151112 z"
       transform="matrix(0.3718719,0,0,0.3471749,10.502856,8.9907661)" />
    <g
       id="g3835"
       style="fill:#555753;display:inline"
       transform="translate(-192,-31.000012)">
      <path
         transform="matrix(2.000052,0,0,1.99997,-194.0101,-50.99845)"
         d="M 194.5 51.25 A 0.25 0.25 0 1 1  194,51.25 A 0.25 0.25 0 1 1  194.5 51.25 z"
         sodipodi:ry="0.25"
         sodipodi:rx="0.25"
         sodipodi:cy="51.25"
         sodipodi:cx="194.25"
         id="path3837"
         style="opacity:0.80392157;color:#000000;fill:#555753;fill-opacity:1;fill-rule:nonzero;stroke:none;stroke-width:1.10000002;stroke-linecap:square;stroke-linejoin:miter;marker:none;marker-start:none;marker-mid:none;marker-end:none;stroke-miterlimit:4;stroke-dasharray:none;stroke-dashoffset:0;stroke-opacity:1;visibility:visible;display:inline;overflow:visible"
         sodipodi:type="arc" />
      <path
         transform="matrix(2.000052,0,0,1.99997,-193.0101,-49.99847)"
         d="M 194.5 51.25 A 0.25 0.25 0 1 1  194,51.25 A 0.25 0.25 0 1 1  194.5 51.25 z"
         sodipodi:ry="0.25"
         sodipodi:rx="0.25"
         sodipodi:cy="51.25"
         sodipodi:cx="194.25"
         id="path3839"
         style="opacity:0.80392157;color:#000000;fill:#555753;fill-opacity:1;fill-rule:nonzero;stroke:none;stroke-width:1.10000002;stroke-linecap:square;stroke-linejoin:miter;marker:none;marker-start:none;marker-mid:none;marker-end:none;stroke-miterlimit:4;stroke-dasharray:none;stroke-dashoffset:0;stroke-opacity:1;visibility:visible;display:inline;overflow:visible"
         sodipodi:type="arc" />
      <path
         transform="matrix(2.000052,0,0,1.99997,-192.0101,-50.99845)"
         d="M 194.5 51.25 A 0.25 0.25 0 1 1  194,51.25 A 0.25 0.25 0 1 1  194.5 51.25 z"
         sodipodi:ry="0.25"
         sodipodi:rx="0.25"
         sodipodi:cy="51.25"
         sodipodi:cx="194.25"
         id="path3845"
         style="opacity:0.80392157;color:#000000;fill:#555753;fill-opacity:1;fill-rule:nonzero;stroke:none;stroke-width:1.10000002;stroke-linecap:square;stroke-linejoin:miter;marker:none;marker-start:none;marker-mid:none;marker-end:none;stroke-miterlimit:4;stroke-dasharray:none;stroke-dashoffset:0;stroke-opacity:1;visibility:visible;display:inline;overflow:visible"
         sodipodi:type="arc" />
      <path
         transform="matrix(2.000052,0,0,1.99997,-191.0101,-49.99845)"
         d="M 194.5 51.25 A 0.25 0.25 0 1 1  194,51.25 A 0.25 0.25 0 1 1  194.5 51.25 z"
         sodipodi:ry="0.25"
         sodipodi:rx="0.25"
         sodipodi:cy="51.25"
         sodipodi:cx="194.25"
         id="path3847"
         style="opacity:0.80392157;color:#000000;fill:#555753;fill-opacity:1;fill-rule:nonzero;stroke:none;stroke-width:1.10000002;stroke-linecap:square;stroke-linejoin:miter;marker:none;marker-start:none;marker-mid:none;marker-end:none;stroke-miterlimit:4;stroke-dasharray:none;stroke-dashoffset:0;stroke-opacity:1;visibility:visible;display:inline;overflow:visible"
         sodipodi:type="arc" />
    </g>
    <g
       id="g3862"
       style="fill:#555753;display:inline"
       transform="matrix(1,0,0,-1,-168,73.000013)">
      <path
         transform="matrix(2.000052,0,0,1.99997,-194.0101,-50.99845)"
         d="M 194.5 51.25 A 0.25 0.25 0 1 1  194,51.25 A 0.25 0.25 0 1 1  194.5 51.25 z"
         sodipodi:ry="0.25"
         sodipodi:rx="0.25"
         sodipodi:cy="51.25"
         sodipodi:cx="194.25"
         id="path3864"
         style="opacity:0.80392157;color:#000000;fill:#555753;fill-opacity:1;fill-rule:nonzero;stroke:none;stroke-width:1.10000002;stroke-linecap:square;stroke-linejoin:miter;marker:none;marker-start:none;marker-mid:none;marker-end:none;stroke-miterlimit:4;stroke-dasharray:none;stroke-dashoffset:0;stroke-opacity:1;visibility:visible;display:inline;overflow:visible"
         sodipodi:type="arc" />
      <path
         transform="matrix(2.000052,0,0,1.99997,-193.0101,-49.99847)"
         d="M 194.5 51.25 A 0.25 0.25 0 1 1  194,51.25 A 0.25 0.25 0 1 1  194.5 51.25 z"
         sodipodi:ry="0.25"
         sodipodi:rx="0.25"
         sodipodi:cy="51.25"
         sodipodi:cx="194.25"
         id="path3866"
         style="opacity:0.80392157;color:#000000;fill:#555753;fill-opacity:1;fill-rule:nonzero;stroke:none;stroke-width:1.10000002;stroke-linecap:square;stroke-linejoin:miter;marker:none;marker-start:none;marker-mid:none;marker-end:none;stroke-miterlimit:4;stroke-dasharray:none;stroke-dashoffset:0;stroke-opacity:1;visibility:visible;display:inline;overflow:visible"
         sodipodi:type="arc" />
      <path
         transform="matrix(2.000052,0,0,1.99997,-192.0101,-50.99845)"
         d="M 194.5 51.25 A 0.25 0.25 0 1 1  194,51.25 A 0.25 0.25 0 1 1  194.5 51.25 z"
         sodipodi:ry="0.25"
         sodipodi:rx="0.25"
         sodipodi:cy="51.25"
         sodipodi:cx="194.25"
         id="path3868"
         style="opacity:0.80392157;color:#000000;fill:#555753;fill-opacity:1;fill-rule:nonzero;stroke:none;stroke-width:1.10000002;stroke-linecap:square;stroke-linejoin:miter;marker:none;marker-start:none;marker-mid:none;marker-end:none;stroke-miterlimit:4;stroke-dasharray:none;stroke-dashoffset:0;stroke-opacity:1;visibility:visible;display:inline;overflow:visible"
         sodipodi:type="arc" />
      <path
         transform="matrix(2.000052,0,0,1.99997,-191.0101,-49.99845)"
         d="M 194.5 51.25 A 0.25 0.25 0 1 1  194,51.25 A 0.25 0.25 0 1 1  194.5 51.25 z"
         sodipodi:ry="0.25"
         sodipodi:rx="0.25"
         sodipodi:cy="51.25"
         sodipodi:cx="194.25"
         id="path3870"
         style="opacity:0.80392157;color:#000000;fill:#555753;fill-opacity:1;fill-rule:nonzero;stroke:none;stroke-width:1.10000002;stroke-linecap:square;stroke-linejoin:miter;marker:none;marker-start:none;marker-mid:none;marker-end:none;stroke-miterlimit:4;stroke-dasharray:none;stroke-dashoffset:0;stroke-opacity:1;visibility:visible;display:inline;overflow:visible"
         sodipodi:type="arc" />
    </g>
    <g
       transform="translate(-62.750242,119.62587)"
       inkscape:label="Shadow"
       id="g3472" />
    <g
       transform="translate(-62.750242,119.62587)"
       style="display:inline"
       inkscape:label="Lavoro"
       id="g3474" />
    <g
       transform="translate(-46.500242,77.625871)"
       inkscape:label="Shadow"
       id="g4020" />
    <g
       transform="translate(-46.500242,77.625871)"
       style="display:inline"
       inkscape:label="Lavoro"
       id="g4022" />
    <path
       style="opacity:0.4;color:#000000;fill:url(#radialGradient4352);fill-opacity:1;fill-rule:nonzero;stroke:none;stroke-width:1;stroke-linecap:round;stroke-linejoin:miter;marker:none;marker-start:none;marker-mid:none;marker-end:none;stroke-miterlimit:4;stroke-dashoffset:0;stroke-opacity:1;visibility:visible;display:inline;overflow:visible"
       d="M 3,6 L 29,6 L 29,10.392347 C 20.172037,7.2300423 9.8457837,9.7870185 3,15 L 3,6 z "
       id="rect2292"
       sodipodi:nodetypes="ccccc" />
    <path
       style="color:#000000;fill:#000000;fill-opacity:1;fill-rule:nonzero;stroke:#000000;stroke-width:1.00000155;stroke-linecap:butt;stroke-linejoin:miter;marker:none;marker-start:none;marker-mid:none;marker-end:none;stroke-miterlimit:4;stroke-dasharray:none;stroke-dashoffset:0;stroke-opacity:1;visibility:visible;display:inline;overflow:visible;opacity:0.1"
       d="M 15.53125 18.4375 L 15.53125 21.3125 C 15.53125 21.981722 16.134496 22.53125 16.875 22.53125 L 19.4375 22.53125 C 19.398291 22.886448 19.330591 23.175849 19.28125 23.5 L 22.96875 23.5 C 22.896709 23.184255 22.834886 22.867483 22.78125 22.53125 L 25.125 22.53125 C 25.865506 22.531249 26.46875 21.981721 26.46875 21.3125 L 26.46875 18.4375 C 26.468749 18.437499 15.53125 18.4375 15.53125 18.4375 z "
       id="path2548" />
    <g
       id="g3412"
       transform="matrix(1,0,0,1.017396,1.998283,0.4725279)">
      <g
         transform="matrix(1.038524,0,0,1,-0.829219,0)"
         id="g2116">
        <path
           style="color:#000000;fill:url(#linearGradient2530);fill-opacity:1;fill-rule:nonzero;stroke:none;stroke-width:1;stroke-linecap:butt;stroke-linejoin:miter;marker:none;marker-start:none;marker-mid:none;marker-end:none;stroke-miterlimit:4;stroke-dasharray:none;stroke-dashoffset:0;stroke-opacity:1;visibility:visible;display:inline;overflow:visible"
           d="M 8.5033524,5.4329603 C 8.5033524,5.4329603 8.7116859,11.38088 8.7116859,11.932963 C 8.7116859,12.44338 8.2325189,13.287131 8.8783526,13.287131 C 9.4825195,13.287131 9.0033525,12.422547 9.0450195,11.932963 C 9.0831665,11.484733 9.1700195,8.6829619 9.1700195,8.6829619 C 9.1700195,8.6829619 9.6283535,8.745462 9.8366865,8.141295 C 10.04502,7.537128 10.003354,6.2662941 10.003354,6.2662941 L 10.336687,6.7662943 C 11.003354,11.182963 10.693836,13.995576 10.711687,14.328798 C 10.727313,14.620465 10.232244,15.932965 10.920021,15.932965 C 11.795297,15.932965 11.15839,14.656845 11.170021,14.349631 C 11.18244,14.021613 11.270825,11.610047 11.753355,8.7662953 C 12.485884,9.8392125 12.030257,7.7662948 12.863591,12.182964 L 22.946929,13.099631 C 22.780263,8.6829619 21.336693,6.2662941 20.336692,5.5162936 C 20.336692,5.5162936 8.5033524,5.4329603 8.5033524,5.4329603 z "
           id="path3523"
           sodipodi:nodetypes="czzzcscczzzcccsc" />
        <path
           transform="matrix(0.222222,0,0,0.222222,4.3741055,7.3218482)"
           d="M 30.25 36.5 A 1.125 1.125 0 1 1  28,36.5 A 1.125 1.125 0 1 1  30.25 36.5 z"
           sodipodi:ry="1.125"
           sodipodi:rx="1.125"
           sodipodi:cy="36.5"
           sodipodi:cx="29.125"
           id="path4938"
           style="opacity:1;color:#000000;fill:#ffffff;fill-opacity:1;fill-rule:nonzero;stroke:none;stroke-width:1;stroke-linecap:butt;stroke-linejoin:miter;marker:none;marker-start:none;marker-mid:none;marker-end:none;stroke-miterlimit:4;stroke-dasharray:none;stroke-dashoffset:0;stroke-opacity:1;visibility:visible;display:inline;overflow:visible"
           sodipodi:type="arc" />
        <path
           sodipodi:type="arc"
           style="opacity:1;color:#000000;fill:#ffffff;fill-opacity:1;fill-rule:nonzero;stroke:none;stroke-width:1;stroke-linecap:butt;stroke-linejoin:miter;marker:none;marker-start:none;marker-mid:none;marker-end:none;stroke-miterlimit:4;stroke-dasharray:none;stroke-dashoffset:0;stroke-opacity:1;visibility:visible;display:inline;overflow:visible"
           id="path4940"
           sodipodi:cx="29.125"
           sodipodi:cy="36.5"
           sodipodi:rx="1.125"
           sodipodi:ry="1.125"
           d="M 30.25 36.5 A 1.125 1.125 0 1 1  28,36.5 A 1.125 1.125 0 1 1  30.25 36.5 z"
           transform="matrix(0.166667,0,0,0.166667,3.9296625,6.8496282)" />
        <path
           style="opacity:1;color:#000000;fill:url(#linearGradient2532);fill-opacity:1;fill-rule:nonzero;stroke:none;stroke-width:1;stroke-linecap:butt;stroke-linejoin:miter;marker:none;marker-start:none;marker-mid:none;marker-end:none;stroke-miterlimit:4;stroke-dasharray:none;stroke-dashoffset:0;stroke-opacity:1;visibility:visible;display:inline;overflow:visible"
           d="M 12.449688,9.1817715 L 13.112601,12.069125 L 13.642931,11.862886 C 13.642931,11.862886 13.245183,9.8299532 12.862166,9.3290856 C 12.47915,8.828218 12.405494,9.0344575 12.007746,8.9166067 C 12.007746,8.9166067 12.302374,8.9608008 12.449688,9.1817715 z "
           id="path1524"
           sodipodi:nodetypes="cccscc" />
        <path
           style="opacity:1;color:#000000;fill:url(#linearGradient2534);fill-opacity:1;fill-rule:nonzero;stroke:none;stroke-width:1;stroke-linecap:butt;stroke-linejoin:miter;marker:none;marker-start:none;marker-mid:none;marker-end:none;stroke-miterlimit:4;stroke-dasharray:none;stroke-dashoffset:0;stroke-opacity:1;visibility:visible;display:inline;overflow:visible"
           d="M 10.505143,6.7805537 C 10.505143,6.7805537 10.917622,9.6679078 10.858697,10.758031 C 10.991279,8.7250986 10.726114,6.8836735 10.726114,6.8836735 L 10.04847,6.1765664 L 10.505143,6.7805537 z "
           id="path2410"
           sodipodi:nodetypes="ccccc" />
      </g>
      <g
         transform="matrix(1,0,0,0.925077,0,1.34673)"
         id="g3388">
        <path
           transform="matrix(0.398912,0,0,0.493248,10.72361,11.78771)"
           d="M 41.10058 35.051105 A 16.882174 4.552 0 1 1  7.3362331,35.051105 A 16.882174 4.552 0 1 1  41.10058 35.051105 z"
           sodipodi:ry="4.552"
           sodipodi:rx="16.882174"
           sodipodi:cy="35.051105"
           sodipodi:cx="24.218407"
           id="path3994"
           style="opacity:0.20467834;color:#000000;fill:url(#radialGradient2536);fill-opacity:1;fill-rule:evenodd;stroke:none;stroke-width:1;stroke-linecap:round;stroke-linejoin:miter;marker:none;marker-start:none;marker-mid:none;marker-end:none;stroke-miterlimit:4;stroke-dashoffset:0;stroke-opacity:0.70063692;visibility:visible;display:inline;overflow:visible"
           sodipodi:type="arc" />
        <g
           id="g2480"
           transform="matrix(1.041418,0,0,1,-1.346414,0)">
          <path
             style="font-size:0.9029026px;font-style:normal;font-variant:normal;font-weight:bold;font-stretch:normal;writing-mode:lr-tb;text-anchor:start;fill:#4a4a4a;fill-opacity:1;stroke:none;stroke-width:1pt;stroke-linecap:butt;stroke-linejoin:miter;stroke-opacity:1;font-family:Bitstream Vera Sans"
             d="M 14.955443,20.593936 L 15.166702,20.593936 C 15.229517,20.593937 15.277676,20.607932 15.311178,20.635923 C 15.3449,20.663695 15.361761,20.703368 15.361761,20.754943 C 15.361761,20.806738 15.3449,20.846632 15.311178,20.874623 C 15.277676,20.902394 15.229517,20.91628 15.166702,20.91628 L 15.082727,20.91628 L 15.082727,21.087535 L 14.955443,21.087535 L 14.955443,20.593936 M 15.082727,20.686176 L 15.082727,20.82404 L 15.153147,20.82404 C 15.177832,20.82404 15.196897,20.818089 15.210342,20.806187 C 15.223787,20.794065 15.230509,20.776984 15.230509,20.754943 C 15.230509,20.732902 15.223787,20.715931 15.210342,20.704029 C 15.196897,20.692127 15.177832,20.686176 15.153147,20.686176 L 15.082727,20.686176 M 15.676831,20.677249 C 15.63804,20.67725 15.607954,20.691576 15.586575,20.720228 C 15.565196,20.748882 15.554506,20.789216 15.554506,20.841232 C 15.554506,20.893027 15.565196,20.933251 15.586575,20.961904 C 15.607954,20.990557 15.63804,21.004883 15.676831,21.004883 C 15.715842,21.004883 15.746038,20.990557 15.767418,20.961904 C 15.788797,20.933251 15.799486,20.893027 15.799487,20.841232 C 15.799486,20.789216 15.788797,20.748882 15.767418,20.720228 C 15.746038,20.691576 15.715842,20.67725 15.676831,20.677249 M 15.676831,20.585009 C 15.756177,20.58501 15.818331,20.607712 15.863294,20.653115 C 15.908257,20.698519 15.930738,20.761225 15.930739,20.841232 C 15.930738,20.921019 15.908257,20.983614 15.863294,21.029017 C 15.818331,21.074421 15.756177,21.097123 15.676831,21.097123 C 15.597705,21.097123 15.535551,21.074421 15.490368,21.029017 C 15.445405,20.983614 15.422924,20.921019 15.422924,20.841232 C 15.422924,20.761225 15.445405,20.698519 15.490368,20.653115 C 15.535551,20.607712 15.597705,20.58501 15.676831,20.585009 M 16.026615,20.593936 L 16.168777,20.593936 L 16.348298,20.932479 L 16.348298,20.593936 L 16.46897,20.593936 L 16.46897,21.087535 L 16.326808,21.087535 L 16.147288,20.748992 L 16.147288,21.087535 L 16.026615,21.087535 L 16.026615,20.593936 M 16.523851,20.593936 L 16.663037,20.593936 L 16.775444,20.76982 L 16.887851,20.593936 L 17.027368,20.593936 L 16.839251,20.879582 L 16.839251,21.087535 L 16.711967,21.087535 L 16.711967,20.879582 L 16.523851,20.593936"
             id="text2735" />
          <path
             sodipodi:nodetypes="cczccsccsccscsc"
             id="path4900"
             d="M 14.814837,16.325006 L 24.563537,16.325006 C 24.563537,16.325006 24.704143,12.762981 23.766768,11.872475 C 22.877431,11.027604 21.610806,11.216312 21.610806,11.216312 L 21.563937,11.591262 C 21.563937,11.591262 21.095249,11.263181 20.251612,11.216312 C 19.407974,11.169443 18.798681,11.263181 18.798681,11.263181 L 19.079893,11.544393 C 19.079893,11.544393 17.908174,11.075706 16.783324,11.075706 C 15.658474,11.075706 15.424131,11.122575 15.424131,11.122575 L 15.845949,11.356919 C 15.845949,11.356919 14.908574,10.9351 14.158674,10.9351 C 13.408774,10.9351 12.752612,11.263181 12.752612,11.263181 C 12.752612,11.263181 13.830593,11.825606 14.252412,12.575506 C 14.674231,13.325406 14.814837,16.325006 14.814837,16.325006 z "
             style="color:#000000;fill:url(#linearGradient2538);fill-opacity:1;fill-rule:nonzero;stroke:#3a3a3a;stroke-width:1.01007628;stroke-linecap:butt;stroke-linejoin:miter;marker:none;marker-start:none;marker-mid:none;marker-end:none;stroke-miterlimit:4;stroke-dasharray:none;stroke-dashoffset:0;stroke-opacity:1;visibility:visible;display:inline;overflow:visible" />
          <path
             sodipodi:nodetypes="ccccszsccccc"
             id="rect4400"
             d="M 14.299281,16.580864 L 14.299281,19.629253 C 14.299281,20.340307 14.877118,20.918143 15.588171,20.918143 L 18.025346,20.918143 C 17.845926,22.716619 17.491054,24.072341 17.580093,25.63528 C 17.635867,26.614299 18.484063,27.88498 19.829793,27.88498 C 21.035012,27.88498 21.901703,26.710243 21.985756,25.541542 C 22.079493,24.238184 21.495625,22.720026 21.235856,20.918143 L 23.50899,20.918143 C 24.220045,20.918143 24.797881,20.340306 24.797881,19.629253 L 24.797881,16.580864 C 24.797881,16.580864 14.299281,16.580864 14.299281,16.580864 z "
             style="color:#000000;fill:url(#radialGradient2540);fill-opacity:1;fill-rule:nonzero;stroke:#80754c;stroke-width:1.01007628;stroke-linecap:butt;stroke-linejoin:miter;marker:none;marker-start:none;marker-mid:none;marker-end:none;stroke-miterlimit:4;stroke-dasharray:none;stroke-dashoffset:0;stroke-opacity:1;visibility:visible;display:inline;overflow:visible" />
          <path
             style="opacity:0.57309941;color:#000000;fill:none;fill-opacity:1;fill-rule:nonzero;stroke:url(#linearGradient2542);stroke-width:1.01007676;stroke-linecap:butt;stroke-linejoin:miter;marker:none;marker-start:none;marker-mid:none;marker-end:none;stroke-miterlimit:4;stroke-dasharray:none;stroke-dashoffset:0;stroke-opacity:1;visibility:visible;display:inline;overflow:visible"
             d="M 18.977627,21.171254 C 18.861,22.320304 18.434468,24.419038 18.492344,25.417604 C 18.528598,26.043101 18.894982,26.902002 19.769731,26.902002 C 20.553144,26.902002 20.959835,26.141831 21.014471,25.395145 C 21.075402,24.562427 20.547897,22.322482 20.379041,21.171254 L 18.977627,21.171254 z "
             id="path4890"
             sodipodi:nodetypes="cszscc" />
          <path
             style="color:#000000;fill:#e8daa5;fill-opacity:1;fill-rule:nonzero;stroke:none;stroke-width:1;stroke-linecap:butt;stroke-linejoin:miter;marker:none;marker-start:none;marker-mid:none;marker-end:none;stroke-miterlimit:4;stroke-dasharray:none;stroke-dashoffset:0;stroke-opacity:1;visibility:visible;display:inline;overflow:visible"
             d="M 14.736075,17.167269 L 14.736075,19.659921 C 14.736075,20.204602 15.187925,20.544658 15.800752,20.544658 L 23.319855,20.544658 C 23.932684,20.544658 24.338367,20.204601 24.338367,19.659921 L 24.338367,17.167269 C 24.338367,17.167269 14.736075,17.167269 14.736075,17.167269 z "
             id="path4880"
             sodipodi:nodetypes="ccccccc" />
          <path
             sodipodi:nodetypes="ccccccc"
             id="rect3119"
             d="M 23.954243,17.167269 L 23.954243,18.700785 C 23.954243,19.028475 23.672047,19.292284 23.321515,19.292284 L 15.775646,19.292284 C 15.425115,19.292284 15.142918,19.028475 15.142918,18.700785 L 15.142918,17.167269 C 15.142918,17.167269 23.954243,17.167269 23.954243,17.167269 z "
             style="color:#000000;fill:url(#linearGradient2544);fill-opacity:1;fill-rule:nonzero;stroke:none;stroke-width:1;stroke-linecap:butt;stroke-linejoin:miter;marker:none;marker-start:none;marker-mid:none;marker-end:none;stroke-miterlimit:4;stroke-dashoffset:0;stroke-opacity:1;visibility:visible;display:inline;overflow:visible" />
          <path
             sodipodi:nodetypes="cscccccccccccccsccsccsccsccsc"
             id="path4918"
             d="M 13.775846,11.358631 C 13.775846,11.358631 14.666081,12.034046 14.882625,13.032486 C 15.099168,14.030926 15.219471,15 15.219471,15 L 15.820982,13.384876 L 16.494672,14.177755 L 16.735277,12.885657 L 18.178901,13.355511 L 17.793934,12.386437 L 19.333801,13.267413 L 19.285682,12.621364 L 19.935312,13.326145 L 20.464641,12.738827 L 21.619541,13.355511 L 22.293232,12.562632 L 23.255648,13.326145 C 23.255648,13.326145 23.087227,12.797559 23.183468,12.826924 C 23.27971,12.856291 24.121824,13.208681 24.121824,13.208681 L 24.338367,13.531706 C 24.338367,13.531706 24.191662,12.631874 23.857159,12.268973 C 23.207529,11.564192 22.293232,11.622924 22.293232,11.622924 L 22.196991,12.445168 C 22.196991,12.445168 21.402998,11.769753 20.729305,11.652289 C 20.055615,11.534826 19.381923,11.681656 19.381923,11.681656 L 19.23756,12.034046 C 19.23756,12.034046 18.395445,11.622924 17.649573,11.534826 C 16.903699,11.446729 15.941283,11.476094 15.941283,11.476094 L 15.893162,11.799119 C 15.893162,11.799119 15.19541,11.387997 14.882625,11.358631 C 14.569839,11.329265 13.799906,11.387997 13.775846,11.358631 z "
             style="color:#000000;fill:url(#linearGradient2546);fill-opacity:1;fill-rule:nonzero;stroke:none;stroke-width:1;stroke-linecap:butt;stroke-linejoin:miter;marker:none;marker-start:none;marker-mid:none;marker-end:none;stroke-miterlimit:4;stroke-dasharray:none;stroke-dashoffset:0;stroke-opacity:1;visibility:visible;display:inline;overflow:visible" />
          <path
             transform="matrix(0.666578,0,0,0.666578,4.744478e-3,0.993717)"
             d="M 30.25 36.5 A 1.125 1.125 0 1 1  28,36.5 A 1.125 1.125 0 1 1  30.25 36.5 z"
             sodipodi:ry="1.125"
             sodipodi:rx="1.125"
             sodipodi:cy="36.5"
             sodipodi:cx="29.125"
             id="path4928"
             style="opacity:0.9372549;color:#000000;fill:#ffffff;fill-opacity:1;fill-rule:nonzero;stroke:none;stroke-width:1;stroke-linecap:butt;stroke-linejoin:miter;marker:none;marker-start:none;marker-mid:none;marker-end:none;stroke-miterlimit:4;stroke-dasharray:none;stroke-dashoffset:0;stroke-opacity:1;visibility:visible;display:inline;overflow:visible"
             sodipodi:type="arc" />
        </g>
      </g>
    </g>
  </g>
</svg>
