<?xml version="1.0" encoding="UTF-8" standalone="no"?>
<!-- Created with Inkscape (http://www.inkscape.org/) -->
<svg
   xmlns:dc="http://purl.org/dc/elements/1.1/"
   xmlns:cc="http://creativecommons.org/ns#"
   xmlns:rdf="http://www.w3.org/1999/02/22-rdf-syntax-ns#"
   xmlns:svg="http://www.w3.org/2000/svg"
   xmlns="http://www.w3.org/2000/svg"
   xmlns:xlink="http://www.w3.org/1999/xlink"
   xmlns:sodipodi="http://sodipodi.sourceforge.net/DTD/sodipodi-0.dtd"
   xmlns:inkscape="http://www.inkscape.org/namespaces/inkscape"
   width="22"
   height="22"
   id="svg2"
   sodipodi:version="0.32"
   inkscape:version="0.45+devel"
   version="1.0"
   sodipodi:docbase="/home/lapo/Icone/tangerine-icon-theme/22x22/devices"
   sodipodi:docname="computer.svg"
   inkscape:export-filename="/home/lapo/Desktop/computer.png"
   inkscape:export-xdpi="90"
   inkscape:export-ydpi="90"
   inkscape:output_extension="org.inkscape.output.svg.inkscape">
  <defs
     id="defs4">
    <radialGradient
       inkscape:collect="always"
       xlink:href="#linearGradient2295"
       id="radialGradient6993"
       gradientUnits="userSpaceOnUse"
       gradientTransform="matrix(1.452364,0.7896597,-0.3343268,0.5997757,-276.11898,-157.5282)"
       cx="197.70364"
       cy="14.180145"
       fx="197.70364"
       fy="14.180145"
       r="20" />
    <linearGradient
       inkscape:collect="always"
       id="linearGradient6818">
      <stop
         style="stop-color:#e9b96e;stop-opacity:1;"
         offset="0"
         id="stop6820" />
      <stop
         style="stop-color:#e9b96e;stop-opacity:0;"
         offset="1"
         id="stop6822" />
    </linearGradient>
    <radialGradient
       inkscape:collect="always"
       xlink:href="#linearGradient6818"
       id="radialGradient6991"
       gradientUnits="userSpaceOnUse"
       gradientTransform="matrix(0.6999127,0,0,0.5556745,-70.77929,1.7185232)"
       cx="110.5"
       cy="12.5"
       fx="110.5"
       fy="12.5"
       r="6" />
    <linearGradient
       inkscape:collect="always"
       id="linearGradient6808">
      <stop
         style="stop-color:#e9b96e;stop-opacity:1;"
         offset="0"
         id="stop6810" />
      <stop
         style="stop-color:#e9b96e;stop-opacity:0;"
         offset="1"
         id="stop6812" />
    </linearGradient>
    <radialGradient
       inkscape:collect="always"
       xlink:href="#linearGradient6808"
       id="radialGradient6989"
       gradientUnits="userSpaceOnUse"
       gradientTransform="matrix(0.6883822,0,0,0.3561255,-34.976518,6.5705966)"
       cx="82"
       cy="23.098652"
       fx="82"
       fy="23.098652"
       r="11.46875" />
    <linearGradient
       inkscape:collect="always"
       id="linearGradient6794">
      <stop
         style="stop-color:#e9b96e;stop-opacity:1;"
         offset="0"
         id="stop6796" />
      <stop
         style="stop-color:#e9b96e;stop-opacity:0;"
         offset="1"
         id="stop6798" />
    </linearGradient>
    <radialGradient
       inkscape:collect="always"
       xlink:href="#linearGradient6794"
       id="radialGradient6987"
       gradientUnits="userSpaceOnUse"
       gradientTransform="matrix(0.8024733,-9.6985586e-2,7.9564933e-3,5.7771304e-2,-82.964563,22.117893)"
       cx="117.53682"
       cy="14.015168"
       fx="117.53682"
       fy="14.015168"
       r="19" />
    <linearGradient
       inkscape:collect="always"
       id="linearGradient6782">
      <stop
         style="stop-color:#e9b96e;stop-opacity:1;"
         offset="0"
         id="stop6784" />
      <stop
         style="stop-color:#e9b96e;stop-opacity:0;"
         offset="1"
         id="stop6786" />
    </linearGradient>
    <radialGradient
       inkscape:collect="always"
       xlink:href="#linearGradient6782"
       id="radialGradient6985"
       gradientUnits="userSpaceOnUse"
       gradientTransform="matrix(0.7416099,-0.2105714,3.0257374e-2,0.1013659,-76.531343,37.063807)"
       cx="123.70635"
       cy="8.0600147"
       fx="123.70635"
       fy="8.0600147"
       r="19" />
    <radialGradient
       inkscape:collect="always"
       xlink:href="#linearGradient6764"
       id="radialGradient6983"
       gradientUnits="userSpaceOnUse"
       gradientTransform="matrix(0.7263072,-0.2910723,4.4428897e-2,9.7241055e-2,-74.045345,43.059049)"
       cx="118"
       cy="9.6084557"
       fx="118"
       fy="9.6084557"
       r="20.03125" />
    <linearGradient
       inkscape:collect="always"
       id="linearGradient6764">
      <stop
         style="stop-color:#e9b96e;stop-opacity:1;"
         offset="0"
         id="stop6766" />
      <stop
         style="stop-color:#e9b96e;stop-opacity:0;"
         offset="1"
         id="stop6768" />
    </linearGradient>
    <radialGradient
       inkscape:collect="always"
       xlink:href="#linearGradient6764"
       id="radialGradient6981"
       gradientUnits="userSpaceOnUse"
       gradientTransform="matrix(0.7688123,-0.2212499,4.5210719e-2,0.136181,-77.830759,32.920724)"
       cx="115.24761"
       cy="34.711994"
       fx="115.24761"
       fy="34.711994"
       r="20.03125" />
    <linearGradient
       inkscape:collect="always"
       id="linearGradient6826">
      <stop
         style="stop-color:#3c2400;stop-opacity:1;"
         offset="0"
         id="stop6828" />
      <stop
         style="stop-color:#503000;stop-opacity:1"
         offset="1"
         id="stop6830" />
    </linearGradient>
    <linearGradient
       inkscape:collect="always"
       xlink:href="#linearGradient6826"
       id="linearGradient6979"
       gradientUnits="userSpaceOnUse"
       gradientTransform="matrix(0.6925142,0,0,0.6497078,-69.867736,0.633036)"
       x1="114"
       y1="14"
       x2="108"
       y2="23" />
    <linearGradient
       id="linearGradient1385"
       inkscape:collect="always">
      <stop
         id="stop1387"
         offset="0"
         style="stop-color:#555753" />
      <stop
         id="stop1389"
         offset="1"
         style="stop-color:#babdb6" />
    </linearGradient>
    <linearGradient
       id="linearGradient2510"
       inkscape:collect="always">
      <stop
         id="stop2512"
         offset="0"
         style="stop-color:#888a85" />
      <stop
         id="stop2514"
         offset="1"
         style="stop-color:#2e3436" />
    </linearGradient>
    <linearGradient
       id="linearGradient2829"
       inkscape:collect="always">
      <stop
         id="stop2831"
         offset="0"
         style="stop-color:#babdb6" />
      <stop
         id="stop2833"
         offset="1"
         style="stop-color:#eeeeec" />
    </linearGradient>
    <linearGradient
       inkscape:collect="always"
       id="linearGradient2795">
      <stop
         style="stop-color:#000000;stop-opacity:1;"
         offset="0"
         id="stop2797" />
      <stop
         style="stop-color:#000000;stop-opacity:0;"
         offset="1"
         id="stop2799" />
    </linearGradient>
    <linearGradient
       inkscape:collect="always"
       id="linearGradient2295">
      <stop
         style="stop-color:#ffffff;stop-opacity:1;"
         offset="0"
         id="stop2297" />
      <stop
         style="stop-color:#ffffff;stop-opacity:0;"
         offset="1"
         id="stop2299" />
    </linearGradient>
    <linearGradient
       id="linearGradient4663">
      <stop
         style="stop-color:#000000;stop-opacity:1;"
         offset="0"
         id="stop4665" />
      <stop
         style="stop-color:#2e3436"
         offset="1"
         id="stop4667" />
    </linearGradient>
    <linearGradient
       inkscape:collect="always"
       id="linearGradient4218">
      <stop
         style="stop-color:#ffffff;stop-opacity:1;"
         offset="0"
         id="stop4220" />
      <stop
         style="stop-color:#ffffff;stop-opacity:0;"
         offset="1"
         id="stop4222" />
    </linearGradient>
    <linearGradient
       id="linearGradient4039">
      <stop
         style="stop-color:#f4dbb5;stop-opacity:1;"
         offset="0"
         id="stop4041" />
      <stop
         style="stop-color:#f57900"
         offset="1"
         id="stop4043" />
    </linearGradient>
    <linearGradient
       inkscape:collect="always"
       id="linearGradient2207">
      <stop
         style="stop-color:#ffffff;stop-opacity:1;"
         offset="0"
         id="stop2209" />
      <stop
         style="stop-color:#ffffff;stop-opacity:0;"
         offset="1"
         id="stop2211" />
    </linearGradient>
    <linearGradient
       inkscape:collect="always"
       xlink:href="#linearGradient4218"
       id="linearGradient1503"
       gradientUnits="userSpaceOnUse"
       gradientTransform="matrix(0.386175,0,0,0.540837,-71.64416,-15.76166)"
       x1="207.71683"
       y1="62"
       x2="207.71683"
       y2="56.877113" />
    <linearGradient
       inkscape:collect="always"
       xlink:href="#linearGradient2829"
       id="linearGradient1505"
       gradientUnits="userSpaceOnUse"
       gradientTransform="matrix(0.468101,0,0,0.464498,-89.17665,-11.74362)"
       x1="198.25261"
       y1="29.854406"
       x2="218.1942"
       y2="54.870758" />
    <linearGradient
       inkscape:collect="always"
       xlink:href="#linearGradient2207"
       id="linearGradient1507"
       gradientUnits="userSpaceOnUse"
       gradientTransform="matrix(0.441847,0,0,0.425078,-83.55033,-10.12941)"
       x1="192.61819"
       y1="44.316147"
       x2="192.61819"
       y2="69.140022" />
    <radialGradient
       inkscape:collect="always"
       xlink:href="#linearGradient4039"
       id="radialGradient1509"
       gradientUnits="userSpaceOnUse"
       gradientTransform="matrix(0.558859,2.466131e-5,0,0.280412,-108.5899,-4.938769)"
       cx="213.99513"
       cy="44.082935"
       fx="213.99513"
       fy="44.082935"
       r="21.006207" />
    <radialGradient
       inkscape:collect="always"
       xlink:href="#linearGradient2295"
       id="radialGradient1511"
       gradientUnits="userSpaceOnUse"
       gradientTransform="matrix(1.024502,0.186224,-5.150105e-2,0.26874,-197.8285,-39.02619)"
       cx="197.48041"
       cy="16.234577"
       fx="197.48041"
       fy="16.234577"
       r="20" />
    <linearGradient
       inkscape:collect="always"
       xlink:href="#linearGradient2829"
       id="linearGradient4242"
       gradientUnits="userSpaceOnUse"
       gradientTransform="matrix(0.447431,0,0,0.569377,0.276285,-3.84675)"
       x1="42.75"
       y1="37"
       x2="5"
       y2="43.125" />
    <linearGradient
       inkscape:collect="always"
       xlink:href="#linearGradient1385"
       id="linearGradient4244"
       gradientUnits="userSpaceOnUse"
       x1="22.029285"
       y1="21.055552"
       x2="22.029285"
       y2="17.049946" />
    <linearGradient
       inkscape:collect="always"
       xlink:href="#linearGradient4663"
       id="linearGradient4246"
       gradientUnits="userSpaceOnUse"
       gradientTransform="matrix(0.401135,0,0,0.515243,-74.85005,-15.74062)"
       x1="196.88957"
       y1="63.996719"
       x2="196.88957"
       y2="67.691895" />
    <radialGradient
       inkscape:collect="always"
       xlink:href="#linearGradient2510"
       id="radialGradient4248"
       gradientUnits="userSpaceOnUse"
       gradientTransform="matrix(1,0,0,0.214371,0,14.53414)"
       cx="11"
       cy="18.5"
       fx="11"
       fy="18.5"
       r="7.0007591" />
    <radialGradient
       inkscape:collect="always"
       xlink:href="#linearGradient2795"
       id="radialGradient1635"
       gradientUnits="userSpaceOnUse"
       gradientTransform="matrix(1.190333,-1.00794e-16,-1.973304e-7,0.297873,-4.524361,28.9735)"
       cx="23.96336"
       cy="40.374615"
       fx="23.96336"
       fy="40.374615"
       r="23.5" />
    <radialGradient
       inkscape:collect="always"
       xlink:href="#linearGradient4039"
       id="radialGradient6379"
       gradientUnits="userSpaceOnUse"
       gradientTransform="matrix(0.558859,2.466131e-5,0,0.280412,-108.5899,-4.938769)"
       cx="213.99513"
       cy="44.082935"
       fx="213.99513"
       fy="44.082935"
       r="21.006207" />
    <radialGradient
       inkscape:collect="always"
       xlink:href="#linearGradient2295"
       id="radialGradient6381"
       gradientUnits="userSpaceOnUse"
       gradientTransform="matrix(1.024502,0.186224,-5.150105e-2,0.26874,-197.8285,-39.02619)"
       cx="197.48041"
       cy="16.234577"
       fx="197.48041"
       fy="16.234577"
       r="20" />
    <radialGradient
       inkscape:collect="always"
       xlink:href="#linearGradient2295"
       id="radialGradient6384"
       gradientUnits="userSpaceOnUse"
       gradientTransform="matrix(0.8937625,0.4705484,-0.2057395,0.3573989,-168.76554,-94.444426)"
       cx="197.70364"
       cy="14.180145"
       fx="197.70364"
       fy="14.180145"
       r="20" />
    <linearGradient
       inkscape:collect="always"
       xlink:href="#linearGradient6826"
       id="linearGradient6394"
       gradientUnits="userSpaceOnUse"
       gradientTransform="matrix(0.4364547,0,0,0.4014818,-43.11514,-0.5188434)"
       x1="114"
       y1="14"
       x2="108"
       y2="23" />
    <radialGradient
       inkscape:collect="always"
       xlink:href="#linearGradient6764"
       id="radialGradient6396"
       gradientUnits="userSpaceOnUse"
       gradientTransform="matrix(0.7688123,-0.2212499,4.5210719e-2,0.136181,-77.830759,32.920724)"
       cx="115.24761"
       cy="34.711994"
       fx="115.24761"
       fy="34.711994"
       r="20.03125" />
    <radialGradient
       inkscape:collect="always"
       xlink:href="#linearGradient6764"
       id="radialGradient6398"
       gradientUnits="userSpaceOnUse"
       gradientTransform="matrix(0.7263072,-0.2910723,4.4428897e-2,9.7241055e-2,-74.045345,43.059049)"
       cx="118"
       cy="9.6084557"
       fx="118"
       fy="9.6084557"
       r="20.03125" />
    <radialGradient
       inkscape:collect="always"
       xlink:href="#linearGradient6782"
       id="radialGradient6400"
       gradientUnits="userSpaceOnUse"
       gradientTransform="matrix(0.7416099,-0.2105714,3.0257374e-2,0.1013659,-76.531343,37.063807)"
       cx="123.70635"
       cy="8.0600147"
       fx="123.70635"
       fy="8.0600147"
       r="19" />
    <radialGradient
       inkscape:collect="always"
       xlink:href="#linearGradient6794"
       id="radialGradient6402"
       gradientUnits="userSpaceOnUse"
       gradientTransform="matrix(0.8024733,-9.6985586e-2,7.9564933e-3,5.7771304e-2,-82.964563,22.117893)"
       cx="117.53682"
       cy="14.015168"
       fx="117.53682"
       fy="14.015168"
       r="19" />
    <radialGradient
       inkscape:collect="always"
       xlink:href="#linearGradient6808"
       id="radialGradient6404"
       gradientUnits="userSpaceOnUse"
       gradientTransform="matrix(0.6883822,0,0,0.3561255,-34.976518,6.5705966)"
       cx="82"
       cy="23.098652"
       fx="82"
       fy="23.098652"
       r="11.46875" />
    <radialGradient
       inkscape:collect="always"
       xlink:href="#linearGradient6818"
       id="radialGradient6406"
       gradientUnits="userSpaceOnUse"
       gradientTransform="matrix(0.6999127,0,0,0.5556745,-70.77929,1.7185232)"
       cx="110.5"
       cy="12.5"
       fx="110.5"
       fy="12.5"
       r="6" />
    <radialGradient
       inkscape:collect="always"
       xlink:href="#linearGradient6818"
       id="radialGradient6409"
       gradientUnits="userSpaceOnUse"
       gradientTransform="matrix(0.4411176,0,0,0.3433747,-43.689644,0.1519248)"
       cx="110.5"
       cy="12.5"
       fx="110.5"
       fy="12.5"
       r="6" />
    <radialGradient
       inkscape:collect="always"
       xlink:href="#linearGradient6808"
       id="radialGradient6412"
       gradientUnits="userSpaceOnUse"
       gradientTransform="matrix(0.4253093,0,0,0.2107816,-20.527184,3.2352252)"
       cx="82"
       cy="23.098652"
       fx="82"
       fy="23.098652"
       r="11.46875" />
    <radialGradient
       inkscape:collect="always"
       xlink:href="#linearGradient6794"
       id="radialGradient6415"
       gradientUnits="userSpaceOnUse"
       gradientTransform="matrix(0.4938297,-5.7575953e-2,4.8963037e-3,3.4296209e-2,-49.901271,12.568463)"
       cx="117.53682"
       cy="14.015168"
       fx="117.53682"
       fy="14.015168"
       r="19" />
    <radialGradient
       inkscape:collect="always"
       xlink:href="#linearGradient6782"
       id="radialGradient6418"
       gradientUnits="userSpaceOnUse"
       gradientTransform="matrix(0.4567226,-0.1301209,1.8634092e-2,6.2638257e-2,-45.991784,21.993264)"
       cx="123.70635"
       cy="8.0600147"
       fx="123.70635"
       fy="8.0600147"
       r="19" />
    <radialGradient
       inkscape:collect="always"
       xlink:href="#linearGradient6764"
       id="radialGradient6421"
       gradientUnits="userSpaceOnUse"
       gradientTransform="matrix(0.4469583,-0.1741651,2.734086e-2,5.8184845e-2,-44.412521,25.174533)"
       cx="118"
       cy="9.6084557"
       fx="118"
       fy="9.6084557"
       r="20.03125" />
    <radialGradient
       inkscape:collect="always"
       xlink:href="#linearGradient6764"
       id="radialGradient6424"
       gradientUnits="userSpaceOnUse"
       gradientTransform="matrix(0.4731153,-0.1323864,2.7821981e-2,8.1484825e-2,-46.742007,19.108198)"
       cx="115.24761"
       cy="34.711994"
       fx="115.24761"
       fy="34.711994"
       r="20.03125" />
    <radialGradient
       inkscape:collect="always"
       xlink:href="#linearGradient2295"
       id="radialGradient6435"
       gradientUnits="userSpaceOnUse"
       gradientTransform="matrix(1.024502,0.2234688,-5.150105e-2,0.322488,-197.8285,-47.431428)"
       cx="197.48041"
       cy="16.234577"
       fx="197.48041"
       fy="16.234577"
       r="20" />
    <radialGradient
       inkscape:collect="always"
       xlink:href="#linearGradient6764"
       id="radialGradient7014"
       gradientUnits="userSpaceOnUse"
       gradientTransform="matrix(0.4469583,-0.1741651,2.734086e-2,5.8184845e-2,-44.412521,25.174533)"
       cx="118"
       cy="9.6084557"
       fx="118"
       fy="9.6084557"
       r="20.03125" />
    <radialGradient
       inkscape:collect="always"
       xlink:href="#linearGradient6782"
       id="radialGradient7016"
       gradientUnits="userSpaceOnUse"
       gradientTransform="matrix(0.4567226,-0.1301209,1.8634092e-2,6.2638257e-2,-45.991784,21.993264)"
       cx="123.70635"
       cy="8.0600147"
       fx="123.70635"
       fy="8.0600147"
       r="19" />
    <radialGradient
       inkscape:collect="always"
       xlink:href="#linearGradient6794"
       id="radialGradient7018"
       gradientUnits="userSpaceOnUse"
       gradientTransform="matrix(0.4938297,-5.7575953e-2,4.8963037e-3,3.4296209e-2,-49.901271,12.568463)"
       cx="117.53682"
       cy="14.015168"
       fx="117.53682"
       fy="14.015168"
       r="19" />
    <radialGradient
       inkscape:collect="always"
       xlink:href="#linearGradient6808"
       id="radialGradient7020"
       gradientUnits="userSpaceOnUse"
       gradientTransform="matrix(0.4253093,0,0,0.2107816,-20.527184,3.2352252)"
       cx="82"
       cy="23.098652"
       fx="82"
       fy="23.098652"
       r="11.46875" />
    <radialGradient
       inkscape:collect="always"
       xlink:href="#linearGradient6818"
       id="radialGradient7022"
       gradientUnits="userSpaceOnUse"
       gradientTransform="matrix(0.4411176,0,0,0.3433747,-43.689644,0.1519248)"
       cx="110.5"
       cy="12.5"
       fx="110.5"
       fy="12.5"
       r="6" />
    <radialGradient
       inkscape:collect="always"
       xlink:href="#linearGradient6818"
       id="radialGradient7025"
       gradientUnits="userSpaceOnUse"
       gradientTransform="matrix(0.4411176,0,0,0.3433747,-43.689644,0.1519248)"
       cx="110.5"
       cy="12.5"
       fx="110.5"
       fy="12.5"
       r="6" />
    <radialGradient
       inkscape:collect="always"
       xlink:href="#linearGradient6808"
       id="radialGradient7028"
       gradientUnits="userSpaceOnUse"
       gradientTransform="matrix(0.4253093,0,0,0.2107816,-20.527184,3.2352252)"
       cx="82"
       cy="23.098652"
       fx="82"
       fy="23.098652"
       r="11.46875" />
    <radialGradient
       inkscape:collect="always"
       xlink:href="#linearGradient6794"
       id="radialGradient7031"
       gradientUnits="userSpaceOnUse"
       gradientTransform="matrix(0.4938297,-5.7575953e-2,4.8963037e-3,3.4296209e-2,-49.901271,12.568463)"
       cx="117.53682"
       cy="14.015168"
       fx="117.53682"
       fy="14.015168"
       r="19" />
    <radialGradient
       inkscape:collect="always"
       xlink:href="#linearGradient6782"
       id="radialGradient7034"
       gradientUnits="userSpaceOnUse"
       gradientTransform="matrix(0.4567226,-0.1301209,1.8634092e-2,6.2638257e-2,-45.991784,21.993264)"
       cx="123.70635"
       cy="8.0600147"
       fx="123.70635"
       fy="8.0600147"
       r="19" />
    <radialGradient
       inkscape:collect="always"
       xlink:href="#linearGradient6764"
       id="radialGradient7037"
       gradientUnits="userSpaceOnUse"
       gradientTransform="matrix(0.4469583,-0.1741651,2.734086e-2,5.8184845e-2,-44.412521,25.174533)"
       cx="118"
       cy="9.6084557"
       fx="118"
       fy="9.6084557"
       r="20.03125" />
  </defs>
  <sodipodi:namedview
     id="base"
     pagecolor="#ffffff"
     bordercolor="#666666"
     borderopacity="1"
     inkscape:pageopacity="0.0"
     inkscape:pageshadow="2"
     inkscape:zoom="1"
     inkscape:cx="15.434333"
     inkscape:cy="13.424571"
     inkscape:document-units="px"
     inkscape:current-layer="layer2"
     showgrid="false"
     stroke="#888a85"
     fill="#babdb6"
     inkscape:grid-points="true"
     inkscape:grid-bbox="true"
     inkscape:window-width="1085"
     inkscape:window-height="760"
     inkscape:window-x="5"
     inkscape:window-y="24"
     gridspacingx="0.5px"
     gridspacingy="0.5px"
     gridempspacing="2"
     showguides="false"
     inkscape:guide-bbox="true"
     inkscape:showpageshadow="false"
     showborder="false"
     inkscape:snap-nodes="false"
     inkscape:snap-bbox="true"
     gridtolerance="10000">
    <sodipodi:guide
       orientation="vertical"
       position="24.010638"
       id="guide2292" />
    <sodipodi:guide
       orientation="horizontal"
       position="7"
       id="guide2294" />
    <inkscape:grid
       type="xygrid"
       id="grid6373" />
  </sodipodi:namedview>
  <metadata
     id="metadata7">
    <rdf:RDF>
      <cc:Work
         rdf:about="">
        <dc:format>image/svg+xml</dc:format>
        <dc:type
           rdf:resource="http://purl.org/dc/dcmitype/StillImage" />
      </cc:Work>
    </rdf:RDF>
  </metadata>
  <g
     inkscape:groupmode="layer"
     id="layer1"
     inkscape:label="Shadow" />
  <g
     inkscape:groupmode="layer"
     id="layer2"
     inkscape:label="Lavoro"
     style="display:inline">
    <g
       id="g2611"
       inkscape:label="Shadow"
       transform="translate(0,15.06603)" />
    <g
       id="g2613"
       inkscape:label="Lavoro"
       style="display:inline"
       transform="translate(0,15.06603)" />
    <rect
       style="opacity:1;color:#000000;fill:#62645f;fill-opacity:1;fill-rule:nonzero;stroke:#585a55;stroke-width:0.99999905;stroke-linecap:round;stroke-linejoin:miter;marker:none;marker-start:none;marker-mid:none;marker-end:none;stroke-miterlimit:4;stroke-dasharray:none;stroke-dashoffset:0;stroke-opacity:1;visibility:visible;display:inline;overflow:visible"
       id="rect1428"
       width="7.0145669"
       height="3.9293196"
       x="7.4910188"
       y="13.570681" />
    <rect
       style="opacity:1;color:#000000;fill:none;fill-opacity:1;fill-rule:nonzero;stroke:url(#linearGradient1503);stroke-width:1.00000083;stroke-linecap:round;stroke-linejoin:miter;marker:none;marker-start:none;marker-mid:none;marker-end:none;stroke-miterlimit:4;stroke-dasharray:none;stroke-dashoffset:0;stroke-opacity:1;visibility:visible;display:inline;overflow:visible"
       id="rect1430"
       width="5.0208011"
       height="3.7485573"
       x="8.4866991"
       y="13.751442" />
    <rect
       style="opacity:1;color:#000000;fill:url(#linearGradient1505);fill-opacity:1;fill-rule:nonzero;stroke:#888a85;stroke-width:0.99999905;stroke-linecap:round;stroke-linejoin:round;marker:none;marker-start:none;marker-mid:none;marker-end:none;stroke-miterlimit:4;stroke-dasharray:none;stroke-dashoffset:0;stroke-opacity:1;visibility:visible;display:inline;overflow:visible"
       id="rect1432"
       width="21.006041"
       height="13.963011"
       x="0.4939599"
       y="0.53698969"
       rx="1.3500546"
       ry="1.3500546" />
    <rect
       style="opacity:0.93103448;color:#000000;fill:none;fill-opacity:1;fill-rule:nonzero;stroke:url(#linearGradient1507);stroke-width:1.00000036;stroke-linecap:round;stroke-linejoin:miter;marker:none;marker-start:none;marker-mid:none;marker-end:none;stroke-miterlimit:4;stroke-dasharray:none;stroke-dashoffset:0;stroke-opacity:1;visibility:visible;display:inline;overflow:visible"
       id="rect1434"
       width="19.00699"
       height="11.953147"
       x="1.5000002"
       y="1.5468584"
       rx="0.38676941"
       ry="0.3868677" />
    <path
       sodipodi:type="arc"
       style="opacity:0.80392157;color:#000000;fill:#555753;fill-opacity:1;fill-rule:nonzero;stroke:none;stroke-width:1.10000002;stroke-linecap:square;stroke-linejoin:miter;marker:none;marker-start:none;marker-mid:none;marker-end:none;stroke-miterlimit:4;stroke-dasharray:none;stroke-dashoffset:0;stroke-opacity:1;visibility:visible;display:inline;overflow:visible"
       id="path1446"
       sodipodi:cx="194.25"
       sodipodi:cy="51.25"
       sodipodi:rx="0.25"
       sodipodi:ry="0.25"
       d="M 194.5 51.25 A 0.25 0.25 0 1 1  194,51.25 A 0.25 0.25 0 1 1  194.5 51.25 z"
       transform="matrix(2.000052,0,0,1.99997,-386.0101,-89.99846)" />
    <path
       sodipodi:type="arc"
       style="opacity:0.80392157;color:#000000;fill:#555753;fill-opacity:1;fill-rule:nonzero;stroke:none;stroke-width:1.10000002;stroke-linecap:square;stroke-linejoin:miter;marker:none;marker-start:none;marker-mid:none;marker-end:none;stroke-miterlimit:4;stroke-dasharray:none;stroke-dashoffset:0;stroke-opacity:1;visibility:visible;display:inline;overflow:visible"
       id="path1450"
       sodipodi:cx="194.25"
       sodipodi:cy="51.25"
       sodipodi:rx="0.25"
       sodipodi:ry="0.25"
       d="M 194.5 51.25 A 0.25 0.25 0 1 1  194,51.25 A 0.25 0.25 0 1 1  194.5 51.25 z"
       transform="matrix(2.000052,0,0,1.99997,-371.0101,-89.99846)" />
    <path
       sodipodi:type="arc"
       style="opacity:0.80392157;color:#000000;fill:#555753;fill-opacity:1;fill-rule:nonzero;stroke:none;stroke-width:1.10000002;stroke-linecap:square;stroke-linejoin:miter;marker:none;marker-start:none;marker-mid:none;marker-end:none;stroke-miterlimit:4;stroke-dasharray:none;stroke-dashoffset:0;stroke-opacity:1;visibility:visible;display:inline;overflow:visible"
       id="path1454"
       sodipodi:cx="194.25"
       sodipodi:cy="51.25"
       sodipodi:rx="0.25"
       sodipodi:ry="0.25"
       d="M 194.5 51.25 A 0.25 0.25 0 1 1  194,51.25 A 0.25 0.25 0 1 1  194.5 51.25 z"
       transform="matrix(2.000052,0,0,1.99997,-369.0101,-89.99846)" />
    <path
       sodipodi:type="arc"
       style="opacity:0.80392157;color:#000000;fill:#555753;fill-opacity:1;fill-rule:nonzero;stroke:none;stroke-width:1.10000002;stroke-linecap:square;stroke-linejoin:miter;marker:none;marker-start:none;marker-mid:none;marker-end:none;stroke-miterlimit:4;stroke-dasharray:none;stroke-dashoffset:0;stroke-opacity:1;visibility:visible;display:inline;overflow:visible"
       id="path1458"
       sodipodi:cx="194.25"
       sodipodi:cy="51.25"
       sodipodi:rx="0.25"
       sodipodi:ry="0.25"
       d="M 194.5 51.25 A 0.25 0.25 0 1 1  194,51.25 A 0.25 0.25 0 1 1  194.5 51.25 z"
       transform="matrix(2.000052,0,0,1.99997,-384.0101,-89.99846)" />
    <path
       style="opacity:0.9;fill:none;fill-opacity:1;fill-rule:evenodd;stroke:#888a85;stroke-width:1;stroke-linecap:round;stroke-linejoin:miter;stroke-miterlimit:4;stroke-dasharray:none;stroke-opacity:1;display:inline"
       d="M 13.5,11.5 L 13.5,12.5"
       id="path1483"
       sodipodi:nodetypes="cc" />
    <path
       style="opacity:0.9;fill:none;fill-opacity:1;fill-rule:evenodd;stroke:#888a85;stroke-width:1.00000024;stroke-linecap:round;stroke-linejoin:miter;stroke-miterlimit:4;stroke-dasharray:none;stroke-opacity:1;display:inline"
       d="M 11.5,11.5 L 11.5,12.5"
       id="path1485"
       sodipodi:nodetypes="cc" />
    <path
       style="opacity:0.9;fill:#babdb6;fill-opacity:1;fill-rule:evenodd;stroke:#f57900;stroke-width:1;stroke-linecap:round;stroke-linejoin:miter;stroke-miterlimit:4;stroke-dasharray:none;stroke-opacity:1;display:inline"
       d="M 15.5,11.5 L 15.5,12.5"
       id="path1487"
       sodipodi:nodetypes="cc" />
    <g
       id="g4237"
       transform="translate(-2.9286e-2,-1)">
      <path
         style="color:#000000;fill:url(#linearGradient4242);fill-opacity:1;fill-rule:nonzero;stroke:url(#linearGradient4244);stroke-width:0.9;stroke-linecap:round;stroke-linejoin:round;marker:none;marker-start:none;marker-mid:none;marker-end:none;stroke-miterlimit:4;stroke-dashoffset:0;stroke-opacity:1;visibility:visible;display:inline;overflow:visible;stroke-dasharray:none"
         d="M 1.529286,17.5 L 20.529286,17.5 L 21.558572,21.490574 L 0.529286,21.5 L 1.529286,17.5 z "
         id="path2622"
         sodipodi:nodetypes="ccccc" />
      <path
         style="color:#000000;fill:url(#linearGradient4246);fill-opacity:1;fill-rule:nonzero;stroke:#000000;stroke-width:1.00000095;stroke-linecap:round;stroke-linejoin:miter;marker:none;marker-start:none;marker-mid:none;marker-end:none;stroke-miterlimit:4;stroke-dashoffset:0;stroke-opacity:1;visibility:visible;display:inline;overflow:visible"
         d="M 3.529286,17.5 L 18.529286,17.5 L 19.029286,19.5 L 3.029286,19.5 L 3.529286,17.5 z "
         id="path2626"
         sodipodi:nodetypes="ccccc" />
      <path
         id="path2414"
         d="M 5.40625,17 C 5.3899805,17.003332 5.3594033,17.026378 5.34375,17.03125 C 5.3207794,17.039666 5.2712534,17.05095 5.25,17.0625 C 5.1812732,17.104274 5.1042737,17.181273 5.0625,17.25 C 5.0509497,17.271253 5.0396659,17.320779 5.03125,17.34375 C 5.0239419,17.36723 5.0037958,17.412681 5,17.4375 C 4.998292,17.454302 5,17.48275 5,17.5 C 5,17.51725 4.998292,17.545698 5,17.5625 C 5.0037958,17.587319 5.0239419,17.63277 5.03125,17.65625 C 5.0396659,17.679221 5.0509497,17.728747 5.0625,17.75 C 5.1042737,17.818727 5.1812732,17.895726 5.25,17.9375 C 5.2712534,17.94905 5.3207794,17.960334 5.34375,17.96875 C 5.36723,17.976058 5.4126808,17.996204 5.4375,18 C 5.4543018,18.001708 5.48275,18 5.5,18 C 5.51725,18 5.5456982,18.001708 5.5625,18 C 5.5873192,17.996204 5.63277,17.976058 5.65625,17.96875 C 5.6792206,17.960334 5.7287466,17.94905 5.75,17.9375 C 5.8187268,17.895726 5.8957263,17.818727 5.9375,17.75 C 5.9490503,17.728747 5.9603341,17.679221 5.96875,17.65625 C 5.9760581,17.63277 5.9962042,17.587319 6,17.5625 C 6.001708,17.545698 6,17.51725 6,17.5 C 6,17.48275 6.001708,17.454302 6,17.4375 C 5.9962042,17.412681 5.9760581,17.36723 5.96875,17.34375 C 5.9603341,17.320779 5.9490503,17.271253 5.9375,17.25 C 5.8957263,17.181273 5.8187268,17.104274 5.75,17.0625 C 5.7287466,17.05095 5.6792206,17.039666 5.65625,17.03125 C 5.63277,17.023942 5.5873192,17.003796 5.5625,17 C 5.5456982,16.998292 5.51725,17 5.5,17 C 5.48275,17 5.4543018,16.998292 5.4375,17 C 5.4292269,17.001265 5.4143848,16.998334 5.40625,17 z M 7.40625,17 C 7.3899805,17.003332 7.3594033,17.026378 7.34375,17.03125 C 7.3207794,17.039666 7.2712534,17.05095 7.25,17.0625 C 7.1812732,17.104274 7.1042737,17.181273 7.0625,17.25 C 7.0509497,17.271253 7.0396659,17.320779 7.03125,17.34375 C 7.0239419,17.36723 7.0037958,17.412681 7,17.4375 C 6.998292,17.454302 7,17.48275 7,17.5 C 7,17.51725 6.998292,17.545698 7,17.5625 C 7.0037958,17.587319 7.0239419,17.63277 7.03125,17.65625 C 7.0396659,17.679221 7.0509497,17.728747 7.0625,17.75 C 7.1042737,17.818727 7.1812732,17.895726 7.25,17.9375 C 7.2712534,17.94905 7.3207794,17.960334 7.34375,17.96875 C 7.36723,17.976058 7.4126808,17.996204 7.4375,18 C 7.4543018,18.001708 7.48275,18 7.5,18 C 7.51725,18 7.5456982,18.001708 7.5625,18 C 7.5873192,17.996204 7.63277,17.976058 7.65625,17.96875 C 7.6792206,17.960334 7.7287466,17.94905 7.75,17.9375 C 7.8187268,17.895726 7.8957263,17.818727 7.9375,17.75 C 7.9490503,17.728747 7.9603341,17.679221 7.96875,17.65625 C 7.9760581,17.63277 7.9962042,17.587319 8,17.5625 C 8.001708,17.545698 8,17.51725 8,17.5 C 8,17.48275 8.001708,17.454302 8,17.4375 C 7.9962042,17.412681 7.9760581,17.36723 7.96875,17.34375 C 7.9603341,17.320779 7.9490503,17.271253 7.9375,17.25 C 7.8957263,17.181273 7.8187268,17.104274 7.75,17.0625 C 7.7287466,17.05095 7.6792206,17.039666 7.65625,17.03125 C 7.63277,17.023942 7.5873192,17.003796 7.5625,17 C 7.5456982,16.998292 7.51725,17 7.5,17 C 7.48275,17 7.4543018,16.998292 7.4375,17 C 7.4292269,17.001265 7.4143848,16.998334 7.40625,17 z M 9.40625,17 C 9.3899805,17.003332 9.3594033,17.026378 9.34375,17.03125 C 9.3207794,17.039666 9.2712534,17.05095 9.25,17.0625 C 9.1812732,17.104274 9.1042737,17.181273 9.0625,17.25 C 9.0509497,17.271253 9.0396659,17.320779 9.03125,17.34375 C 9.0239419,17.36723 9.0037958,17.412681 9,17.4375 C 8.998292,17.454302 9,17.48275 9,17.5 C 9,17.51725 8.998292,17.545698 9,17.5625 C 9.0037958,17.587319 9.0239419,17.63277 9.03125,17.65625 C 9.0396659,17.679221 9.0509497,17.728747 9.0625,17.75 C 9.1042737,17.818727 9.1812732,17.895726 9.25,17.9375 C 9.2712534,17.94905 9.3207794,17.960334 9.34375,17.96875 C 9.36723,17.976058 9.4126808,17.996204 9.4375,18 C 9.4543018,18.001708 9.48275,18 9.5,18 C 9.51725,18 9.5456982,18.001708 9.5625,18 C 9.5873192,17.996204 9.63277,17.976058 9.65625,17.96875 C 9.6792206,17.960334 9.7287466,17.94905 9.75,17.9375 C 9.8187268,17.895726 9.8957263,17.818727 9.9375,17.75 C 9.9490503,17.728747 9.9603341,17.679221 9.96875,17.65625 C 9.9760581,17.63277 9.9962042,17.587319 10,17.5625 C 10.001708,17.545698 10,17.51725 10,17.5 C 10,17.48275 10.001708,17.454302 10,17.4375 C 9.9962042,17.412681 9.9760581,17.36723 9.96875,17.34375 C 9.9603341,17.320779 9.9490503,17.271253 9.9375,17.25 C 9.8957263,17.181273 9.8187268,17.104274 9.75,17.0625 C 9.7287466,17.05095 9.6792206,17.039666 9.65625,17.03125 C 9.63277,17.023942 9.5873192,17.003796 9.5625,17 C 9.5456982,16.998292 9.51725,17 9.5,17 C 9.48275,17 9.4543018,16.998292 9.4375,17 C 9.4292269,17.001265 9.4143848,16.998334 9.40625,17 z M 11.40625,17 C 11.38998,17.003332 11.359403,17.026378 11.34375,17.03125 C 11.320779,17.039666 11.271253,17.05095 11.25,17.0625 C 11.181273,17.104274 11.104274,17.181273 11.0625,17.25 C 11.05095,17.271253 11.039666,17.320779 11.03125,17.34375 C 11.023942,17.36723 11.003796,17.412681 11,17.4375 C 10.998292,17.454302 11,17.48275 11,17.5 C 11,17.51725 10.998292,17.545698 11,17.5625 C 11.003796,17.587319 11.023942,17.63277 11.03125,17.65625 C 11.039666,17.679221 11.05095,17.728747 11.0625,17.75 C 11.104274,17.818727 11.181273,17.895726 11.25,17.9375 C 11.271253,17.94905 11.320779,17.960334 11.34375,17.96875 C 11.36723,17.976058 11.412681,17.996204 11.4375,18 C 11.454302,18.001708 11.48275,18 11.5,18 C 11.51725,18 11.545698,18.001708 11.5625,18 C 11.587319,17.996204 11.63277,17.976058 11.65625,17.96875 C 11.679221,17.960334 11.728747,17.94905 11.75,17.9375 C 11.818727,17.895726 11.895726,17.818727 11.9375,17.75 C 11.94905,17.728747 11.960334,17.679221 11.96875,17.65625 C 11.976058,17.63277 11.996204,17.587319 12,17.5625 C 12.001708,17.545698 12,17.51725 12,17.5 C 12,17.48275 12.001708,17.454302 12,17.4375 C 11.996204,17.412681 11.976058,17.36723 11.96875,17.34375 C 11.960334,17.320779 11.94905,17.271253 11.9375,17.25 C 11.895726,17.181273 11.818727,17.104274 11.75,17.0625 C 11.728747,17.05095 11.679221,17.039666 11.65625,17.03125 C 11.63277,17.023942 11.587319,17.003796 11.5625,17 C 11.545698,16.998292 11.51725,17 11.5,17 C 11.48275,17 11.454302,16.998292 11.4375,17 C 11.429227,17.001265 11.414385,16.998334 11.40625,17 z M 13.40625,17 C 13.38998,17.003332 13.359403,17.026378 13.34375,17.03125 C 13.320779,17.039666 13.271253,17.05095 13.25,17.0625 C 13.181273,17.104274 13.104274,17.181273 13.0625,17.25 C 13.05095,17.271253 13.039666,17.320779 13.03125,17.34375 C 13.023942,17.36723 13.003796,17.412681 13,17.4375 C 12.998292,17.454302 13,17.48275 13,17.5 C 13,17.51725 12.998292,17.545698 13,17.5625 C 13.003796,17.587319 13.023942,17.63277 13.03125,17.65625 C 13.039666,17.679221 13.05095,17.728747 13.0625,17.75 C 13.104274,17.818727 13.181273,17.895726 13.25,17.9375 C 13.271253,17.94905 13.320779,17.960334 13.34375,17.96875 C 13.36723,17.976058 13.412681,17.996204 13.4375,18 C 13.454302,18.001708 13.48275,18 13.5,18 C 13.51725,18 13.545698,18.001708 13.5625,18 C 13.587319,17.996204 13.63277,17.976058 13.65625,17.96875 C 13.679221,17.960334 13.728747,17.94905 13.75,17.9375 C 13.818727,17.895726 13.895726,17.818727 13.9375,17.75 C 13.94905,17.728747 13.960334,17.679221 13.96875,17.65625 C 13.976058,17.63277 13.996204,17.587319 14,17.5625 C 14.001708,17.545698 14,17.51725 14,17.5 C 14,17.48275 14.001708,17.454302 14,17.4375 C 13.996204,17.412681 13.976058,17.36723 13.96875,17.34375 C 13.960334,17.320779 13.94905,17.271253 13.9375,17.25 C 13.895726,17.181273 13.818727,17.104274 13.75,17.0625 C 13.728747,17.05095 13.679221,17.039666 13.65625,17.03125 C 13.63277,17.023942 13.587319,17.003796 13.5625,17 C 13.545698,16.998292 13.51725,17 13.5,17 C 13.48275,17 13.454302,16.998292 13.4375,17 C 13.429227,17.001265 13.414385,16.998334 13.40625,17 z M 15.40625,17 C 15.38998,17.003332 15.359403,17.026378 15.34375,17.03125 C 15.320779,17.039666 15.271253,17.05095 15.25,17.0625 C 15.181273,17.104274 15.104274,17.181273 15.0625,17.25 C 15.05095,17.271253 15.039666,17.320779 15.03125,17.34375 C 15.023942,17.36723 15.003796,17.412681 15,17.4375 C 14.998292,17.454302 15,17.48275 15,17.5 C 15,17.51725 14.998292,17.545698 15,17.5625 C 15.003796,17.587319 15.023942,17.63277 15.03125,17.65625 C 15.039666,17.679221 15.05095,17.728747 15.0625,17.75 C 15.104274,17.818727 15.181273,17.895726 15.25,17.9375 C 15.271253,17.94905 15.320779,17.960334 15.34375,17.96875 C 15.36723,17.976058 15.412681,17.996204 15.4375,18 C 15.454302,18.001708 15.48275,18 15.5,18 C 15.51725,18 15.545698,18.001708 15.5625,18 C 15.587319,17.996204 15.63277,17.976058 15.65625,17.96875 C 15.679221,17.960334 15.728747,17.94905 15.75,17.9375 C 15.818727,17.895726 15.895726,17.818727 15.9375,17.75 C 15.94905,17.728747 15.960334,17.679221 15.96875,17.65625 C 15.976058,17.63277 15.996204,17.587319 16,17.5625 C 16.001708,17.545698 16,17.51725 16,17.5 C 16,17.48275 16.001708,17.454302 16,17.4375 C 15.996204,17.412681 15.976058,17.36723 15.96875,17.34375 C 15.960334,17.320779 15.94905,17.271253 15.9375,17.25 C 15.895726,17.181273 15.818727,17.104274 15.75,17.0625 C 15.728747,17.05095 15.679221,17.039666 15.65625,17.03125 C 15.63277,17.023942 15.587319,17.003796 15.5625,17 C 15.545698,16.998292 15.51725,17 15.5,17 C 15.48275,17 15.454302,16.998292 15.4375,17 C 15.429227,17.001265 15.414385,16.998334 15.40625,17 z M 17.40625,17 C 17.38998,17.003332 17.359403,17.026378 17.34375,17.03125 C 17.320779,17.039666 17.271253,17.05095 17.25,17.0625 C 17.181273,17.104274 17.104274,17.181273 17.0625,17.25 C 17.05095,17.271253 17.039666,17.320779 17.03125,17.34375 C 17.023942,17.36723 17.003796,17.412681 17,17.4375 C 16.998292,17.454302 17,17.48275 17,17.5 C 17,17.51725 16.998292,17.545698 17,17.5625 C 17.003796,17.587319 17.023942,17.63277 17.03125,17.65625 C 17.039666,17.679221 17.05095,17.728747 17.0625,17.75 C 17.104274,17.818727 17.181273,17.895726 17.25,17.9375 C 17.271253,17.94905 17.320779,17.960334 17.34375,17.96875 C 17.36723,17.976058 17.412681,17.996204 17.4375,18 C 17.454302,18.001708 17.48275,18 17.5,18 C 17.51725,18 17.545698,18.001708 17.5625,18 C 17.587319,17.996204 17.63277,17.976058 17.65625,17.96875 C 17.679221,17.960334 17.728747,17.94905 17.75,17.9375 C 17.818727,17.895726 17.895726,17.818727 17.9375,17.75 C 17.94905,17.728747 17.960334,17.679221 17.96875,17.65625 C 17.976058,17.63277 17.996204,17.587319 18,17.5625 C 18.001708,17.545698 18,17.51725 18,17.5 C 18,17.48275 18.001708,17.454302 18,17.4375 C 17.996204,17.412681 17.976058,17.36723 17.96875,17.34375 C 17.960334,17.320779 17.94905,17.271253 17.9375,17.25 C 17.895726,17.181273 17.818727,17.104274 17.75,17.0625 C 17.728747,17.05095 17.679221,17.039666 17.65625,17.03125 C 17.63277,17.023942 17.587319,17.003796 17.5625,17 C 17.545698,16.998292 17.51725,17 17.5,17 C 17.48275,17 17.454302,16.998292 17.4375,17 C 17.429227,17.001265 17.414385,16.998334 17.40625,17 z M 4.40625,18 C 4.3899805,18.003332 4.3594033,18.026378 4.34375,18.03125 C 4.3207794,18.039666 4.2712534,18.05095 4.25,18.0625 C 4.1812732,18.104274 4.1042737,18.181273 4.0625,18.25 C 4.0509497,18.271253 4.0396659,18.320779 4.03125,18.34375 C 4.0239419,18.36723 4.0037958,18.412681 4,18.4375 C 3.998292,18.454302 4,18.48275 4,18.5 C 4,18.51725 3.998292,18.545698 4,18.5625 C 4.0037958,18.587319 4.0239419,18.63277 4.03125,18.65625 C 4.0396659,18.679221 4.0509497,18.728747 4.0625,18.75 C 4.1042737,18.818727 4.1812732,18.895726 4.25,18.9375 C 4.2712534,18.94905 4.3207794,18.960334 4.34375,18.96875 C 4.36723,18.976058 4.4126808,18.996204 4.4375,19 C 4.4543018,19.001708 4.48275,19 4.5,19 C 4.51725,19 4.5456982,19.001708 4.5625,19 C 4.5873192,18.996204 4.63277,18.976058 4.65625,18.96875 C 4.6792206,18.960334 4.7287466,18.94905 4.75,18.9375 C 4.8187268,18.895726 4.8957263,18.818727 4.9375,18.75 C 4.9490503,18.728747 4.9603341,18.679221 4.96875,18.65625 C 4.9760581,18.63277 4.9962042,18.587319 5,18.5625 C 5.001708,18.545698 5,18.51725 5,18.5 C 5,18.48275 5.001708,18.454302 5,18.4375 C 4.9962042,18.412681 4.9760581,18.36723 4.96875,18.34375 C 4.9603341,18.320779 4.9490503,18.271253 4.9375,18.25 C 4.8957263,18.181273 4.8187268,18.104274 4.75,18.0625 C 4.7287466,18.05095 4.6792206,18.039666 4.65625,18.03125 C 4.63277,18.023942 4.5873192,18.003796 4.5625,18 C 4.5456982,17.998292 4.51725,18 4.5,18 C 4.48275,18 4.4543018,17.998292 4.4375,18 C 4.4292269,18.001265 4.4143848,17.998334 4.40625,18 z M 6.40625,18 C 6.3899805,18.003332 6.3594033,18.026378 6.34375,18.03125 C 6.3207794,18.039666 6.2712534,18.05095 6.25,18.0625 C 6.1812732,18.104274 6.1042737,18.181273 6.0625,18.25 C 6.0509497,18.271253 6.0396659,18.320779 6.03125,18.34375 C 6.0239419,18.36723 6.0037958,18.412681 6,18.4375 C 5.998292,18.454302 6,18.48275 6,18.5 C 6,18.51725 5.998292,18.545698 6,18.5625 C 6.0037958,18.587319 6.0239419,18.63277 6.03125,18.65625 C 6.0396659,18.679221 6.0509497,18.728747 6.0625,18.75 C 6.1042737,18.818727 6.1812732,18.895726 6.25,18.9375 C 6.2712534,18.94905 6.3207794,18.960334 6.34375,18.96875 C 6.36723,18.976058 6.4126808,18.996204 6.4375,19 C 6.4543018,19.001708 6.48275,19 6.5,19 C 6.51725,19 6.5456982,19.001708 6.5625,19 C 6.5873192,18.996204 6.63277,18.976058 6.65625,18.96875 C 6.6792206,18.960334 6.7287466,18.94905 6.75,18.9375 C 6.8187268,18.895726 6.8957263,18.818727 6.9375,18.75 C 6.9490503,18.728747 6.9603341,18.679221 6.96875,18.65625 C 6.9760581,18.63277 6.9962042,18.587319 7,18.5625 C 7.001708,18.545698 7,18.51725 7,18.5 C 7,18.48275 7.001708,18.454302 7,18.4375 C 6.9962042,18.412681 6.9760581,18.36723 6.96875,18.34375 C 6.9603341,18.320779 6.9490503,18.271253 6.9375,18.25 C 6.8957263,18.181273 6.8187268,18.104274 6.75,18.0625 C 6.7287466,18.05095 6.6792206,18.039666 6.65625,18.03125 C 6.63277,18.023942 6.5873192,18.003796 6.5625,18 C 6.5456982,17.998292 6.51725,18 6.5,18 C 6.48275,18 6.4543018,17.998292 6.4375,18 C 6.4292269,18.001265 6.4143848,17.998334 6.40625,18 z M 8.40625,18 C 8.3899805,18.003332 8.3594033,18.026378 8.34375,18.03125 C 8.3207794,18.039666 8.2712534,18.05095 8.25,18.0625 C 8.1812732,18.104274 8.1042737,18.181273 8.0625,18.25 C 8.0509497,18.271253 8.0396659,18.320779 8.03125,18.34375 C 8.0239419,18.36723 8.0037958,18.412681 8,18.4375 C 7.998292,18.454302 8,18.48275 8,18.5 C 8,18.51725 7.998292,18.545698 8,18.5625 C 8.0037958,18.587319 8.0239419,18.63277 8.03125,18.65625 C 8.0396659,18.679221 8.0509497,18.728747 8.0625,18.75 C 8.1042737,18.818727 8.1812732,18.895726 8.25,18.9375 C 8.2712534,18.94905 8.3207794,18.960334 8.34375,18.96875 C 8.36723,18.976058 8.4126808,18.996204 8.4375,19 C 8.4543018,19.001708 8.48275,19 8.5,19 C 8.51725,19 8.5456982,19.001708 8.5625,19 C 8.5873192,18.996204 8.63277,18.976058 8.65625,18.96875 C 8.6792206,18.960334 8.7287466,18.94905 8.75,18.9375 C 8.8187268,18.895726 8.8957263,18.818727 8.9375,18.75 C 8.9490503,18.728747 8.9603341,18.679221 8.96875,18.65625 C 8.9760581,18.63277 8.9962042,18.587319 9,18.5625 C 9.001708,18.545698 9,18.51725 9,18.5 C 9,18.48275 9.001708,18.454302 9,18.4375 C 8.9962042,18.412681 8.9760581,18.36723 8.96875,18.34375 C 8.9603341,18.320779 8.9490503,18.271253 8.9375,18.25 C 8.8957263,18.181273 8.8187268,18.104274 8.75,18.0625 C 8.7287466,18.05095 8.6792206,18.039666 8.65625,18.03125 C 8.63277,18.023942 8.5873192,18.003796 8.5625,18 C 8.5456982,17.998292 8.51725,18 8.5,18 C 8.48275,18 8.4543018,17.998292 8.4375,18 C 8.4292269,18.001265 8.4143848,17.998334 8.40625,18 z M 10.40625,18 C 10.38998,18.003332 10.359403,18.026378 10.34375,18.03125 C 10.320779,18.039666 10.271253,18.05095 10.25,18.0625 C 10.181273,18.104274 10.104274,18.181273 10.0625,18.25 C 10.05095,18.271253 10.039666,18.320779 10.03125,18.34375 C 10.023942,18.36723 10.003796,18.412681 10,18.4375 C 9.998292,18.454302 10,18.48275 10,18.5 C 10,18.51725 9.998292,18.545698 10,18.5625 C 10.003796,18.587319 10.023942,18.63277 10.03125,18.65625 C 10.039666,18.679221 10.05095,18.728747 10.0625,18.75 C 10.104274,18.818727 10.181273,18.895726 10.25,18.9375 C 10.271253,18.94905 10.320779,18.960334 10.34375,18.96875 C 10.36723,18.976058 10.412681,18.996204 10.4375,19 C 10.454302,19.001708 10.48275,19 10.5,19 C 10.51725,19 10.545698,19.001708 10.5625,19 C 10.587319,18.996204 10.63277,18.976058 10.65625,18.96875 C 10.679221,18.960334 10.728747,18.94905 10.75,18.9375 C 10.818727,18.895726 10.895726,18.818727 10.9375,18.75 C 10.94905,18.728747 10.960334,18.679221 10.96875,18.65625 C 10.976058,18.63277 10.996204,18.587319 11,18.5625 C 11.001708,18.545698 11,18.51725 11,18.5 C 11,18.48275 11.001708,18.454302 11,18.4375 C 10.996204,18.412681 10.976058,18.36723 10.96875,18.34375 C 10.960334,18.320779 10.94905,18.271253 10.9375,18.25 C 10.895726,18.181273 10.818727,18.104274 10.75,18.0625 C 10.728747,18.05095 10.679221,18.039666 10.65625,18.03125 C 10.63277,18.023942 10.587319,18.003796 10.5625,18 C 10.545698,17.998292 10.51725,18 10.5,18 C 10.48275,18 10.454302,17.998292 10.4375,18 C 10.429227,18.001265 10.414385,17.998334 10.40625,18 z M 12.40625,18 C 12.38998,18.003332 12.359403,18.026378 12.34375,18.03125 C 12.320779,18.039666 12.271253,18.05095 12.25,18.0625 C 12.181273,18.104274 12.104274,18.181273 12.0625,18.25 C 12.05095,18.271253 12.039666,18.320779 12.03125,18.34375 C 12.023942,18.36723 12.003796,18.412681 12,18.4375 C 11.998292,18.454302 12,18.48275 12,18.5 C 12,18.51725 11.998292,18.545698 12,18.5625 C 12.003796,18.587319 12.023942,18.63277 12.03125,18.65625 C 12.039666,18.679221 12.05095,18.728747 12.0625,18.75 C 12.104274,18.818727 12.181273,18.895726 12.25,18.9375 C 12.271253,18.94905 12.320779,18.960334 12.34375,18.96875 C 12.36723,18.976058 12.412681,18.996204 12.4375,19 C 12.454302,19.001708 12.48275,19 12.5,19 C 12.51725,19 12.545698,19.001708 12.5625,19 C 12.587319,18.996204 12.63277,18.976058 12.65625,18.96875 C 12.679221,18.960334 12.728747,18.94905 12.75,18.9375 C 12.818727,18.895726 12.895726,18.818727 12.9375,18.75 C 12.94905,18.728747 12.960334,18.679221 12.96875,18.65625 C 12.976058,18.63277 12.996204,18.587319 13,18.5625 C 13.001708,18.545698 13,18.51725 13,18.5 C 13,18.48275 13.001708,18.454302 13,18.4375 C 12.996204,18.412681 12.976058,18.36723 12.96875,18.34375 C 12.960334,18.320779 12.94905,18.271253 12.9375,18.25 C 12.895726,18.181273 12.818727,18.104274 12.75,18.0625 C 12.728747,18.05095 12.679221,18.039666 12.65625,18.03125 C 12.63277,18.023942 12.587319,18.003796 12.5625,18 C 12.545698,17.998292 12.51725,18 12.5,18 C 12.48275,18 12.454302,17.998292 12.4375,18 C 12.429227,18.001265 12.414385,17.998334 12.40625,18 z M 14.40625,18 C 14.38998,18.003332 14.359403,18.026378 14.34375,18.03125 C 14.320779,18.039666 14.271253,18.05095 14.25,18.0625 C 14.181273,18.104274 14.104274,18.181273 14.0625,18.25 C 14.05095,18.271253 14.039666,18.320779 14.03125,18.34375 C 14.023942,18.36723 14.003796,18.412681 14,18.4375 C 13.998292,18.454302 14,18.48275 14,18.5 C 14,18.51725 13.998292,18.545698 14,18.5625 C 14.003796,18.587319 14.023942,18.63277 14.03125,18.65625 C 14.039666,18.679221 14.05095,18.728747 14.0625,18.75 C 14.104274,18.818727 14.181273,18.895726 14.25,18.9375 C 14.271253,18.94905 14.320779,18.960334 14.34375,18.96875 C 14.36723,18.976058 14.412681,18.996204 14.4375,19 C 14.454302,19.001708 14.48275,19 14.5,19 C 14.51725,19 14.545698,19.001708 14.5625,19 C 14.587319,18.996204 14.63277,18.976058 14.65625,18.96875 C 14.679221,18.960334 14.728747,18.94905 14.75,18.9375 C 14.818727,18.895726 14.895726,18.818727 14.9375,18.75 C 14.94905,18.728747 14.960334,18.679221 14.96875,18.65625 C 14.976058,18.63277 14.996204,18.587319 15,18.5625 C 15.001708,18.545698 15,18.51725 15,18.5 C 15,18.48275 15.001708,18.454302 15,18.4375 C 14.996204,18.412681 14.976058,18.36723 14.96875,18.34375 C 14.960334,18.320779 14.94905,18.271253 14.9375,18.25 C 14.895726,18.181273 14.818727,18.104274 14.75,18.0625 C 14.728747,18.05095 14.679221,18.039666 14.65625,18.03125 C 14.63277,18.023942 14.587319,18.003796 14.5625,18 C 14.545698,17.998292 14.51725,18 14.5,18 C 14.48275,18 14.454302,17.998292 14.4375,18 C 14.429227,18.001265 14.414385,17.998334 14.40625,18 z M 16.40625,18 C 16.38998,18.003332 16.359403,18.026378 16.34375,18.03125 C 16.320779,18.039666 16.271253,18.05095 16.25,18.0625 C 16.181273,18.104274 16.104274,18.181273 16.0625,18.25 C 16.05095,18.271253 16.039666,18.320779 16.03125,18.34375 C 16.023942,18.36723 16.003796,18.412681 16,18.4375 C 15.998292,18.454302 16,18.48275 16,18.5 C 16,18.51725 15.998292,18.545698 16,18.5625 C 16.003796,18.587319 16.023942,18.63277 16.03125,18.65625 C 16.039666,18.679221 16.05095,18.728747 16.0625,18.75 C 16.104274,18.818727 16.181273,18.895726 16.25,18.9375 C 16.271253,18.94905 16.320779,18.960334 16.34375,18.96875 C 16.36723,18.976058 16.412681,18.996204 16.4375,19 C 16.454302,19.001708 16.48275,19 16.5,19 C 16.51725,19 16.545698,19.001708 16.5625,19 C 16.587319,18.996204 16.63277,18.976058 16.65625,18.96875 C 16.679221,18.960334 16.728747,18.94905 16.75,18.9375 C 16.818727,18.895726 16.895726,18.818727 16.9375,18.75 C 16.94905,18.728747 16.960334,18.679221 16.96875,18.65625 C 16.976058,18.63277 16.996204,18.587319 17,18.5625 C 17.001708,18.545698 17,18.51725 17,18.5 C 17,18.48275 17.001708,18.454302 17,18.4375 C 16.996204,18.412681 16.976058,18.36723 16.96875,18.34375 C 16.960334,18.320779 16.94905,18.271253 16.9375,18.25 C 16.895726,18.181273 16.818727,18.104274 16.75,18.0625 C 16.728747,18.05095 16.679221,18.039666 16.65625,18.03125 C 16.63277,18.023942 16.587319,18.003796 16.5625,18 C 16.545698,17.998292 16.51725,18 16.5,18 C 16.48275,18 16.454302,17.998292 16.4375,18 C 16.429227,18.001265 16.414385,17.998334 16.40625,18 z M 5.40625,19 C 5.3899805,19.003332 5.3594033,19.026378 5.34375,19.03125 C 5.3207794,19.039666 5.2712534,19.05095 5.25,19.0625 C 5.1812732,19.104274 5.1042737,19.181273 5.0625,19.25 C 5.0509497,19.271253 5.0396659,19.320779 5.03125,19.34375 C 5.0239419,19.36723 5.0037958,19.412681 5,19.4375 C 4.998292,19.454302 5,19.48275 5,19.5 C 5,19.51725 4.998292,19.545698 5,19.5625 C 5.0037958,19.587319 5.0239419,19.63277 5.03125,19.65625 C 5.0396659,19.679221 5.0509497,19.728747 5.0625,19.75 C 5.1042737,19.818727 5.1812732,19.895726 5.25,19.9375 C 5.2712534,19.94905 5.3207794,19.960334 5.34375,19.96875 C 5.36723,19.976058 5.4126808,19.996204 5.4375,20 C 5.4543018,20.001708 5.48275,20 5.5,20 C 5.51725,20 5.5456982,20.001708 5.5625,20 C 5.5873192,19.996204 5.63277,19.976058 5.65625,19.96875 C 5.6792206,19.960334 5.7287466,19.94905 5.75,19.9375 C 5.8187268,19.895726 5.8957263,19.818727 5.9375,19.75 C 5.9490503,19.728747 5.9603341,19.679221 5.96875,19.65625 C 5.9760581,19.63277 5.9962042,19.587319 6,19.5625 C 6.001708,19.545698 6,19.51725 6,19.5 C 6,19.48275 6.001708,19.454302 6,19.4375 C 5.9962042,19.412681 5.9760581,19.36723 5.96875,19.34375 C 5.9603341,19.320779 5.9490503,19.271253 5.9375,19.25 C 5.8957263,19.181273 5.8187268,19.104274 5.75,19.0625 C 5.7287466,19.05095 5.6792206,19.039666 5.65625,19.03125 C 5.63277,19.023942 5.5873192,19.003796 5.5625,19 C 5.5456982,18.998292 5.51725,19 5.5,19 C 5.48275,19 5.4543018,18.998292 5.4375,19 C 5.4292269,19.001265 5.4143848,18.998334 5.40625,19 z M 7.40625,19 C 7.3899805,19.003332 7.3594033,19.026378 7.34375,19.03125 C 7.3207794,19.039666 7.2712534,19.05095 7.25,19.0625 C 7.1812732,19.104274 7.1042737,19.181273 7.0625,19.25 C 7.0509497,19.271253 7.0396659,19.320779 7.03125,19.34375 C 7.0239419,19.36723 7.0037958,19.412681 7,19.4375 C 6.998292,19.454302 7,19.48275 7,19.5 C 7,19.51725 6.998292,19.545698 7,19.5625 C 7.0037958,19.587319 7.0239419,19.63277 7.03125,19.65625 C 7.0396659,19.679221 7.0509497,19.728747 7.0625,19.75 C 7.1042737,19.818727 7.1812732,19.895726 7.25,19.9375 C 7.2712534,19.94905 7.3207794,19.960334 7.34375,19.96875 C 7.36723,19.976058 7.4126808,19.996204 7.4375,20 C 7.4543018,20.001708 7.48275,20 7.5,20 C 7.51725,20 7.5456982,20.001708 7.5625,20 C 7.5873192,19.996204 7.63277,19.976058 7.65625,19.96875 C 7.6792206,19.960334 7.7287466,19.94905 7.75,19.9375 C 7.8187268,19.895726 7.8957263,19.818727 7.9375,19.75 C 7.9490503,19.728747 7.9603341,19.679221 7.96875,19.65625 C 7.9760581,19.63277 7.9962042,19.587319 8,19.5625 C 8.001708,19.545698 8,19.51725 8,19.5 C 8,19.48275 8.001708,19.454302 8,19.4375 C 7.9962042,19.412681 7.9760581,19.36723 7.96875,19.34375 C 7.9603341,19.320779 7.9490503,19.271253 7.9375,19.25 C 7.8957263,19.181273 7.8187268,19.104274 7.75,19.0625 C 7.7287466,19.05095 7.6792206,19.039666 7.65625,19.03125 C 7.63277,19.023942 7.5873192,19.003796 7.5625,19 C 7.5456982,18.998292 7.51725,19 7.5,19 C 7.48275,19 7.4543018,18.998292 7.4375,19 C 7.4292269,19.001265 7.4143848,18.998334 7.40625,19 z M 15.40625,19 C 15.38998,19.003332 15.359403,19.026378 15.34375,19.03125 C 15.320779,19.039666 15.271253,19.05095 15.25,19.0625 C 15.181273,19.104274 15.104274,19.181273 15.0625,19.25 C 15.05095,19.271253 15.039666,19.320779 15.03125,19.34375 C 15.023942,19.36723 15.003796,19.412681 15,19.4375 C 14.998292,19.454302 15,19.48275 15,19.5 C 15,19.51725 14.998292,19.545698 15,19.5625 C 15.003796,19.587319 15.023942,19.63277 15.03125,19.65625 C 15.039666,19.679221 15.05095,19.728747 15.0625,19.75 C 15.104274,19.818727 15.181273,19.895726 15.25,19.9375 C 15.271253,19.94905 15.320779,19.960334 15.34375,19.96875 C 15.36723,19.976058 15.412681,19.996204 15.4375,20 C 15.454302,20.001708 15.48275,20 15.5,20 C 15.51725,20 15.545698,20.001708 15.5625,20 C 15.587319,19.996204 15.63277,19.976058 15.65625,19.96875 C 15.679221,19.960334 15.728747,19.94905 15.75,19.9375 C 15.818727,19.895726 15.895726,19.818727 15.9375,19.75 C 15.94905,19.728747 15.960334,19.679221 15.96875,19.65625 C 15.976058,19.63277 15.996204,19.587319 16,19.5625 C 16.001708,19.545698 16,19.51725 16,19.5 C 16,19.48275 16.001708,19.454302 16,19.4375 C 15.996204,19.412681 15.976058,19.36723 15.96875,19.34375 C 15.960334,19.320779 15.94905,19.271253 15.9375,19.25 C 15.895726,19.181273 15.818727,19.104274 15.75,19.0625 C 15.728747,19.05095 15.679221,19.039666 15.65625,19.03125 C 15.63277,19.023942 15.587319,19.003796 15.5625,19 C 15.545698,18.998292 15.51725,19 15.5,19 C 15.48275,19 15.454302,18.998292 15.4375,19 C 15.429227,19.001265 15.414385,18.998334 15.40625,19 z M 17.40625,19 C 17.38998,19.003332 17.359403,19.026378 17.34375,19.03125 C 17.320779,19.039666 17.271253,19.05095 17.25,19.0625 C 17.181273,19.104274 17.104274,19.181273 17.0625,19.25 C 17.05095,19.271253 17.039666,19.320779 17.03125,19.34375 C 17.023942,19.36723 17.003796,19.412681 17,19.4375 C 16.998292,19.454302 17,19.48275 17,19.5 C 17,19.51725 16.998292,19.545698 17,19.5625 C 17.003796,19.587319 17.023942,19.63277 17.03125,19.65625 C 17.039666,19.679221 17.05095,19.728747 17.0625,19.75 C 17.104274,19.818727 17.181273,19.895726 17.25,19.9375 C 17.271253,19.94905 17.320779,19.960334 17.34375,19.96875 C 17.36723,19.976058 17.412681,19.996204 17.4375,20 C 17.454302,20.001708 17.48275,20 17.5,20 C 17.51725,20 17.545698,20.001708 17.5625,20 C 17.587319,19.996204 17.63277,19.976058 17.65625,19.96875 C 17.679221,19.960334 17.728747,19.94905 17.75,19.9375 C 17.818727,19.895726 17.895726,19.818727 17.9375,19.75 C 17.94905,19.728747 17.960334,19.679221 17.96875,19.65625 C 17.976058,19.63277 17.996204,19.587319 18,19.5625 C 18.001708,19.545698 18,19.51725 18,19.5 C 18,19.48275 18.001708,19.454302 18,19.4375 C 17.996204,19.412681 17.976058,19.36723 17.96875,19.34375 C 17.960334,19.320779 17.94905,19.271253 17.9375,19.25 C 17.895726,19.181273 17.818727,19.104274 17.75,19.0625 C 17.728747,19.05095 17.679221,19.039666 17.65625,19.03125 C 17.63277,19.023942 17.587319,19.003796 17.5625,19 C 17.545698,18.998292 17.51725,19 17.5,19 C 17.48275,19 17.454302,18.998292 17.4375,19 C 17.429227,19.001265 17.414385,18.998334 17.40625,19 z "
         style="opacity:1;fill:url(#radialGradient4248);fill-opacity:1;stroke:none;stroke-width:0.80000001;stroke-linecap:round;stroke-linejoin:round;stroke-miterlimit:4;stroke-dasharray:none;stroke-opacity:1" />
    </g>
    <g
       id="g1598"
       inkscape:label="Shadow"
       transform="translate(-306.25,-49)" />
    <g
       id="g1618"
       inkscape:label="finiture"
       style="display:inline"
       transform="translate(-306.25,-49)" />
    <path
       transform="matrix(0.466261,0,0,0.178571,-0.147398,13.42859)"
       d="M 47.5 41 A 23.5 7 0 1 1  0.5,41 A 23.5 7 0 1 1  47.5 41 z"
       sodipodi:ry="7"
       sodipodi:rx="23.5"
       sodipodi:cy="41"
       sodipodi:cx="24"
       id="path1633"
       style="opacity:0.24313725;color:#000000;fill:url(#radialGradient1635);fill-opacity:1;fill-rule:nonzero;stroke:none;stroke-width:1;stroke-linecap:round;stroke-linejoin:miter;marker:none;marker-start:none;marker-mid:none;marker-end:none;stroke-miterlimit:4;stroke-dasharray:none;stroke-dashoffset:0;stroke-opacity:1;visibility:visible;display:inline;overflow:visible"
       sodipodi:type="arc" />
    <rect
       y="2.4886587"
       x="2.4943798"
       height="8.033247"
       width="17.016659"
       id="rect6752"
       style="fill:url(#linearGradient6394);fill-opacity:1;fill-rule:nonzero;stroke:#281800;stroke-width:1.00000036;stroke-linecap:round;stroke-linejoin:round;marker:none;marker-start:none;marker-mid:none;marker-end:none;stroke-miterlimit:4;stroke-dasharray:none;stroke-dashoffset:0;stroke-opacity:1;visibility:visible;display:inline;overflow:visible" />
    <g
       id="g7039"
       style="opacity:0.7">
      <path
         style="opacity:0.33257919000000002;fill:url(#radialGradient7037);fill-opacity:1;fill-rule:evenodd;stroke:none;stroke-width:1px;stroke-linecap:butt;stroke-linejoin:miter;stroke-opacity:1"
         d="M 19,5.182122 L 18.975041,3.0227304 L 12.585023,3 C 9.2171577,5.3777488 6.301899,6.1813721 3,6.63687 L 3,9.1826789 C 10.09592,8.4755312 14.572484,6.8375433 19,5.182122 z"
         id="path6748"
         sodipodi:nodetypes="cccccc" />
      <path
         style="opacity:0.33257919000000002;fill:url(#radialGradient7034);fill-opacity:1;fill-rule:evenodd;stroke:none;stroke-width:1px;stroke-linecap:butt;stroke-linejoin:miter;stroke-opacity:1;display:inline"
         d="M 19,4.650133 L 19,4.2380834 C 11.8,7.1224309 5.8,8.3585795 3,8.3585795 L 3,9.1826789 C 10.107002,8.3814953 14.565567,6.5256904 19,4.650133 z"
         id="path6778"
         sodipodi:nodetypes="ccccc" />
      <path
         style="opacity:0.33257919000000002;fill:url(#radialGradient7031);fill-opacity:1;fill-rule:evenodd;stroke:none;stroke-width:1px;stroke-linecap:butt;stroke-linejoin:miter;stroke-opacity:1;display:inline"
         d="M 19,3 C 9.2473688,6.6147714 4.9052633,7.4471205 3,7.1855253 L 3,7.9465296 C 10.167364,6.9195722 14.271928,4.7915315 19,3 z"
         id="path6790"
         sodipodi:nodetypes="cccc" />
      <path
         style="opacity:0.20588234999999999;fill:url(#radialGradient7028);fill-opacity:1;fill-rule:evenodd;stroke:none;stroke-width:1px;stroke-linecap:butt;stroke-linejoin:miter;stroke-opacity:1"
         d="M 19,5.165195 L 19,6.2316964 C 16.315237,8.0320306 13.630471,8.9978956 10.945704,10 L 9.2444681,10 C 12.715892,8.8778279 16.089892,7.5385238 19,5.165195 z"
         id="path6806"
         sodipodi:nodetypes="ccccc" />
      <path
         style="opacity:0.18687780000000001;fill:none;fill-rule:evenodd;stroke:url(#radialGradient7025);stroke-width:1.00000011999999994px;stroke-linecap:round;stroke-linejoin:miter;stroke-opacity:1"
         d="M 2.6277041,6.2983315 C 5.2600601,5.3330522 6.3507146,3.956314 7.4799975,2.589885"
         id="path6816"
         sodipodi:nodetypes="cc" />
      <path
         style="opacity:0.18371043000000001;fill:url(#radialGradient6424);fill-opacity:1;fill-rule:evenodd;stroke:none;stroke-width:1px;stroke-linecap:butt;stroke-linejoin:miter;stroke-opacity:1;display:inline"
         d="M 19,5.182122 L 18.975041,3.0227304 L 12.585023,3 C 9.217158,5.3777488 6.301899,6.1813721 3,6.63687 L 3,9.1826789 C 10.09592,8.4755312 14.572484,6.8375433 19,5.182122 z"
         id="path6802"
         sodipodi:nodetypes="cccccc" />
    </g>
    <path
       sodipodi:nodetypes="ccccc"
       id="path6433"
       d="M 3,3 L 19,3 L 19,6 C 12,4.8 5.985856,5.0658792 3,9 L 3,3 z"
       style="opacity:0.5;fill:url(#radialGradient6435);fill-opacity:1;fill-rule:nonzero;stroke:none;stroke-width:1;stroke-linecap:round;stroke-linejoin:miter;marker:none;marker-start:none;marker-mid:none;marker-end:none;stroke-miterlimit:4;stroke-dashoffset:0;stroke-opacity:1;visibility:visible;display:inline;overflow:visible" />
  </g>
  <g
     inkscape:groupmode="layer"
     id="layer3"
     inkscape:label="finiture"
     style="display:inline" />
</svg>
