<?xml version="1.0" encoding="UTF-8" standalone="no"?>
<!-- Created with Inkscape (http://www.inkscape.org/) -->
<svg
   xmlns:dc="http://purl.org/dc/elements/1.1/"
   xmlns:cc="http://web.resource.org/cc/"
   xmlns:rdf="http://www.w3.org/1999/02/22-rdf-syntax-ns#"
   xmlns:svg="http://www.w3.org/2000/svg"
   xmlns="http://www.w3.org/2000/svg"
   xmlns:xlink="http://www.w3.org/1999/xlink"
   xmlns:sodipodi="http://sodipodi.sourceforge.net/DTD/sodipodi-0.dtd"
   xmlns:inkscape="http://www.inkscape.org/namespaces/inkscape"
   width="22"
   height="22"
   id="svg2"
   sodipodi:version="0.32"
   inkscape:version="0.45"
   version="1.0"
   sodipodi:docbase="/home/lapo/Icone/tangerine-icon-theme/22x22/devices"
   sodipodi:docname="drive-harddisk.svg"
   inkscape:export-filename="/home/lapo/Desktop/driver-harddisk.png"
   inkscape:export-xdpi="90"
   inkscape:export-ydpi="90"
   inkscape:output_extension="org.inkscape.output.svg.inkscape">
  <defs
     id="defs4">
    <linearGradient
       inkscape:collect="always"
       id="linearGradient3273">
      <stop
         style="stop-color:#ffffff;stop-opacity:1;"
         offset="0"
         id="stop3275" />
      <stop
         style="stop-color:#ffffff;stop-opacity:0;"
         offset="1"
         id="stop3277" />
    </linearGradient>
    <linearGradient
       inkscape:collect="always"
       id="linearGradient3265">
      <stop
         style="stop-color:#ffffff;stop-opacity:1;"
         offset="0"
         id="stop3267" />
      <stop
         style="stop-color:#ffffff;stop-opacity:0;"
         offset="1"
         id="stop3269" />
    </linearGradient>
    <linearGradient
       inkscape:collect="always"
       id="linearGradient3253">
      <stop
         style="stop-color:#babdb6"
         offset="0"
         id="stop3255" />
      <stop
         style="stop-color:#d3d7cf"
         offset="1"
         id="stop3257" />
    </linearGradient>
    <linearGradient
       id="linearGradient3208">
      <stop
         style="stop-color:#ffffff;stop-opacity:1;"
         offset="0"
         id="stop3210" />
      <stop
         style="stop-color:#eeeeec"
         offset="1"
         id="stop3212" />
    </linearGradient>
    <linearGradient
       inkscape:collect="always"
       id="linearGradient2401">
      <stop
         style="stop-color:#ce5c00"
         offset="0"
         id="stop2403" />
      <stop
         style="stop-color:#f57900"
         offset="1"
         id="stop2405" />
    </linearGradient>
    <linearGradient
       id="linearGradient2393">
      <stop
         style="stop-color:#f57900;stop-opacity:1;"
         offset="0"
         id="stop2395" />
      <stop
         style="stop-color:#f57900;stop-opacity:0;"
         offset="1"
         id="stop2397" />
    </linearGradient>
    <radialGradient
       inkscape:collect="always"
       xlink:href="#linearGradient2393"
       id="radialGradient2290"
       gradientUnits="userSpaceOnUse"
       gradientTransform="matrix(0.998942,3.370041e-5,2.263296e-16,0.677703,1.482565e-2,10.79623)"
       cx="14.001651"
       cy="33.524807"
       fx="14.001651"
       fy="33.524807"
       r="1.5" />
    <radialGradient
       inkscape:collect="always"
       xlink:href="#linearGradient2401"
       id="radialGradient2292"
       gradientUnits="userSpaceOnUse"
       gradientTransform="matrix(-1.405645e-6,-0.878708,1.514719,3.161911e-15,-37.53422,46.633)"
       cx="14.311005"
       cy="34.335991"
       fx="14.311005"
       fy="34.335991"
       r="1.5" />
    <linearGradient
       inkscape:collect="always"
       xlink:href="#linearGradient3208"
       id="linearGradient3214"
       x1="-0.0026416883"
       y1="11.501321"
       x2="19.415695"
       y2="0.98310727"
       gradientUnits="userSpaceOnUse" />
    <linearGradient
       inkscape:collect="always"
       xlink:href="#linearGradient3253"
       id="linearGradient3259"
       x1="19.863447"
       y1="13.001619"
       x2="1.8427534"
       y2="18.242697"
       gradientUnits="userSpaceOnUse" />
    <linearGradient
       inkscape:collect="always"
       xlink:href="#linearGradient3265"
       id="linearGradient3271"
       x1="5.6433058"
       y1="16"
       x2="5.6433058"
       y2="18.591188"
       gradientUnits="userSpaceOnUse" />
    <linearGradient
       inkscape:collect="always"
       xlink:href="#linearGradient3273"
       id="linearGradient3279"
       x1="7.6897864"
       y1="12.89531"
       x2="7.6897864"
       y2="14.537154"
       gradientUnits="userSpaceOnUse" />
  </defs>
  <sodipodi:namedview
     id="base"
     pagecolor="#ffffff"
     bordercolor="#666666"
     borderopacity="1.0"
     inkscape:pageopacity="0.0"
     inkscape:pageshadow="2"
     inkscape:zoom="1"
     inkscape:cx="19.09048"
     inkscape:cy="-2.0033519"
     inkscape:document-units="px"
     inkscape:current-layer="layer3"
     showgrid="false"
     gridempspacing="2"
     gridspacingx="0.5px"
     gridspacingy="0.5px"
     inkscape:window-width="930"
     inkscape:window-height="738"
     inkscape:window-x="113"
     inkscape:window-y="195"
     fill="#eeeeec"
     stroke="#555753"
     inkscape:grid-points="true"
     inkscape:grid-bbox="true"
     showguides="true"
     inkscape:guide-bbox="true"
     showborder="false"
     inkscape:showpageshadow="false" />
  <metadata
     id="metadata7">
    <rdf:RDF>
      <cc:Work
         rdf:about="">
        <dc:format>image/svg+xml</dc:format>
        <dc:type
           rdf:resource="http://purl.org/dc/dcmitype/StillImage" />
        <dc:creator>
          <cc:Agent>
            <dc:title>Lapo Calamandrei</dc:title>
          </cc:Agent>
        </dc:creator>
      </cc:Work>
    </rdf:RDF>
  </metadata>
  <g
     inkscape:groupmode="layer"
     id="layer3"
     inkscape:label="Work"
     style="display:inline">
    <path
       style="fill:none;fill-rule:evenodd;stroke:#000000;stroke-width:2;stroke-linecap:round;stroke-linejoin:miter;stroke-opacity:1;stroke-miterlimit:4;stroke-dasharray:none;opacity:0.15"
       d="M 1,19.5 L 21,19.5"
       id="path6001"
       sodipodi:nodetypes="cc" />
    <path
       style="opacity:1;fill:url(#linearGradient3214);fill-opacity:1.0;stroke:#6e706b;stroke-width:1.1;stroke-linecap:round;stroke-linejoin:round;stroke-miterlimit:4;stroke-dasharray:none;stroke-opacity:1"
       d="M 3,2.5 L 0.5,12 L 0.5,14.375 C 0.5,14.423691 0.494056,14.484223 0.5,14.53125 C 0.509924,14.596561 0.541921,14.688947 0.5625,14.75 C 0.575083,14.784494 0.60924,14.842198 0.625,14.875 C 0.666313,14.955874 0.722401,15.057021 0.78125,15.125 C 0.805428,15.151612 0.848388,15.194573 0.875,15.21875 C 0.942979,15.2776 1.044126,15.333687 1.125,15.375 C 1.157802,15.39076 1.215506,15.424917 1.25,15.4375 C 1.311053,15.458079 1.403439,15.490076 1.46875,15.5 C 1.403439,15.509924 1.311053,15.541921 1.25,15.5625 C 1.215506,15.575083 1.157802,15.60924 1.125,15.625 C 1.044126,15.666313 0.942979,15.7224 0.875,15.78125 C 0.848388,15.805427 0.805428,15.848388 0.78125,15.875 C 0.722401,15.942979 0.666313,16.044126 0.625,16.125 C 0.60924,16.157802 0.575083,16.215506 0.5625,16.25 C 0.541921,16.311053 0.509924,16.403439 0.5,16.46875 C 0.494056,16.515777 0.5,16.576309 0.5,16.625 L 0.5,18.375 C 0.5,18.423691 0.494056,18.484223 0.5,18.53125 C 0.509924,18.596561 0.541921,18.688947 0.5625,18.75 C 0.575083,18.784494 0.60924,18.842198 0.625,18.875 C 0.666313,18.955874 0.722401,19.057021 0.78125,19.125 C 0.805428,19.151612 0.848388,19.194573 0.875,19.21875 C 0.942979,19.2776 1.044126,19.333687 1.125,19.375 C 1.157802,19.39076 1.215506,19.424917 1.25,19.4375 C 1.311053,19.458079 1.403439,19.490076 1.46875,19.5 C 1.515777,19.505944 1.576309,19.5 1.625,19.5 L 20.375,19.5 C 20.423691,19.5 20.484223,19.505944 20.53125,19.5 C 20.596561,19.490076 20.688947,19.458079 20.75,19.4375 C 20.784494,19.424917 20.842198,19.39076 20.875,19.375 C 20.955874,19.333687 21.057021,19.2776 21.125,19.21875 C 21.151612,19.194573 21.194573,19.151612 21.21875,19.125 C 21.2776,19.057021 21.333687,18.955874 21.375,18.875 C 21.39076,18.842198 21.424917,18.784494 21.4375,18.75 C 21.458079,18.688947 21.490076,18.596561 21.5,18.53125 C 21.505944,18.484223 21.5,18.423691 21.5,18.375 L 21.5,16.625 C 21.5,16.576309 21.505944,16.515777 21.5,16.46875 C 21.490076,16.403439 21.458079,16.311053 21.4375,16.25 C 21.424917,16.215506 21.39076,16.157802 21.375,16.125 C 21.333687,16.044126 21.2776,15.942979 21.21875,15.875 C 21.194573,15.848388 21.151612,15.805427 21.125,15.78125 C 21.057021,15.7224 20.955874,15.666313 20.875,15.625 C 20.842198,15.60924 20.784494,15.575083 20.75,15.5625 C 20.688947,15.541921 20.596561,15.509924 20.53125,15.5 C 20.596561,15.490076 20.688947,15.458079 20.75,15.4375 C 20.784494,15.424917 20.842198,15.39076 20.875,15.375 C 20.955874,15.333687 21.057021,15.2776 21.125,15.21875 C 21.151612,15.194573 21.194573,15.151612 21.21875,15.125 C 21.2776,15.057021 21.333687,14.955874 21.375,14.875 C 21.39076,14.842198 21.424917,14.784494 21.4375,14.75 C 21.458079,14.688947 21.490076,14.596561 21.5,14.53125 C 21.505944,14.484223 21.5,14.423691 21.5,14.375 L 21.5,12 L 19,2.5 L 3,2.5 z "
       id="rect1389"
       sodipodi:nodetypes="cccsssssssssssssssccssssssssccssssssssccssssssssssssssscccc" />
    <path
       style="fill:#2e3436;fill-opacity:0.75;fill-rule:evenodd;stroke:#2e3436;stroke-width:1.00000024;stroke-linecap:round;stroke-linejoin:miter;stroke-miterlimit:4;stroke-dasharray:none;stroke-opacity:1;display:inline"
       d="M 1.5,15.5 L 20.5,15.5"
       id="path2267"
       sodipodi:nodetypes="cc" />
    <g
       style="display:inline"
       id="g2282"
       transform="matrix(0.719997,0,0,1,-26.67987,-0.500002)">
      <path
         transform="matrix(2.777787,0,0,2.500009,9.27766,-67.75029)"
         d="M 15.5 33.5 A 1.5 1 0 1 1  12.5,33.5 A 1.5 1 0 1 1  15.5 33.5 z"
         sodipodi:ry="1"
         sodipodi:rx="1.5"
         sodipodi:cy="33.5"
         sodipodi:cx="14"
         id="path2284"
         style="opacity:1;color:#000000;fill:url(#radialGradient2290);fill-opacity:1;fill-rule:nonzero;stroke:none;stroke-width:1;stroke-linecap:round;stroke-linejoin:miter;marker:none;marker-start:none;marker-mid:none;marker-end:none;stroke-miterlimit:4;stroke-dasharray:none;stroke-dashoffset:0;stroke-opacity:1;visibility:visible;display:inline;overflow:visible"
         sodipodi:type="arc" />
      <path
         transform="matrix(1.666663,0,0,1.500003,24.83341,-34.25008)"
         d="M 15.5 33.5 A 1.5 1 0 1 1  12.5,33.5 A 1.5 1 0 1 1  15.5 33.5 z"
         sodipodi:ry="1"
         sodipodi:rx="1.5"
         sodipodi:cy="33.5"
         sodipodi:cx="14"
         id="path2286"
         style="opacity:1;color:#000000;fill:url(#radialGradient2292);fill-opacity:1;fill-rule:nonzero;stroke:none;stroke-width:0.5;stroke-linecap:round;stroke-linejoin:miter;marker:none;marker-start:none;marker-mid:none;marker-end:none;stroke-miterlimit:4;stroke-dasharray:none;stroke-dashoffset:0;stroke-opacity:1;visibility:visible;display:inline;overflow:visible"
         sodipodi:type="arc" />
      <path
         transform="matrix(1,0,0,0.747396,34.16668,-9.28516)"
         d="M 15.5 33.5 A 1.5 1 0 1 1  12.5,33.5 A 1.5 1 0 1 1  15.5 33.5 z"
         sodipodi:ry="1"
         sodipodi:rx="1.5"
         sodipodi:cy="33.5"
         sodipodi:cx="14"
         id="path2288"
         style="opacity:1;color:#000000;fill:#fcaf3e;fill-opacity:1;fill-rule:nonzero;stroke:none;stroke-width:1;stroke-linecap:round;stroke-linejoin:miter;marker:none;marker-start:none;marker-mid:none;marker-end:none;stroke-miterlimit:4;stroke-dasharray:none;stroke-dashoffset:0;stroke-opacity:1;visibility:visible;display:inline;overflow:visible"
         sodipodi:type="arc" />
    </g>
    <path
       style="opacity:1;fill:none;fill-opacity:1.0;stroke:#ffffff;stroke-width:1;stroke-linecap:round;stroke-linejoin:round;stroke-miterlimit:4;stroke-opacity:1;display:inline"
       d="M 4,3.5 L 18,3.5 L 20.5,12.5 L 1.5,12.5 L 4,3.5 z "
       id="path3227"
       sodipodi:nodetypes="ccccc" />
    <g
       id="g3249"
       style="fill-opacity:1.0;fill:url(#linearGradient3259)">
      <rect
         ry="0.62222844"
         rx="0.62222844"
         y="16"
         x="1"
         height="3"
         width="20"
         id="rect3245"
         style="opacity:1;fill:url(#linearGradient3259);fill-opacity:1.0;stroke:none;stroke-width:1;stroke-linecap:round;stroke-linejoin:round;stroke-miterlimit:4;stroke-dasharray:none;stroke-opacity:1" />
      <rect
         ry="0.62222844"
         rx="0.62222844"
         y="12"
         x="1"
         height="3"
         width="20"
         id="rect3247"
         style="opacity:1;fill:url(#linearGradient3259);fill-opacity:1.0;stroke:none;stroke-width:1;stroke-linecap:round;stroke-linejoin:round;stroke-miterlimit:4;stroke-dasharray:none;stroke-opacity:1;display:inline" />
    </g>
    <rect
       style="opacity:0.7;fill:none;fill-opacity:1.0;stroke:url(#linearGradient3279);stroke-width:1;stroke-linecap:round;stroke-linejoin:round;stroke-miterlimit:4;stroke-dasharray:none;stroke-opacity:1"
       id="rect3261"
       width="19"
       height="2"
       x="1.5"
       y="12.5"
       rx="0.10733674"
       ry="0.10733674" />
    <rect
       style="opacity:0.8;fill:none;fill-opacity:1.0;stroke:url(#linearGradient3271);stroke-width:1;stroke-linecap:round;stroke-linejoin:round;stroke-miterlimit:4;stroke-dasharray:none;stroke-opacity:1;display:inline"
       id="rect3263"
       width="19"
       height="2"
       x="1.5"
       y="16.5"
       rx="0.10733674"
       ry="0.10733674" />
    <path
       style="fill:none;fill-opacity:0.75;fill-rule:evenodd;stroke:#ffffff;stroke-width:1px;stroke-linecap:round;stroke-linejoin:miter;stroke-opacity:1"
       d="M 1.5,12.5 L 20.5,12.5"
       id="path3281" />
  </g>
</svg>
