<?xml version="1.0" encoding="UTF-8" standalone="no"?>
<!-- Created with Inkscape (http://www.inkscape.org/) -->
<svg
   xmlns:dc="http://purl.org/dc/elements/1.1/"
   xmlns:cc="http://web.resource.org/cc/"
   xmlns:rdf="http://www.w3.org/1999/02/22-rdf-syntax-ns#"
   xmlns:svg="http://www.w3.org/2000/svg"
   xmlns="http://www.w3.org/2000/svg"
   xmlns:xlink="http://www.w3.org/1999/xlink"
   xmlns:sodipodi="http://sodipodi.sourceforge.net/DTD/sodipodi-0.dtd"
   xmlns:inkscape="http://www.inkscape.org/namespaces/inkscape"
   width="22"
   height="22"
   id="svg2"
   sodipodi:version="0.32"
   inkscape:version="0.45"
   version="1.0"
   sodipodi:docbase="/home/lapo/Icone/tangerine-icon-theme/22x22/devices"
   sodipodi:docname="drive-optical.svg"
   inkscape:export-filename="/home/lapo/Desktop/driver-harddisk.png"
   inkscape:export-xdpi="90"
   inkscape:export-ydpi="90"
   inkscape:output_extension="org.inkscape.output.svg.inkscape">
  <defs
     id="defs4">
    <linearGradient
       inkscape:collect="always"
       id="linearGradient7197">
      <stop
         style="stop-color:#000000;stop-opacity:1;"
         offset="0"
         id="stop7199" />
      <stop
         style="stop-color:#000000;stop-opacity:0;"
         offset="1"
         id="stop7201" />
    </linearGradient>
    <linearGradient
       inkscape:collect="always"
       id="linearGradient3273">
      <stop
         style="stop-color:#ffffff;stop-opacity:1;"
         offset="0"
         id="stop3275" />
      <stop
         style="stop-color:#ffffff;stop-opacity:0;"
         offset="1"
         id="stop3277" />
    </linearGradient>
    <linearGradient
       inkscape:collect="always"
       id="linearGradient3253">
      <stop
         style="stop-color:#babdb6"
         offset="0"
         id="stop3255" />
      <stop
         style="stop-color:#d3d7cf"
         offset="1"
         id="stop3257" />
    </linearGradient>
    <linearGradient
       id="linearGradient3208">
      <stop
         style="stop-color:#ffffff;stop-opacity:1;"
         offset="0"
         id="stop3210" />
      <stop
         style="stop-color:#eeeeec"
         offset="1"
         id="stop3212" />
    </linearGradient>
    <linearGradient
       inkscape:collect="always"
       xlink:href="#linearGradient3208"
       id="linearGradient3214"
       x1="-0.0026416883"
       y1="11.501321"
       x2="19.415695"
       y2="0.98310727"
       gradientUnits="userSpaceOnUse"
       gradientTransform="translate(0,-1)" />
    <linearGradient
       inkscape:collect="always"
       xlink:href="#linearGradient3273"
       id="linearGradient3279"
       x1="7.6897864"
       y1="12.89531"
       x2="7.6897864"
       y2="22.93572"
       gradientUnits="userSpaceOnUse"
       gradientTransform="translate(0,-1)" />
    <linearGradient
       inkscape:collect="always"
       xlink:href="#linearGradient3253"
       id="linearGradient6006"
       gradientUnits="userSpaceOnUse"
       x1="19.863447"
       y1="13.001619"
       x2="1.8427534"
       y2="18.242697"
       gradientTransform="translate(0,-1)" />
    <linearGradient
       y2="34.3075"
       x2="32.511"
       y1="11.1885"
       x1="14.9966"
       gradientUnits="userSpaceOnUse"
       id="aigrd1">
      <stop
         id="stop3034"
         style="stop-color:#EBEBEB"
         offset="0" />
      <stop
         id="stop3036"
         style="stop-color:#FFFFFF"
         offset="0.5" />
      <stop
         id="stop3038"
         style="stop-color:#EBEBEB"
         offset="1" />
    </linearGradient>
    <linearGradient
       y2="14.2033"
       x2="35.3912"
       y1="32.4165"
       x1="12.2744"
       gradientUnits="userSpaceOnUse"
       id="aigrd2">
      <stop
         id="stop3043"
         style="stop-color:#FBFBFB"
         offset="0" />
      <stop
         id="stop3045"
         style="stop-color:#B6B6B6"
         offset="0.5" />
      <stop
         id="stop3047"
         style="stop-color:#E4E4E4"
         offset="1" />
    </linearGradient>
    <linearGradient
       id="linearGradient6036"
       inkscape:collect="always">
      <stop
         id="stop6038"
         offset="0"
         style="stop-color:#ffffff;stop-opacity:1;" />
      <stop
         id="stop6040"
         offset="1"
         style="stop-color:#ffffff;stop-opacity:0;" />
    </linearGradient>
    <linearGradient
       id="linearGradient6028"
       inkscape:collect="always">
      <stop
         id="stop6030"
         offset="0"
         style="stop-color:#ffffff;stop-opacity:1;" />
      <stop
         id="stop6032"
         offset="1"
         style="stop-color:#ffffff;stop-opacity:0;" />
    </linearGradient>
    <linearGradient
       id="linearGradient4409"
       inkscape:collect="always">
      <stop
         id="stop4411"
         offset="0"
         style="stop-color:#ffffff;stop-opacity:1;" />
      <stop
         id="stop4413"
         offset="1"
         style="stop-color:#ffffff;stop-opacity:0;" />
    </linearGradient>
    <linearGradient
       inkscape:collect="always"
       xlink:href="#aigrd1"
       id="linearGradient7150"
       gradientUnits="userSpaceOnUse"
       gradientTransform="matrix(0.4885698,0,0,0.4885698,-0.7256489,10.714007)"
       x1="14.9966"
       y1="11.1885"
       x2="32.511"
       y2="34.3075" />
    <linearGradient
       inkscape:collect="always"
       xlink:href="#aigrd2"
       id="linearGradient7152"
       gradientUnits="userSpaceOnUse"
       gradientTransform="matrix(0.4885698,0,0,-0.4885698,-0.7256489,11.285993)"
       x1="12.817137"
       y1="-30.541025"
       x2="34.305725"
       y2="-13.295388" />
    <linearGradient
       inkscape:collect="always"
       xlink:href="#linearGradient4409"
       id="linearGradient7154"
       gradientUnits="userSpaceOnUse"
       gradientTransform="matrix(0.3924994,0,0,-0.3924994,1.6305329,9.49464)"
       x1="26.271841"
       y1="-33.108097"
       x2="14.764503"
       y2="-21.600758" />
    <linearGradient
       inkscape:collect="always"
       xlink:href="#linearGradient6036"
       id="linearGradient7156"
       gradientUnits="userSpaceOnUse"
       gradientTransform="matrix(0.3788318,0,0,0.3788318,1.7766078,12.529175)"
       x1="10.501720"
       y1="3.6100161"
       x2="48.798885"
       y2="54.698483" />
    <linearGradient
       inkscape:collect="always"
       xlink:href="#linearGradient6028"
       id="linearGradient7158"
       gradientUnits="userSpaceOnUse"
       x1="28.702885"
       y1="31.494707"
       x2="17.742729"
       y2="18.366575" />
    <mask
       maskUnits="userSpaceOnUse"
       id="mask7187">
      <rect
         style="opacity:1;fill:#ffffff;fill-opacity:1;fill-rule:evenodd;stroke:none;stroke-width:1;stroke-linecap:square;stroke-linejoin:round;stroke-miterlimit:4;stroke-dasharray:none;stroke-dashoffset:0.69999992;stroke-opacity:1"
         id="rect7189"
         width="18.270985"
         height="11.446464"
         x="1.8665315"
         y="19.853788" />
    </mask>
    <radialGradient
       inkscape:collect="always"
       xlink:href="#linearGradient7197"
       id="radialGradient7203"
       cx="11.5"
       cy="18.75"
       fx="11.5"
       fy="18.75"
       r="12.5"
       gradientTransform="matrix(1,0,0,0.14,0,16.125)"
       gradientUnits="userSpaceOnUse" />
  </defs>
  <sodipodi:namedview
     id="base"
     pagecolor="#ffffff"
     bordercolor="#666666"
     borderopacity="1.0"
     inkscape:pageopacity="0.0"
     inkscape:pageshadow="2"
     inkscape:zoom="1"
     inkscape:cx="13.755532"
     inkscape:cy="6.6006544"
     inkscape:document-units="px"
     inkscape:current-layer="layer3"
     showgrid="false"
     gridempspacing="2"
     gridspacingx="0.5px"
     gridspacingy="0.5px"
     inkscape:window-width="930"
     inkscape:window-height="738"
     inkscape:window-x="113"
     inkscape:window-y="195"
     fill="#eeeeec"
     stroke="#555753"
     inkscape:grid-points="true"
     inkscape:grid-bbox="true"
     showguides="true"
     inkscape:guide-bbox="true"
     showborder="false"
     inkscape:showpageshadow="false" />
  <metadata
     id="metadata7">
    <rdf:RDF>
      <cc:Work
         rdf:about="">
        <dc:format>image/svg+xml</dc:format>
        <dc:type
           rdf:resource="http://purl.org/dc/dcmitype/StillImage" />
        <dc:creator>
          <cc:Agent>
            <dc:title>Lapo Calamandrei</dc:title>
          </cc:Agent>
        </dc:creator>
      </cc:Work>
    </rdf:RDF>
  </metadata>
  <g
     inkscape:groupmode="layer"
     id="layer3"
     inkscape:label="Work"
     style="display:inline">
    <path
       sodipodi:type="arc"
       style="opacity:0.3;fill:url(#radialGradient7203);fill-opacity:1.0;fill-rule:evenodd;stroke:none;stroke-width:1;stroke-linecap:round;stroke-linejoin:round;stroke-miterlimit:4;stroke-dasharray:none;stroke-dashoffset:0.69999992;stroke-opacity:1"
       id="path7195"
       sodipodi:cx="11.5"
       sodipodi:cy="18.75"
       sodipodi:rx="12.5"
       sodipodi:ry="1.75"
       d="M 24 18.75 A 12.5 1.75 0 1 1  -1,18.75 A 12.5 1.75 0 1 1  24 18.75 z"
       transform="matrix(0.96,0,0,1.7142854,-4e-2,-13.142851)" />
    <path
       style="opacity:1;fill:url(#linearGradient3214);fill-opacity:1;stroke:#6e706b;stroke-width:1.10000002;stroke-linecap:round;stroke-linejoin:round;stroke-miterlimit:4;stroke-dasharray:none;stroke-opacity:1"
       d="M 3,1.5 L 0.5,11 L 0.5,17.375 C 0.5,17.423691 0.494056,17.484223 0.5,17.53125 C 0.509924,17.596561 0.541921,17.688947 0.5625,17.75 C 0.575083,17.784494 0.60924,17.842198 0.625,17.875 C 0.666313,17.955874 0.722401,18.057021 0.78125,18.125 C 0.805428,18.151612 0.848388,18.194573 0.875,18.21875 C 0.942979,18.2776 1.044126,18.333687 1.125,18.375 C 1.157802,18.39076 1.215506,18.424917 1.25,18.4375 C 1.311053,18.458079 1.403439,18.490076 1.46875,18.5 C 1.515777,18.505944 1.576309,18.5 1.625,18.5 L 20.375,18.5 C 20.423691,18.5 20.484223,18.505944 20.53125,18.5 C 20.596561,18.490076 20.688947,18.458079 20.75,18.4375 C 20.784494,18.424917 20.842198,18.39076 20.875,18.375 C 20.955874,18.333687 21.057021,18.2776 21.125,18.21875 C 21.151612,18.194573 21.194573,18.151612 21.21875,18.125 C 21.2776,18.057021 21.333687,17.955874 21.375,17.875 C 21.39076,17.842198 21.424917,17.784494 21.4375,17.75 C 21.458079,17.688947 21.490076,17.596561 21.5,17.53125 C 21.505944,17.484223 21.5,17.423691 21.5,17.375 L 21.5,11 L 19,1.5 L 3,1.5 z "
       id="rect1389"
       sodipodi:nodetypes="cccssssssssccsssssssscccc" />
    <path
       style="opacity:1;fill:none;fill-opacity:1;stroke:#ffffff;stroke-width:1;stroke-linecap:round;stroke-linejoin:round;stroke-miterlimit:4;stroke-opacity:1;display:inline"
       d="M 4,2.5 L 18,2.5 L 20.5,11.5 L 1.5,11.5 L 4,2.5 z "
       id="path3227"
       sodipodi:nodetypes="ccccc" />
    <rect
       style="fill:url(#linearGradient6006);fill-opacity:1;stroke:none;stroke-width:1;stroke-linecap:round;stroke-linejoin:round;stroke-miterlimit:4;stroke-dasharray:none;stroke-opacity:1;display:inline"
       id="rect3247"
       width="20"
       height="7"
       x="1"
       y="11"
       rx="0.62222844"
       ry="0.62222844" />
    <rect
       style="opacity:0.7;fill:none;fill-opacity:1;stroke:url(#linearGradient3279);stroke-width:1;stroke-linecap:round;stroke-linejoin:round;stroke-miterlimit:4;stroke-dasharray:none;stroke-opacity:1"
       id="rect3261"
       width="19"
       height="6"
       x="1.5"
       y="11.5"
       rx="0.10733674"
       ry="0.10733674" />
    <path
       style="fill:none;fill-opacity:0.75;fill-rule:evenodd;stroke:#ffffff;stroke-width:1px;stroke-linecap:round;stroke-linejoin:miter;stroke-opacity:1"
       d="M 1.5,11.5 L 20.5,11.5"
       id="path3281" />
    <rect
       style="opacity:1;fill:#888a85;fill-opacity:1;fill-rule:evenodd;stroke:#888a85;stroke-width:1.00000012;stroke-linecap:square;stroke-linejoin:round;stroke-miterlimit:4;stroke-dasharray:none;stroke-dashoffset:0.69999992;stroke-opacity:1"
       id="rect7191"
       width="14.937631"
       height="2.0167458"
       x="3.5134368"
       y="13.483255"
       rx="0"
       ry="0" />
    <g
       id="g7142"
       transform="matrix(0.8757054,0,0,0.6989058,1.3654683,0.124073)"
       mask="url(#mask7187)">
      <path
         style="fill:url(#linearGradient7150);fill-rule:nonzero;stroke:none;stroke-miterlimit:4"
         d="M 11.000029,13.449998 C 6.2609006,13.449998 2.4500557,17.260844 2.4500557,21.999972 C 2.4500557,26.7391 6.2609006,30.549945 11.000029,30.549945 C 15.739157,30.549945 19.550002,26.7391 19.550002,21.999972 C 19.550002,17.260844 15.739157,13.449998 11.000029,13.449998 L 11.000029,13.449998 z M 11.000029,24.051965 C 9.8763182,24.051965 8.9480354,23.123683 8.9480354,21.999972 C 8.9480354,20.876261 9.8763182,19.947978 11.000029,19.947978 C 12.123739,19.947978 13.052022,20.876261 13.052022,21.999972 C 13.052022,23.123683 12.123739,24.051965 11.000029,24.051965 z "
         id="path3040"
         inkscape:r_cx="true"
         inkscape:r_cy="true" />
      <path
         id="path3049"
         d="M 11,13.4375 C 6.260872,13.4375 2.4375,17.260872 2.4375,22 C 2.4375001,26.739129 6.2608716,30.5625 11,30.5625 C 15.739128,30.562499 19.5625,26.739128 19.5625,22 C 19.562501,17.260873 15.739128,13.4375 11,13.4375 z M 11,20.5 C 11.828,20.5 12.5,21.172 12.5,22 C 12.5,22.828 11.828,23.5 11,23.5 C 10.172,23.5 9.5,22.828 9.5,22 C 9.5,21.172 10.172,20.5 11,20.5 z "
         style="fill:url(#linearGradient7152);fill-rule:nonzero;stroke:#808080;stroke-width:1.27823853;stroke-miterlimit:4;stroke-opacity:1" />
      <path
         id="path3531"
         d="M 10.625,14 C 6.4010424,14.15932 3.0625,17.610461 3.0625,21.875 C 3.0624999,23.808258 3.7290161,25.569997 4.875,26.9375 L 9.40625,23.1875 C 9.1587883,22.854615 9,22.446359 9,22 C 8.9999997,20.895999 9.896,20 11,20 C 11.568179,20 12.073292,20.244139 12.4375,20.625 L 17,16.84375 C 15.557497,15.107272 13.352127,14 10.90625,14 C 10.803901,14 10.726375,13.996177 10.625,14 z "
         style="fill:url(#linearGradient7154);fill-opacity:1;fill-rule:nonzero;stroke:none;stroke-miterlimit:4;stroke-opacity:1" />
      <path
         id="path3051"
         d="M 11,18 C 8.76625,18 7,19.818198 7,22 C 7.0000001,24.233751 8.8181977,26 11,26 C 13.23375,26 15,24.181802 15,22 C 15,19.766251 13.181802,18 11,18 z M 11,20 C 12.104,19.999999 13,20.896 13,22 C 13,23.103999 12.104,24 11,24 C 9.8959996,23.999999 9,23.104 9,22 C 8.9999997,20.895999 9.896,20 11,20 z "
         style="opacity:0.4;fill:#eeeeec;fill-rule:nonzero;stroke:none;stroke-miterlimit:4" />
      <path
         sodipodi:nodetypes="cccccc"
         id="path5264"
         d="M 11.000027,14.499997 C 6.8428992,14.499997 3.5000543,17.842843 3.5000543,21.999969 C 3.5000543,26.157098 6.8428992,29.499942 11.000027,29.499942 C 15.157154,29.499942 18.499999,26.157098 18.499999,21.999969 C 18.499999,17.842843 15.157154,14.499997 11.000027,14.499997 L 11.000027,14.499997 z "
         style="opacity:0.54644811;fill:none;fill-rule:nonzero;stroke:url(#linearGradient7156);stroke-width:1.27823853;stroke-miterlimit:4;stroke-opacity:1"
         inkscape:r_cx="true"
         inkscape:r_cy="true" />
      <path
         transform="matrix(0.4188583,0,0,0.4188583,0.8386979,11.565376)"
         d="M 30.405591 24.930641 A 6.0987959 6.0987959 0 1 1  18.207999,24.930641 A 6.0987959 6.0987959 0 1 1  30.405591 24.930641 z"
         sodipodi:ry="6.0987959"
         sodipodi:rx="6.0987959"
         sodipodi:cy="24.930641"
         sodipodi:cx="24.306795"
         id="path6026"
         style="opacity:0.67213111;color:#000000;fill:none;fill-opacity:0.31638417;fill-rule:nonzero;stroke:url(#linearGradient7158);stroke-width:2.83974314;stroke-linecap:butt;stroke-linejoin:miter;marker:none;marker-start:none;marker-mid:none;marker-end:none;stroke-miterlimit:4;stroke-dashoffset:0;stroke-opacity:1;visibility:visible;display:inline;overflow:visible"
         sodipodi:type="arc"
         inkscape:r_cx="true"
         inkscape:r_cy="true" />
    </g>
    <path
       style="fill:none;fill-rule:evenodd;stroke:#000000;stroke-width:1px;stroke-linecap:round;stroke-linejoin:miter;stroke-opacity:1;opacity:0.1"
       d="M 3.5,14.5 L 18.5,14.5"
       id="path7193" />
  </g>
</svg>
