<?xml version="1.0" encoding="UTF-8" standalone="no"?>
<!-- Created with Inkscape (http://www.inkscape.org/) -->
<svg
   xmlns:dc="http://purl.org/dc/elements/1.1/"
   xmlns:cc="http://web.resource.org/cc/"
   xmlns:rdf="http://www.w3.org/1999/02/22-rdf-syntax-ns#"
   xmlns:svg="http://www.w3.org/2000/svg"
   xmlns="http://www.w3.org/2000/svg"
   xmlns:xlink="http://www.w3.org/1999/xlink"
   xmlns:sodipodi="http://sodipodi.sourceforge.net/DTD/sodipodi-0.dtd"
   xmlns:inkscape="http://www.inkscape.org/namespaces/inkscape"
   width="16"
   height="16"
   id="svg2"
   sodipodi:version="0.32"
   inkscape:version="0.45"
   version="1.0"
   sodipodi:docbase="/home/lapo/Icone/tangerine-icon-theme/16x16/devices"
   sodipodi:docname="keyboard.svg"
   inkscape:export-filename="/home/lapo/Desktop/keyboard.png"
   inkscape:export-xdpi="90"
   inkscape:export-ydpi="90"
   inkscape:output_extension="org.inkscape.output.svg.inkscape">
  <defs
     id="defs4">
    <linearGradient
       id="linearGradient1384"
       inkscape:collect="always">
      <stop
         id="stop1386"
         offset="0"
         style="stop-color:#555753" />
      <stop
         id="stop1388"
         offset="1"
         style="stop-color:#babdb6" />
    </linearGradient>
    <linearGradient
       id="linearGradient2410">
      <stop
         id="stop2412"
         offset="0"
         style="stop-color:#888a85" />
      <stop
         id="stop2414"
         offset="1"
         style="stop-color:#2e3436" />
    </linearGradient>
    <linearGradient
       id="linearGradient2829"
       inkscape:collect="always">
      <stop
         id="stop2831"
         offset="0"
         style="stop-color:#babdb6" />
      <stop
         id="stop2833"
         offset="1"
         style="stop-color:#eeeeec" />
    </linearGradient>
    <linearGradient
       id="linearGradient4663">
      <stop
         style="stop-color:#000000;stop-opacity:1;"
         offset="0"
         id="stop4665" />
      <stop
         style="stop-color:#2e3436"
         offset="1"
         id="stop4667" />
    </linearGradient>
    <linearGradient
       id="linearGradient1476">
      <stop
         style="stop-color:#000000;stop-opacity:0.46601942;"
         offset="0"
         id="stop1478" />
      <stop
         style="stop-color:#000000;stop-opacity:0;"
         offset="1"
         id="stop1480" />
    </linearGradient>
    <linearGradient
       id="linearGradient1482">
      <stop
         style="stop-color:#e2e3e0;stop-opacity:1;"
         offset="0"
         id="stop1484" />
      <stop
         id="stop1488"
         offset="0.17857143"
         style="stop-color:#e0e0de;stop-opacity:1;" />
      <stop
         style="stop-color:#ffffff;stop-opacity:0;"
         offset="1"
         id="stop1486" />
    </linearGradient>
    <radialGradient
       inkscape:collect="always"
       xlink:href="#linearGradient2410"
       id="radialGradient2289"
       gradientUnits="userSpaceOnUse"
       gradientTransform="matrix(1.261268,-2.28712e-16,-9.329797e-6,0.406909,-5.811847,4.51679)"
       cx="11.303862"
       cy="17.163469"
       fx="11.303862"
       fy="17.163469"
       r="7.0007591" />
    <linearGradient
       inkscape:collect="always"
       xlink:href="#linearGradient4663"
       id="linearGradient2292"
       gradientUnits="userSpaceOnUse"
       gradientTransform="matrix(0.3394219,0,0,0.765058,-62.128025,-38.85729)"
       x1="196.88957"
       y1="63.996719"
       x2="196.88957"
       y2="67.691895" />
    <linearGradient
       inkscape:collect="always"
       xlink:href="#linearGradient2829"
       id="linearGradient2296"
       gradientUnits="userSpaceOnUse"
       gradientTransform="matrix(0.322153,0,0,0.710254,0.317839,-16.11812)"
       x1="42.75"
       y1="37"
       x2="5"
       y2="43.125" />
    <linearGradient
       inkscape:collect="always"
       xlink:href="#linearGradient1384"
       id="linearGradient2298"
       gradientUnits="userSpaceOnUse"
       gradientTransform="matrix(0.720005,0,0,1.247423,0.118912,-11.31959)"
       x1="22.029285"
       y1="20.992985"
       x2="22.029285"
       y2="16.247284" />
    <linearGradient
       inkscape:collect="always"
       xlink:href="#linearGradient1476"
       id="linearGradient2482"
       gradientUnits="userSpaceOnUse"
       gradientTransform="translate(58.98372,-14.01174)"
       x1="38.308968"
       y1="24.675686"
       x2="37.037182"
       y2="20.529673" />
    <linearGradient
       inkscape:collect="always"
       xlink:href="#linearGradient1482"
       id="linearGradient2484"
       gradientUnits="userSpaceOnUse"
       gradientTransform="translate(58.46402,-14.51174)"
       x1="35.781757"
       y1="21.261322"
       x2="35.262543"
       y2="16.452835" />
  </defs>
  <sodipodi:namedview
     id="base"
     pagecolor="#ffffff"
     bordercolor="#666666"
     borderopacity="1"
     inkscape:pageopacity="0.0"
     inkscape:pageshadow="2"
     inkscape:zoom="1"
     inkscape:cx="-79.603829"
     inkscape:cy="37.977654"
     inkscape:document-units="px"
     inkscape:current-layer="layer2"
     showgrid="false"
     stroke="#888a85"
     fill="#555753"
     inkscape:grid-points="true"
     inkscape:grid-bbox="true"
     inkscape:window-width="1085"
     inkscape:window-height="760"
     inkscape:window-x="3"
     inkscape:window-y="23"
     gridspacingx="0.5px"
     gridspacingy="0.5px"
     gridempspacing="2"
     showguides="false"
     inkscape:guide-bbox="true"
     inkscape:showpageshadow="false"
     showborder="false">
    <sodipodi:guide
       orientation="vertical"
       position="24.010638"
       id="guide2292" />
    <sodipodi:guide
       orientation="horizontal"
       position="7"
       id="guide2294" />
  </sodipodi:namedview>
  <metadata
     id="metadata7">
    <rdf:RDF>
      <cc:Work
         rdf:about="">
        <dc:format>image/svg+xml</dc:format>
        <dc:type
           rdf:resource="http://purl.org/dc/dcmitype/StillImage" />
      </cc:Work>
    </rdf:RDF>
  </metadata>
  <g
     inkscape:groupmode="layer"
     id="layer1"
     inkscape:label="Shadow" />
  <g
     inkscape:groupmode="layer"
     id="layer2"
     inkscape:label="Lavoro"
     style="display:inline">
    <g
       id="g2611"
       inkscape:label="Shadow"
       transform="translate(0,15.06603)" />
    <g
       id="g2613"
       inkscape:label="Lavoro"
       style="display:inline"
       transform="translate(0,15.06603)" />
    <path
       sodipodi:nodetypes="ccccc"
       id="path2624"
       d="M 30.6875,19.2 L 70,19.2 L 72,24 L 29,24 L 30.6875,19.2 z "
       style="opacity:0.7;color:#000000;fill:none;fill-opacity:1;fill-rule:nonzero;stroke:#ffffff;stroke-width:1;stroke-linecap:round;stroke-linejoin:miter;marker:none;marker-start:none;marker-mid:none;marker-end:none;stroke-miterlimit:4;stroke-dasharray:none;stroke-dashoffset:0;stroke-opacity:1;visibility:visible;display:inline;overflow:visible" />
    <g
       id="g2478"
       transform="matrix(0.455409,0,0,0.889195,-33.00106,-2.445354)">
      <path
         style="fill:none;fill-opacity:1;fill-rule:evenodd;stroke:url(#linearGradient2482);stroke-width:1.57145143;stroke-linecap:butt;stroke-linejoin:miter;stroke-miterlimit:4;stroke-dasharray:none;stroke-opacity:1"
         d="M 97.483718,16.98826 C 88.272614,10.168476 108.28082,14.473874 106.37054,10.741293 C 104.46026,7.008712 84.431728,13.027733 84.54172,8.9006198 C 84.651712,4.7735068 95.612392,12.078404 92.668979,0.438545"
         id="path2418"
         sodipodi:nodetypes="czzc" />
      <path
         style="fill:none;fill-opacity:1;fill-rule:evenodd;stroke:url(#linearGradient2484);stroke-width:1.57145143;stroke-linecap:butt;stroke-linejoin:miter;stroke-miterlimit:4;stroke-dasharray:none;stroke-opacity:1;display:inline"
         d="M 96.964025,16.48826 C 87.77701,9.620297 108.11747,13.944457 106.34142,10.107502 C 104.56591,6.271731 84.709679,12.416563 84.566217,8.606267 C 84.422755,4.840567 97.71669,7.9913585 92.149286,-0.061455"
         id="path1472"
         sodipodi:nodetypes="czzc" />
    </g>
    <path
       sodipodi:nodetypes="ccccc"
       id="path2622"
       d="M 1,10.5 L 15,10.5 L 15.5,15.5 L 0.5,15.5 L 1,10.5 z "
       style="color:#000000;fill:url(#linearGradient2296);fill-opacity:1;fill-rule:nonzero;stroke:url(#linearGradient2298);stroke-width:0.9;stroke-linecap:round;stroke-linejoin:round;marker:none;marker-start:none;marker-mid:none;marker-end:none;stroke-miterlimit:4;stroke-dasharray:none;stroke-dashoffset:0;stroke-opacity:1;visibility:visible;display:inline;overflow:visible" />
    <path
       sodipodi:nodetypes="ccccc"
       id="path2626"
       d="M 2.5000006,10.5 L 13.5,10.5 L 13.5,13.5 L 2.5000006,13.5 L 2.5000006,10.5 z "
       style="color:#000000;fill:url(#linearGradient2292);fill-opacity:1;fill-rule:nonzero;stroke:#000000;stroke-width:1.00000119;stroke-linecap:round;stroke-linejoin:round;marker:none;marker-start:none;marker-mid:none;marker-end:none;stroke-miterlimit:4;stroke-dashoffset:0;stroke-opacity:1;visibility:visible;display:inline;overflow:visible" />
    <path
       style="fill:url(#radialGradient2289);fill-opacity:1;stroke:none;stroke-width:0.80000001;stroke-linecap:round;stroke-linejoin:round;stroke-miterlimit:4;stroke-dasharray:none;stroke-opacity:1"
       d="M 2.405491,10.000759 C 2.3892215,10.004091 2.3586443,10.027137 2.342991,10.03201 C 2.3200204,10.040426 2.2704944,10.05171 2.249241,10.06326 C 2.1805142,10.105034 2.1035147,10.182033 2.061741,10.25076 C 2.0501907,10.272013 2.0389069,10.321539 2.030491,10.34451 C 2.0231829,10.36799 2.0030368,10.413441 1.999241,10.43826 C 1.997533,10.455062 1.999241,10.48351 1.999241,10.50076 C 1.999241,10.51801 1.997533,10.546458 1.999241,10.56326 C 2.0030368,10.588079 2.0231829,10.63353 2.030491,10.65701 C 2.0389069,10.679981 2.0501907,10.729507 2.061741,10.75076 C 2.1035147,10.819487 2.1805142,10.896486 2.249241,10.93826 C 2.2704944,10.94981 2.3200204,10.961094 2.342991,10.96951 C 2.366471,10.976818 2.4119218,10.996964 2.436741,11.00076 C 2.4535428,11.002468 2.481991,11.00076 2.499241,11.00076 C 2.516491,11.00076 2.5449392,11.002468 2.561741,11.00076 C 2.5865602,10.996964 2.632011,10.976818 2.655491,10.96951 C 2.6784616,10.961094 2.7279876,10.94981 2.749241,10.93826 C 2.8179678,10.896486 2.8949673,10.819487 2.936741,10.75076 C 2.9482913,10.729507 2.9595751,10.679981 2.967991,10.65701 C 2.9752991,10.63353 2.9954452,10.588079 2.999241,10.56326 C 3.000949,10.546458 2.999241,10.51801 2.999241,10.50076 C 2.999241,10.48351 3.000949,10.455062 2.999241,10.43826 C 2.9954452,10.413441 2.9752991,10.36799 2.967991,10.34451 C 2.9595751,10.321539 2.9482913,10.272013 2.936741,10.25076 C 2.8949673,10.182033 2.8179678,10.105034 2.749241,10.06326 C 2.7279876,10.05171 2.6784616,10.040426 2.655491,10.03201 C 2.632011,10.024701 2.5865602,10.004555 2.561741,10.000759 C 2.5449392,9.9990511 2.516491,10.000759 2.499241,10.000759 C 2.481991,10.000759 2.4535428,9.9990511 2.436741,10.000759 C 2.4284679,10.002024 2.4136258,9.9990931 2.405491,10.000759 z M 4.405491,10.000759 C 4.3892215,10.004091 4.3586443,10.027137 4.342991,10.03201 C 4.3200204,10.040426 4.2704944,10.05171 4.249241,10.06326 C 4.1805142,10.105034 4.1035147,10.182033 4.061741,10.25076 C 4.0501907,10.272013 4.0389069,10.321539 4.030491,10.34451 C 4.0231829,10.36799 4.0030368,10.413441 3.999241,10.43826 C 3.997533,10.455062 3.999241,10.48351 3.999241,10.50076 C 3.999241,10.51801 3.997533,10.546458 3.999241,10.56326 C 4.0030368,10.588079 4.0231829,10.63353 4.030491,10.65701 C 4.0389069,10.679981 4.0501907,10.729507 4.061741,10.75076 C 4.1035147,10.819487 4.1805142,10.896486 4.249241,10.93826 C 4.2704944,10.94981 4.3200204,10.961094 4.342991,10.96951 C 4.366471,10.976818 4.4119218,10.996964 4.436741,11.00076 C 4.4535428,11.002468 4.481991,11.00076 4.499241,11.00076 C 4.516491,11.00076 4.5449392,11.002468 4.561741,11.00076 C 4.5865602,10.996964 4.632011,10.976818 4.655491,10.96951 C 4.6784616,10.961094 4.7279876,10.94981 4.749241,10.93826 C 4.8179678,10.896486 4.8949673,10.819487 4.936741,10.75076 C 4.9482913,10.729507 4.9595751,10.679981 4.967991,10.65701 C 4.9752991,10.63353 4.9954452,10.588079 4.999241,10.56326 C 5.000949,10.546458 4.999241,10.51801 4.999241,10.50076 C 4.999241,10.48351 5.000949,10.455062 4.999241,10.43826 C 4.9954452,10.413441 4.9752991,10.36799 4.967991,10.34451 C 4.9595751,10.321539 4.9482913,10.272013 4.936741,10.25076 C 4.8949673,10.182033 4.8179678,10.105034 4.749241,10.06326 C 4.7279876,10.05171 4.6784616,10.040426 4.655491,10.03201 C 4.632011,10.024701 4.5865602,10.004555 4.561741,10.000759 C 4.5449392,9.9990511 4.516491,10.000759 4.499241,10.000759 C 4.481991,10.000759 4.4535428,9.9990511 4.436741,10.000759 C 4.4284679,10.002024 4.4136258,9.9990931 4.405491,10.000759 z M 6.405491,10.000759 C 6.3892215,10.004091 6.3586443,10.027137 6.342991,10.03201 C 6.3200204,10.040426 6.2704944,10.05171 6.249241,10.06326 C 6.1805142,10.105034 6.1035147,10.182033 6.061741,10.25076 C 6.0501907,10.272013 6.0389069,10.321539 6.030491,10.34451 C 6.0231829,10.36799 6.0030368,10.413441 5.999241,10.43826 C 5.997533,10.455062 5.999241,10.48351 5.999241,10.50076 C 5.999241,10.51801 5.997533,10.546458 5.999241,10.56326 C 6.0030368,10.588079 6.0231829,10.63353 6.030491,10.65701 C 6.0389069,10.679981 6.0501907,10.729507 6.061741,10.75076 C 6.1035147,10.819487 6.1805142,10.896486 6.249241,10.93826 C 6.2704944,10.94981 6.3200204,10.961094 6.342991,10.96951 C 6.366471,10.976818 6.4119218,10.996964 6.436741,11.00076 C 6.4535428,11.002468 6.481991,11.00076 6.499241,11.00076 C 6.516491,11.00076 6.5449392,11.002468 6.561741,11.00076 C 6.5865602,10.996964 6.632011,10.976818 6.655491,10.96951 C 6.6784616,10.961094 6.7279876,10.94981 6.749241,10.93826 C 6.8179678,10.896486 6.8949673,10.819487 6.936741,10.75076 C 6.9482913,10.729507 6.9595751,10.679981 6.967991,10.65701 C 6.9752991,10.63353 6.9954452,10.588079 6.9992409,10.56326 C 7.0009489,10.546458 6.9992409,10.51801 6.9992409,10.50076 C 6.9992409,10.48351 7.0009489,10.455062 6.9992409,10.43826 C 6.9954452,10.413441 6.9752991,10.36799 6.967991,10.34451 C 6.9595751,10.321539 6.9482913,10.272013 6.936741,10.25076 C 6.8949673,10.182033 6.8179678,10.105034 6.749241,10.06326 C 6.7279876,10.05171 6.6784616,10.040426 6.655491,10.03201 C 6.632011,10.024701 6.5865602,10.004555 6.561741,10.000759 C 6.5449392,9.9990511 6.516491,10.000759 6.499241,10.000759 C 6.481991,10.000759 6.4535428,9.9990511 6.436741,10.000759 C 6.4284679,10.002024 6.4136258,9.9990931 6.405491,10.000759 z M 8.4054909,10.000759 C 8.3892209,10.004091 8.3586439,10.027137 8.3429909,10.03201 C 8.3200199,10.040426 8.2704939,10.05171 8.2492409,10.06326 C 8.1805139,10.105034 8.1035149,10.182033 8.0617409,10.25076 C 8.0501909,10.272013 8.0389069,10.321539 8.0304909,10.34451 C 8.0231829,10.36799 8.0030369,10.413441 7.9992409,10.43826 C 7.9975329,10.455062 7.9992409,10.48351 7.9992409,10.50076 C 7.9992409,10.51801 7.9975329,10.546458 7.9992409,10.56326 C 8.0030369,10.588079 8.0231829,10.63353 8.0304909,10.65701 C 8.0389069,10.679981 8.0501909,10.729507 8.0617409,10.75076 C 8.1035149,10.819487 8.1805139,10.896486 8.2492409,10.93826 C 8.2704939,10.94981 8.3200199,10.961094 8.3429909,10.96951 C 8.3664709,10.976818 8.4119219,10.996964 8.4367409,11.00076 C 8.4535429,11.002468 8.4819909,11.00076 8.4992409,11.00076 C 8.5164909,11.00076 8.5449389,11.002468 8.5617409,11.00076 C 8.5865599,10.996964 8.6320109,10.976818 8.6554909,10.96951 C 8.6784619,10.961094 8.7279879,10.94981 8.7492409,10.93826 C 8.8179679,10.896486 8.8949669,10.819487 8.9367409,10.75076 C 8.9482909,10.729507 8.9595749,10.679981 8.9679909,10.65701 C 8.9752989,10.63353 8.9954449,10.588079 8.9992409,10.56326 C 9.0009489,10.546458 8.9992409,10.51801 8.9992409,10.50076 C 8.9992409,10.48351 9.0009489,10.455062 8.9992409,10.43826 C 8.9954449,10.413441 8.9752989,10.36799 8.9679909,10.34451 C 8.9595749,10.321539 8.9482909,10.272013 8.9367409,10.25076 C 8.8949669,10.182033 8.8179679,10.105034 8.7492409,10.06326 C 8.7279879,10.05171 8.6784619,10.040426 8.6554909,10.03201 C 8.6320109,10.024701 8.5865599,10.004555 8.5617409,10.000759 C 8.5449389,9.9990511 8.5164909,10.000759 8.4992409,10.000759 C 8.4819909,10.000759 8.4535429,9.9990511 8.4367409,10.000759 C 8.4284679,10.002024 8.4136259,9.9990931 8.4054909,10.000759 z M 10.405491,10.000759 C 10.389221,10.004091 10.358644,10.027137 10.342991,10.03201 C 10.32002,10.040426 10.270494,10.05171 10.249241,10.06326 C 10.180514,10.105034 10.103515,10.182033 10.061741,10.25076 C 10.050191,10.272013 10.038907,10.321539 10.030491,10.34451 C 10.023183,10.36799 10.003037,10.413441 9.9992409,10.43826 C 9.9975329,10.455062 9.9992409,10.48351 9.9992409,10.50076 C 9.9992409,10.51801 9.9975329,10.546458 9.9992409,10.56326 C 10.003037,10.588079 10.023183,10.63353 10.030491,10.65701 C 10.038907,10.679981 10.050191,10.729507 10.061741,10.75076 C 10.103515,10.819487 10.180514,10.896486 10.249241,10.93826 C 10.270494,10.94981 10.32002,10.961094 10.342991,10.96951 C 10.366471,10.976818 10.411922,10.996964 10.436741,11.00076 C 10.453543,11.002468 10.481991,11.00076 10.499241,11.00076 C 10.516491,11.00076 10.544939,11.002468 10.561741,11.00076 C 10.58656,10.996964 10.632011,10.976818 10.655491,10.96951 C 10.678462,10.961094 10.727988,10.94981 10.749241,10.93826 C 10.817968,10.896486 10.894967,10.819487 10.936741,10.75076 C 10.948291,10.729507 10.959575,10.679981 10.967991,10.65701 C 10.975299,10.63353 10.995445,10.588079 10.999241,10.56326 C 11.000949,10.546458 10.999241,10.51801 10.999241,10.50076 C 10.999241,10.48351 11.000949,10.455062 10.999241,10.43826 C 10.995445,10.413441 10.975299,10.36799 10.967991,10.34451 C 10.959575,10.321539 10.948291,10.272013 10.936741,10.25076 C 10.894967,10.182033 10.817968,10.105034 10.749241,10.06326 C 10.727988,10.05171 10.678462,10.040426 10.655491,10.03201 C 10.632011,10.024701 10.58656,10.004555 10.561741,10.000759 C 10.544939,9.9990511 10.516491,10.000759 10.499241,10.000759 C 10.481991,10.000759 10.453543,9.9990511 10.436741,10.000759 C 10.428468,10.002024 10.413626,9.9990931 10.405491,10.000759 z M 12.405491,10.000759 C 12.389221,10.004091 12.358644,10.027137 12.342991,10.03201 C 12.32002,10.040426 12.270494,10.05171 12.249241,10.06326 C 12.180514,10.105034 12.103515,10.182033 12.061741,10.25076 C 12.050191,10.272013 12.038907,10.321539 12.030491,10.34451 C 12.023183,10.36799 12.003037,10.413441 11.999241,10.43826 C 11.997533,10.455062 11.999241,10.48351 11.999241,10.50076 C 11.999241,10.51801 11.997533,10.546458 11.999241,10.56326 C 12.003037,10.588079 12.023183,10.63353 12.030491,10.65701 C 12.038907,10.679981 12.050191,10.729507 12.061741,10.75076 C 12.103515,10.819487 12.180514,10.896486 12.249241,10.93826 C 12.270494,10.94981 12.32002,10.961094 12.342991,10.96951 C 12.366471,10.976818 12.411922,10.996964 12.436741,11.00076 C 12.453543,11.002468 12.481991,11.00076 12.499241,11.00076 C 12.516491,11.00076 12.544939,11.002468 12.561741,11.00076 C 12.58656,10.996964 12.632011,10.976818 12.655491,10.96951 C 12.678462,10.961094 12.727988,10.94981 12.749241,10.93826 C 12.817968,10.896486 12.894967,10.819487 12.936741,10.75076 C 12.948291,10.729507 12.959575,10.679981 12.967991,10.65701 C 12.975299,10.63353 12.995445,10.588079 12.999241,10.56326 C 13.000949,10.546458 12.999241,10.51801 12.999241,10.50076 C 12.999241,10.48351 13.000949,10.455062 12.999241,10.43826 C 12.995445,10.413441 12.975299,10.36799 12.967991,10.34451 C 12.959575,10.321539 12.948291,10.272013 12.936741,10.25076 C 12.894967,10.182033 12.817968,10.105034 12.749241,10.06326 C 12.727988,10.05171 12.678462,10.040426 12.655491,10.03201 C 12.632011,10.024701 12.58656,10.004555 12.561741,10.000759 C 12.544939,9.9990511 12.516491,10.000759 12.499241,10.000759 C 12.481991,10.000759 12.453543,9.9990511 12.436741,10.000759 C 12.428468,10.002024 12.413626,9.9990931 12.405491,10.000759 z M 3.405491,11.00076 C 3.3892215,11.004092 3.3586443,11.027138 3.342991,11.03201 C 3.3200204,11.040426 3.2704944,11.05171 3.249241,11.06326 C 3.1805142,11.105034 3.1035147,11.182033 3.061741,11.25076 C 3.0501907,11.272013 3.0389069,11.321539 3.030491,11.34451 C 3.0231829,11.36799 3.0030368,11.413441 2.999241,11.43826 C 2.997533,11.455062 2.999241,11.48351 2.999241,11.50076 C 2.999241,11.51801 2.997533,11.546458 2.999241,11.56326 C 3.0030368,11.588079 3.0231829,11.63353 3.030491,11.65701 C 3.0389069,11.679981 3.0501907,11.729507 3.061741,11.75076 C 3.1035147,11.819487 3.1805142,11.896486 3.249241,11.93826 C 3.2704944,11.94981 3.3200204,11.961094 3.342991,11.96951 C 3.366471,11.976818 3.4119218,11.996964 3.436741,12.00076 C 3.4535428,12.002468 3.481991,12.00076 3.499241,12.00076 C 3.516491,12.00076 3.5449392,12.002468 3.561741,12.00076 C 3.5865602,11.996964 3.632011,11.976818 3.655491,11.96951 C 3.6784616,11.961094 3.7279876,11.94981 3.749241,11.93826 C 3.8179678,11.896486 3.8949673,11.819487 3.936741,11.75076 C 3.9482913,11.729507 3.9595751,11.679981 3.967991,11.65701 C 3.9752991,11.63353 3.9954452,11.588079 3.999241,11.56326 C 4.000949,11.546458 3.999241,11.51801 3.999241,11.50076 C 3.999241,11.48351 4.000949,11.455062 3.999241,11.43826 C 3.9954452,11.413441 3.9752991,11.36799 3.967991,11.34451 C 3.9595751,11.321539 3.9482913,11.272013 3.936741,11.25076 C 3.8949673,11.182033 3.8179678,11.105034 3.749241,11.06326 C 3.7279876,11.05171 3.6784616,11.040426 3.655491,11.03201 C 3.632011,11.024702 3.5865602,11.004556 3.561741,11.00076 C 3.5449392,10.999052 3.516491,11.00076 3.499241,11.00076 C 3.481991,11.00076 3.4535428,10.999052 3.436741,11.00076 C 3.4284679,11.002025 3.4136258,10.999094 3.405491,11.00076 z M 5.405491,11.00076 C 5.3892215,11.004092 5.3586443,11.027138 5.342991,11.03201 C 5.3200204,11.040426 5.2704944,11.05171 5.249241,11.06326 C 5.1805142,11.105034 5.1035147,11.182033 5.061741,11.25076 C 5.0501907,11.272013 5.0389069,11.321539 5.030491,11.34451 C 5.0231829,11.36799 5.0030368,11.413441 4.999241,11.43826 C 4.997533,11.455062 4.999241,11.48351 4.999241,11.50076 C 4.999241,11.51801 4.997533,11.546458 4.999241,11.56326 C 5.0030368,11.588079 5.0231829,11.63353 5.030491,11.65701 C 5.0389069,11.679981 5.0501907,11.729507 5.061741,11.75076 C 5.1035147,11.819487 5.1805142,11.896486 5.249241,11.93826 C 5.2704944,11.94981 5.3200204,11.961094 5.342991,11.96951 C 5.366471,11.976818 5.4119218,11.996964 5.436741,12.00076 C 5.4535428,12.002468 5.481991,12.00076 5.499241,12.00076 C 5.516491,12.00076 5.5449392,12.002468 5.561741,12.00076 C 5.5865602,11.996964 5.632011,11.976818 5.655491,11.96951 C 5.6784616,11.961094 5.7279876,11.94981 5.749241,11.93826 C 5.8179678,11.896486 5.8949673,11.819487 5.936741,11.75076 C 5.9482913,11.729507 5.9595751,11.679981 5.967991,11.65701 C 5.9752991,11.63353 5.9954452,11.588079 5.999241,11.56326 C 6.000949,11.546458 5.999241,11.51801 5.999241,11.50076 C 5.999241,11.48351 6.000949,11.455062 5.999241,11.43826 C 5.9954452,11.413441 5.9752991,11.36799 5.967991,11.34451 C 5.9595751,11.321539 5.9482913,11.272013 5.936741,11.25076 C 5.8949673,11.182033 5.8179678,11.105034 5.749241,11.06326 C 5.7279876,11.05171 5.6784616,11.040426 5.655491,11.03201 C 5.632011,11.024702 5.5865602,11.004556 5.561741,11.00076 C 5.5449392,10.999052 5.516491,11.00076 5.499241,11.00076 C 5.481991,11.00076 5.4535428,10.999052 5.436741,11.00076 C 5.4284679,11.002025 5.4136258,10.999094 5.405491,11.00076 z M 7.4054909,11.00076 C 7.3892209,11.004092 7.3586439,11.027138 7.3429909,11.03201 C 7.3200199,11.040426 7.2704939,11.05171 7.2492409,11.06326 C 7.1805139,11.105034 7.1035149,11.182033 7.0617409,11.25076 C 7.0501909,11.272013 7.0389069,11.321539 7.0304909,11.34451 C 7.0231829,11.36799 7.0030369,11.413441 6.9992409,11.43826 C 6.997533,11.455062 6.9992409,11.48351 6.9992409,11.50076 C 6.9992409,11.51801 6.997533,11.546458 6.9992409,11.56326 C 7.0030369,11.588079 7.0231829,11.63353 7.0304909,11.65701 C 7.0389069,11.679981 7.0501909,11.729507 7.0617409,11.75076 C 7.1035149,11.819487 7.1805139,11.896486 7.2492409,11.93826 C 7.2704939,11.94981 7.3200199,11.961094 7.3429909,11.96951 C 7.3664709,11.976818 7.4119219,11.996964 7.4367409,12.00076 C 7.4535429,12.002468 7.4819909,12.00076 7.4992409,12.00076 C 7.5164909,12.00076 7.5449389,12.002468 7.5617409,12.00076 C 7.5865599,11.996964 7.6320109,11.976818 7.6554909,11.96951 C 7.6784619,11.961094 7.7279879,11.94981 7.7492409,11.93826 C 7.8179679,11.896486 7.8949669,11.819487 7.9367409,11.75076 C 7.9482909,11.729507 7.9595749,11.679981 7.9679909,11.65701 C 7.9752989,11.63353 7.9954449,11.588079 7.9992409,11.56326 C 8.0009489,11.546458 7.9992409,11.51801 7.9992409,11.50076 C 7.9992409,11.48351 8.0009489,11.455062 7.9992409,11.43826 C 7.9954449,11.413441 7.9752989,11.36799 7.9679909,11.34451 C 7.9595749,11.321539 7.9482909,11.272013 7.9367409,11.25076 C 7.8949669,11.182033 7.8179679,11.105034 7.7492409,11.06326 C 7.7279879,11.05171 7.6784619,11.040426 7.6554909,11.03201 C 7.6320109,11.024702 7.5865599,11.004556 7.5617409,11.00076 C 7.5449389,10.999052 7.5164909,11.00076 7.4992409,11.00076 C 7.4819909,11.00076 7.4535429,10.999052 7.4367409,11.00076 C 7.4284679,11.002025 7.4136259,10.999094 7.4054909,11.00076 z M 9.4054909,11.00076 C 9.3892209,11.004092 9.3586439,11.027138 9.3429909,11.03201 C 9.3200199,11.040426 9.2704939,11.05171 9.2492409,11.06326 C 9.1805139,11.105034 9.1035149,11.182033 9.0617409,11.25076 C 9.0501909,11.272013 9.0389069,11.321539 9.0304909,11.34451 C 9.0231829,11.36799 9.0030369,11.413441 8.9992409,11.43826 C 8.9975329,11.455062 8.9992409,11.48351 8.9992409,11.50076 C 8.9992409,11.51801 8.9975329,11.546458 8.9992409,11.56326 C 9.0030369,11.588079 9.0231829,11.63353 9.0304909,11.65701 C 9.0389069,11.679981 9.0501909,11.729507 9.0617409,11.75076 C 9.1035149,11.819487 9.1805139,11.896486 9.2492409,11.93826 C 9.2704939,11.94981 9.3200199,11.961094 9.3429909,11.96951 C 9.3664709,11.976818 9.4119219,11.996964 9.4367409,12.00076 C 9.4535429,12.002468 9.4819909,12.00076 9.4992409,12.00076 C 9.5164909,12.00076 9.5449389,12.002468 9.5617409,12.00076 C 9.5865599,11.996964 9.6320109,11.976818 9.6554909,11.96951 C 9.6784619,11.961094 9.7279879,11.94981 9.7492409,11.93826 C 9.8179679,11.896486 9.8949669,11.819487 9.9367409,11.75076 C 9.9482909,11.729507 9.9595749,11.679981 9.9679909,11.65701 C 9.9752989,11.63353 9.9954449,11.588079 9.9992409,11.56326 C 10.000949,11.546458 9.9992409,11.51801 9.9992409,11.50076 C 9.9992409,11.48351 10.000949,11.455062 9.9992409,11.43826 C 9.9954449,11.413441 9.9752989,11.36799 9.9679909,11.34451 C 9.9595749,11.321539 9.9482909,11.272013 9.9367409,11.25076 C 9.8949669,11.182033 9.8179679,11.105034 9.7492409,11.06326 C 9.7279879,11.05171 9.6784619,11.040426 9.6554909,11.03201 C 9.6320109,11.024702 9.5865599,11.004556 9.5617409,11.00076 C 9.5449389,10.999052 9.5164909,11.00076 9.4992409,11.00076 C 9.4819909,11.00076 9.4535429,10.999052 9.4367409,11.00076 C 9.4284679,11.002025 9.4136259,10.999094 9.4054909,11.00076 z M 11.405491,11.00076 C 11.389221,11.004092 11.358644,11.027138 11.342991,11.03201 C 11.32002,11.040426 11.270494,11.05171 11.249241,11.06326 C 11.180514,11.105034 11.103515,11.182033 11.061741,11.25076 C 11.050191,11.272013 11.038907,11.321539 11.030491,11.34451 C 11.023183,11.36799 11.003037,11.413441 10.999241,11.43826 C 10.997533,11.455062 10.999241,11.48351 10.999241,11.50076 C 10.999241,11.51801 10.997533,11.546458 10.999241,11.56326 C 11.003037,11.588079 11.023183,11.63353 11.030491,11.65701 C 11.038907,11.679981 11.050191,11.729507 11.061741,11.75076 C 11.103515,11.819487 11.180514,11.896486 11.249241,11.93826 C 11.270494,11.94981 11.32002,11.961094 11.342991,11.96951 C 11.366471,11.976818 11.411922,11.996964 11.436741,12.00076 C 11.453543,12.002468 11.481991,12.00076 11.499241,12.00076 C 11.516491,12.00076 11.544939,12.002468 11.561741,12.00076 C 11.58656,11.996964 11.632011,11.976818 11.655491,11.96951 C 11.678462,11.961094 11.727988,11.94981 11.749241,11.93826 C 11.817968,11.896486 11.894967,11.819487 11.936741,11.75076 C 11.948291,11.729507 11.959575,11.679981 11.967991,11.65701 C 11.975299,11.63353 11.995445,11.588079 11.999241,11.56326 C 12.000949,11.546458 11.999241,11.51801 11.999241,11.50076 C 11.999241,11.48351 12.000949,11.455062 11.999241,11.43826 C 11.995445,11.413441 11.975299,11.36799 11.967991,11.34451 C 11.959575,11.321539 11.948291,11.272013 11.936741,11.25076 C 11.894967,11.182033 11.817968,11.105034 11.749241,11.06326 C 11.727988,11.05171 11.678462,11.040426 11.655491,11.03201 C 11.632011,11.024702 11.58656,11.004556 11.561741,11.00076 C 11.544939,10.999052 11.516491,11.00076 11.499241,11.00076 C 11.481991,11.00076 11.453543,10.999052 11.436741,11.00076 C 11.428468,11.002025 11.413626,10.999094 11.405491,11.00076 z M 13.405491,11.00076 C 13.389221,11.004092 13.358644,11.027138 13.342991,11.03201 C 13.32002,11.040426 13.270494,11.05171 13.249241,11.06326 C 13.180514,11.105034 13.103515,11.182033 13.061741,11.25076 C 13.050191,11.272013 13.038907,11.321539 13.030491,11.34451 C 13.023183,11.36799 13.003037,11.413441 12.999241,11.43826 C 12.997533,11.455062 12.999241,11.48351 12.999241,11.50076 C 12.999241,11.51801 12.997533,11.546458 12.999241,11.56326 C 13.003037,11.588079 13.023183,11.63353 13.030491,11.65701 C 13.038907,11.679981 13.050191,11.729507 13.061741,11.75076 C 13.103515,11.819487 13.180514,11.896486 13.249241,11.93826 C 13.270494,11.94981 13.32002,11.961094 13.342991,11.96951 C 13.366471,11.976818 13.411922,11.996964 13.436741,12.00076 C 13.453543,12.002468 13.481991,12.00076 13.499241,12.00076 C 13.516491,12.00076 13.544939,12.002468 13.561741,12.00076 C 13.58656,11.996964 13.632011,11.976818 13.655491,11.96951 C 13.678462,11.961094 13.727988,11.94981 13.749241,11.93826 C 13.817968,11.896486 13.894967,11.819487 13.936741,11.75076 C 13.948291,11.729507 13.959575,11.679981 13.967991,11.65701 C 13.975299,11.63353 13.995445,11.588079 13.999241,11.56326 C 14.000949,11.546458 13.999241,11.51801 13.999241,11.50076 C 13.999241,11.48351 14.000949,11.455062 13.999241,11.43826 C 13.995445,11.413441 13.975299,11.36799 13.967991,11.34451 C 13.959575,11.321539 13.948291,11.272013 13.936741,11.25076 C 13.894967,11.182033 13.817968,11.105034 13.749241,11.06326 C 13.727988,11.05171 13.678462,11.040426 13.655491,11.03201 C 13.632011,11.024702 13.58656,11.004556 13.561741,11.00076 C 13.544939,10.999052 13.516491,11.00076 13.499241,11.00076 C 13.481991,11.00076 13.453543,10.999052 13.436741,11.00076 C 13.428468,11.002025 13.413626,10.999094 13.405491,11.00076 z M 2.405491,12.00076 C 2.3892215,12.004092 2.3586443,12.027138 2.342991,12.03201 C 2.3200204,12.040426 2.2704944,12.05171 2.249241,12.06326 C 2.1805142,12.105034 2.1035147,12.182033 2.061741,12.25076 C 2.0501907,12.272013 2.0389069,12.321539 2.030491,12.34451 C 2.0231829,12.36799 2.0030368,12.413441 1.999241,12.43826 C 1.997533,12.455062 1.999241,12.48351 1.999241,12.50076 C 1.999241,12.51801 1.997533,12.546458 1.999241,12.56326 C 2.0030368,12.588079 2.0231829,12.63353 2.030491,12.65701 C 2.0389069,12.679981 2.0501907,12.729507 2.061741,12.75076 C 2.1035147,12.819487 2.1805142,12.896486 2.249241,12.93826 C 2.2704944,12.94981 2.3200204,12.961094 2.342991,12.96951 C 2.366471,12.976818 2.4119218,12.996964 2.436741,13.00076 C 2.4535428,13.002468 2.481991,13.00076 2.499241,13.00076 C 2.516491,13.00076 2.5449392,13.002468 2.561741,13.00076 C 2.5865602,12.996964 2.632011,12.976818 2.655491,12.96951 C 2.6784616,12.961094 2.7279876,12.94981 2.749241,12.93826 C 2.8179678,12.896486 2.8949673,12.819487 2.936741,12.75076 C 2.9482913,12.729507 2.9595751,12.679981 2.967991,12.65701 C 2.9752991,12.63353 2.9954452,12.588079 2.999241,12.56326 C 3.000949,12.546458 2.999241,12.51801 2.999241,12.50076 C 2.999241,12.48351 3.000949,12.455062 2.999241,12.43826 C 2.9954452,12.413441 2.9752991,12.36799 2.967991,12.34451 C 2.9595751,12.321539 2.9482913,12.272013 2.936741,12.25076 C 2.8949673,12.182033 2.8179678,12.105034 2.749241,12.06326 C 2.7279876,12.05171 2.6784616,12.040426 2.655491,12.03201 C 2.632011,12.024702 2.5865602,12.004556 2.561741,12.00076 C 2.5449392,11.999052 2.516491,12.00076 2.499241,12.00076 C 2.481991,12.00076 2.4535428,11.999052 2.436741,12.00076 C 2.4284679,12.002025 2.4136258,11.999094 2.405491,12.00076 z M 4.405491,12.00076 C 4.3892215,12.004092 4.3586443,12.027138 4.342991,12.03201 C 4.3200204,12.040426 4.2704944,12.05171 4.249241,12.06326 C 4.1805142,12.105034 4.1035147,12.182033 4.061741,12.25076 C 4.0501907,12.272013 4.0389069,12.321539 4.030491,12.34451 C 4.0231829,12.36799 4.0030368,12.413441 3.999241,12.43826 C 3.997533,12.455062 3.999241,12.48351 3.999241,12.50076 C 3.999241,12.51801 3.997533,12.546458 3.999241,12.56326 C 4.0030368,12.588079 4.0231829,12.63353 4.030491,12.65701 C 4.0389069,12.679981 4.0501907,12.729507 4.061741,12.75076 C 4.1035147,12.819487 4.1805142,12.896486 4.249241,12.93826 C 4.2704944,12.94981 4.3200204,12.961094 4.342991,12.96951 C 4.366471,12.976818 4.4119218,12.996964 4.436741,13.00076 C 4.4535428,13.002468 4.481991,13.00076 4.499241,13.00076 C 4.516491,13.00076 4.5449392,13.002468 4.561741,13.00076 C 4.5865602,12.996964 4.632011,12.976818 4.655491,12.96951 C 4.6784616,12.961094 4.7279876,12.94981 4.749241,12.93826 C 4.8179678,12.896486 4.8949673,12.819487 4.936741,12.75076 C 4.9482913,12.729507 4.9595751,12.679981 4.967991,12.65701 C 4.9752991,12.63353 4.9954452,12.588079 4.999241,12.56326 C 5.000949,12.546458 4.999241,12.51801 4.999241,12.50076 C 4.999241,12.48351 5.000949,12.455062 4.999241,12.43826 C 4.9954452,12.413441 4.9752991,12.36799 4.967991,12.34451 C 4.9595751,12.321539 4.9482913,12.272013 4.936741,12.25076 C 4.8949673,12.182033 4.8179678,12.105034 4.749241,12.06326 C 4.7279876,12.05171 4.6784616,12.040426 4.655491,12.03201 C 4.632011,12.024702 4.5865602,12.004556 4.561741,12.00076 C 4.5449392,11.999052 4.516491,12.00076 4.499241,12.00076 C 4.481991,12.00076 4.4535428,11.999052 4.436741,12.00076 C 4.4284679,12.002025 4.4136258,11.999094 4.405491,12.00076 z M 12.405491,12.00076 C 12.389221,12.004092 12.358644,12.027138 12.342991,12.03201 C 12.32002,12.040426 12.270494,12.05171 12.249241,12.06326 C 12.180514,12.105034 12.103515,12.182033 12.061741,12.25076 C 12.050191,12.272013 12.038907,12.321539 12.030491,12.34451 C 12.023183,12.36799 12.003037,12.413441 11.999241,12.43826 C 11.997533,12.455062 11.999241,12.48351 11.999241,12.50076 C 11.999241,12.51801 11.997533,12.546458 11.999241,12.56326 C 12.003037,12.588079 12.023183,12.63353 12.030491,12.65701 C 12.038907,12.679981 12.050191,12.729507 12.061741,12.75076 C 12.103515,12.819487 12.180514,12.896486 12.249241,12.93826 C 12.270494,12.94981 12.32002,12.961094 12.342991,12.96951 C 12.366471,12.976818 12.411922,12.996964 12.436741,13.00076 C 12.453543,13.002468 12.481991,13.00076 12.499241,13.00076 C 12.516491,13.00076 12.544939,13.002468 12.561741,13.00076 C 12.58656,12.996964 12.632011,12.976818 12.655491,12.96951 C 12.678462,12.961094 12.727988,12.94981 12.749241,12.93826 C 12.817968,12.896486 12.894967,12.819487 12.936741,12.75076 C 12.948291,12.729507 12.959575,12.679981 12.967991,12.65701 C 12.975299,12.63353 12.995445,12.588079 12.999241,12.56326 C 13.000949,12.546458 12.999241,12.51801 12.999241,12.50076 C 12.999241,12.48351 13.000949,12.455062 12.999241,12.43826 C 12.995445,12.413441 12.975299,12.36799 12.967991,12.34451 C 12.959575,12.321539 12.948291,12.272013 12.936741,12.25076 C 12.894967,12.182033 12.817968,12.105034 12.749241,12.06326 C 12.727988,12.05171 12.678462,12.040426 12.655491,12.03201 C 12.632011,12.024702 12.58656,12.004556 12.561741,12.00076 C 12.544939,11.999052 12.516491,12.00076 12.499241,12.00076 C 12.481991,12.00076 12.453543,11.999052 12.436741,12.00076 C 12.428468,12.002025 12.413626,11.999094 12.405491,12.00076 z "
       id="path2414"
       sodipodi:nodetypes="cssssssssssssssssssssssssssssccssssssssssssssssssssssssssssccssssssssssssssssssssssssssssccssssssssssssssssssssssssssssccssssssssssssssssssssssssssssccssssssssssssssssssssssssssssccssssssssssssssssssssssssssssccssssssssssssssssssssssssssssccssssssssssssssssssssssssssssccssssssssssssssssssssssssssssccssssssssssssssssssssssssssssccssssssssssssssssssssssssssssccssssssssssssssssssssssssssssccssssssssssssssssssssssssssssccssssssssssssssssssssssssssssc" />
  </g>
  <g
     inkscape:groupmode="layer"
     id="layer3"
     inkscape:label="finiture"
     style="display:inline" />
</svg>
